<svg xmlns="http://www.w3.org/2000/svg" viewBox="0 0 35.34 52"><defs><style>.cls-1{fill:#001f7d;}</style></defs><title>Asset 3</title><g id="Layer_2" data-name="Layer 2"><g id="Layer_1-2" data-name="Layer 1"><path class="cls-1" d="M17.67,52a1.28,1.28,0,0,1-.91-.38L.44,35.23a1.62,1.62,0,0,1-.31-1.75,1.33,1.33,0,0,1,1.22-.86h9.57V1.49A1.41,1.41,0,0,1,12.27,0h.37l5,4.37,5-4.37h.37a1.41,1.41,0,0,1,1.35,1.49V32.63H34a1.33,1.33,0,0,1,1.22.86,1.62,1.62,0,0,1-.31,1.75L18.58,51.62A1.28,1.28,0,0,1,17.67,52Zm-15-17.37,15,15.06,15-15.06H22.41V2.89L17.67,7,12.92,2.89V34.63Z"/></g></g></svg>