<svg xmlns="http://www.w3.org/2000/svg" viewBox="0 0 199.44 80"><defs><style>.cls-1{fill:#1c4969;}.cls-2{fill:#00aeef;}</style></defs><title>Asset 1</title><g id="Layer_2" data-name="Layer 2"><g id="Layer_1-2" data-name="Layer 1"><path class="cls-1" d="M199.44,54.73q-1.95-2.84-3.67-5.29l-3-4.26q-1.53-2.15-2.39-3.33a27.08,27.08,0,0,0,4.15-3.56,12.64,12.64,0,0,0,3.41-7.65q.22-2.25.22-5.31V22h-9.66v8.45q0,1.56-.06,2.54a7.14,7.14,0,0,1-.26,1.59,3.27,3.27,0,0,1-.56,1.08,7.77,7.77,0,0,1-.94,1q-.61-.77-1.36-1.82l-1.59-2.23L182,30.16q-.89-1.23-1.72-2.41-2-2.74-4.11-5.77H165.48v.67q1.69,2.23,3.19,4.3,1.31,1.75,2.62,3.56t2.11,2.79q-2.17,2-3.54,3.48A11.52,11.52,0,0,0,167.69,40a14.15,14.15,0,0,0-1,4.29q-.25,2.52-.25,6.63v4.43h9.34v-5.1q0-2.2,0-4a24.43,24.43,0,0,1,.1-3.14,11.47,11.47,0,0,1,.49-2.42,5.15,5.15,0,0,1,1.21-1.94l1.36,2,1.67,2.49q.89,1.34,1.87,2.74t1.9,2.77q2.14,3.12,4.56,6.6h10.59v-.63ZM162.46,22h-9.28V55.37h9.28ZM150,31.18a13.47,13.47,0,0,0-1.88-5.2,8.1,8.1,0,0,0-3.64-3,14.57,14.57,0,0,0-5.74-1H120V37.35a4.3,4.3,0,0,0,1.05,3.25,3.93,3.93,0,0,0,2.81,1h10V35.12H130a.77.77,0,0,1-.51-.16c-.13-.11-.19-.38-.19-.83V29.38H138a2.67,2.67,0,0,1,1.15.26,1.73,1.73,0,0,1,.83,1.05,15.65,15.65,0,0,1,.51,2.87,44.46,44.46,0,0,1,.25,5.1q0,5.68-.83,7.62a1.88,1.88,0,0,1-.83.89,2.41,2.41,0,0,1-1.15.29H120.21v7.91h18.24a13.89,13.89,0,0,0,5.76-1.05,8.78,8.78,0,0,0,3.73-3.17,13.82,13.82,0,0,0,2-5.25,40.39,40.39,0,0,0,.57-7.24,45,45,0,0,0-.54-7.48M115.43,22H98.85v7.91h7.81l-1,12.4q-.35,3.48-1.69,4.72a6.15,6.15,0,0,1-4.27,1.24h-.32a14.34,14.34,0,0,1-2.65-.21A3.6,3.6,0,0,1,95,47.27a3.42,3.42,0,0,1-1-1.63,11.14,11.14,0,0,1-.38-2.74L91.76,11.81H82.29l2.17,30.9a21.75,21.75,0,0,0,1.63,7.43,8.94,8.94,0,0,0,4,4.31,11.68,11.68,0,0,0,3.76,1.18,33.93,33.93,0,0,0,4.94.32h1.37a16.57,16.57,0,0,0,7.77-1.59,11.26,11.26,0,0,0,4.7-4.72A13.92,13.92,0,0,0,114,45.88q.45-2.06.77-4.74l1.85-17.25Q116.8,22,115.43,22M80,22H70.75V41.15H80ZM68.1,32.31q0-5.48-2.62-8.07t-8-2.58H54.45a11.14,11.14,0,0,0-3,.37,10.47,10.47,0,0,0-2.23.88,8.15,8.15,0,0,0-1.48,1.39,10.86,10.86,0,0,0-1.28,1.88,14.48,14.48,0,0,0-.92,2.09A18,18,0,0,0,45,30.15h-.13L42,22H32.52l5.29,15.63L33.76,55.37h9.41l4.75-21.24a7.26,7.26,0,0,1,1.82-3.54,4.78,4.78,0,0,1,3.54-1.28h.92a4.81,4.81,0,0,1,3.56,1.1,4.62,4.62,0,0,1,1.07,3.33V47.46H50.94v7.91H68.1V32.31Zm-38-8.39v-.42q0-1.53-.86-1.53H12.32V11.81H3v16.9q0,.93.26,1.05a1.86,1.86,0,0,0,.8.13H19.69L17.74,43.35A4.53,4.53,0,0,1,15.62,47a8.06,8.06,0,0,1-3.84.92h-1.5v7.43q.6.13,1.45.26a11.44,11.44,0,0,0,1.71.13,17,17,0,0,0,4.83-.65A10.62,10.62,0,0,0,22.21,53a12,12,0,0,0,2.9-3.81,21,21,0,0,0,1.79-5.76l3.13-19a2,2,0,0,0,.06-.48"/><path class="cls-2" d="M65.92,66.62a.47.47,0,0,0,.22-.15A3.91,3.91,0,0,1,68.32,65a3.48,3.48,0,0,1,1.89.16.82.82,0,0,1,.52.62c.06.25.19.49.24.75a5.92,5.92,0,0,0,.23,1.05,8.35,8.35,0,0,1,1.11-1.32,4.64,4.64,0,0,1,1.63-1.24,3.12,3.12,0,0,1,1.85-.11.74.74,0,0,1,.62.68,3.28,3.28,0,0,1-.12,1.71c-.2.63-.45,1.24-.65,1.86a8.27,8.27,0,0,0-.58,2.49,2.17,2.17,0,0,0,.4,1.29.14.14,0,0,0,.23,0,4.27,4.27,0,0,0,.8-.83,8.25,8.25,0,0,0,.65-1l1-1.61a11.74,11.74,0,0,1,1.66-2.34c.3-.3.56-.64.88-.92a5.18,5.18,0,0,1,1.63-1.06,5.64,5.64,0,0,1,.87-.18c.45-.08.88-.23,1.33-.28a3.33,3.33,0,0,1,1.34.13c.32.1.63.26.95.33a2.37,2.37,0,0,1,1.24.85,3.62,3.62,0,0,1,.74,1.14.22.22,0,0,1,0,.18.23.23,0,0,0,.09.32c.12.07.15.61.08.73a.19.19,0,0,1-.22.08,4.08,4.08,0,0,0-.74-.1.2.2,0,0,0-.24.13A12.6,12.6,0,0,1,87,69.91a10.75,10.75,0,0,0-.9,1.53,2.61,2.61,0,0,0-.32,1.27.51.51,0,0,0,.8.47,8.29,8.29,0,0,0,1.08-.58c.41-.33.88-.58,1.3-.9a3.17,3.17,0,0,1,.63-.48.26.26,0,0,0,.13-.41c-.14-.17-.13-.37-.22-.55s.08-.1.08-.16a.81.81,0,0,0,0-.32A1.1,1.1,0,0,1,89.7,69c.05-.13.18-.19.07-.35s0-.09,0-.06c.26.11,0-.11.08-.13s0-.12,0-.12c.23-.08.24-.24.16-.43s0-.17.11-.16a.06.06,0,0,0,.06-.1c-.29-.3-.08-.58.08-.8a1.56,1.56,0,0,0,.22-.54A4.5,4.5,0,0,1,91,65.21c.11-.22.19-.45.3-.66l.4-.76c0-.06.07-.15.14-.08s.16,0,.22-.1-.07-.22.12-.2c0,0,0-.07,0-.1s-.14-.12,0-.26a3,3,0,0,1,.37-.53.73.73,0,0,0,.11-.24c.1,0,.09.21.2.12A.69.69,0,0,0,93,62c0-.08-.27,0-.08-.18a1.4,1.4,0,0,0,.19-.26,8,8,0,0,1,.59-.87,2.27,2.27,0,0,0,.51-.7.76.76,0,0,1,.26-.32c.42-.32.72-.78,1.14-1.09A2.61,2.61,0,0,1,96.94,58a2.54,2.54,0,0,1,1.35.36,1.56,1.56,0,0,1,.42,1.36c0,.05,0,.08,0,.11a1.76,1.76,0,0,1-.2,1.31c-.06.1-.06.24-.11.35s-.14.13-.16-.06a.84.84,0,0,0-.05.35c0,.22-.24.32-.27.53s-.34.52-.41.83a1.58,1.58,0,0,0,0,.2c.06-.14.16-.12.26-.14-.24.1-.1.39-.31.53a1.65,1.65,0,0,0-.71.9.35.35,0,0,1-.14.16c-.08.06-.13.09-.08.22s.13.29-.14.24c0,0,0,.12,0,.12.18.1,0,.19,0,.26a1.18,1.18,0,0,1-.33.43c-.16.1-.17.4-.44.32,0,.08-.14.11-.08.23s0,.13-.09.19-.22.14-.14.31c0,0,0,.17-.16.15s-.07,0-.07,0c0,.29-.2.44-.35.64s-.29.27-.24.51c0,0-.05.11-.08.17-.25-.21-.24.15-.39.18s-.15.19-.29.25,0,.18.13.2c-.15.06-.35,0-.25.27,0,.11-.21.22-.31.36a6.78,6.78,0,0,1-.9.88c-.19.17-.32.45-.64.51a4.37,4.37,0,0,0,1.27,1,6.11,6.11,0,0,0,1.07.46,7.21,7.21,0,0,0,1.26.24c.47.05.93.1,1.4.1s.77,0,1.16-.07.51-.08.77-.09a13.24,13.24,0,0,0,1.33-.18c.52-.06,1-.13,1.57-.24s.92-.12,1.38-.22a1.4,1.4,0,0,1,.8-.09s.1,0,.14,0a3.85,3.85,0,0,1,1.27-.17.78.78,0,0,1-.57.4c-.68.05-1.28.39-1.94.5l-.85.17c-.09,0-.19,0-.23.12s-.07.05-.09,0-.07-.07-.11,0c-.29.27-.67.16-1,.25a3.54,3.54,0,0,0-.92.19,1.28,1.28,0,0,1-.41.08,27.56,27.56,0,0,1-4.22.15c-.2,0-.41-.07-.61-.09a6,6,0,0,1-1.13-.21,3.3,3.3,0,0,1-1.3-.55c-.12-.11-.3,0-.44-.14s-.37-.34-.57-.5a.21.21,0,0,0-.21,0,4.15,4.15,0,0,1-1,.68,8.62,8.62,0,0,1-.72.48,1.17,1.17,0,0,1-.67.17.19.19,0,0,0-.1,0,7.37,7.37,0,0,1-1.23.43.61.61,0,0,1-.2,0A5.49,5.49,0,0,1,85,74a1.57,1.57,0,0,1-1-.75c0-.1-.09-.1-.16-.06a4.26,4.26,0,0,1-2.39.55,6,6,0,0,1-1.38-.05,5.28,5.28,0,0,1-.77-.23,1.9,1.9,0,0,1-.85-.78c-.08-.13-.16-.1-.26,0a6,6,0,0,1-.81.82c-.13.09-.31.08-.41.21l0,0c.07.09.28,0,.26.2s-.18.24-.32.3a1.89,1.89,0,0,1-1,0,4.06,4.06,0,0,1-1.3-.29,2.46,2.46,0,0,1-1.06-.85,2.5,2.5,0,0,1-.43-1.39,5.11,5.11,0,0,1,.18-1.46c.1-.33.19-.67.29-1,.15-.5.35-1,.51-1.46s.25-.84.38-1.29c-.2,0-.27.19-.37.28a8.76,8.76,0,0,0-1.06,1.24c-.25.34-.49.69-.7,1.06-.41.71-.81,1.43-1.19,2.16s-.73,1.4-1.14,2.07a1.24,1.24,0,0,1-.19.23.48.48,0,0,0-.18.36.28.28,0,0,1-.3.3,3.46,3.46,0,0,0-.4.07c-.34,0-.67-.07-1-.05,0,0,0,0-.07,0-.43.1-.49-.26-.6-.51a.38.38,0,0,1,.12-.44,1.65,1.65,0,0,0,.45-1,1.25,1.25,0,0,1,.07-.26c.16-.31.15-.66.29-1,.23-.51.33-1.06.51-1.59s.24-.78.34-1.18a6.75,6.75,0,0,0,.11-1.49,2.5,2.5,0,0,0-.05-.44c0-.28-.16-.34-.37-.16a5.54,5.54,0,0,1-.49.35,1.31,1.31,0,0,0-.49.47c-.12.34-.44.48-.6.76a4.18,4.18,0,0,1-.58.93c-.12.12-.11.32-.2.41s-.14.31-.22.44-.23.66-.46.9a4.37,4.37,0,0,0-.59.86,2.09,2.09,0,0,0-.43.82,2.4,2.4,0,0,1-.32.74,3.27,3.27,0,0,0-.47,1.51c0,.14-.06.17-.18.16a4.16,4.16,0,0,0-.78.11,1.34,1.34,0,0,1-.88-.09.32.32,0,0,1-.18-.39c.16-.7.23-1.41.44-2.1.15-.5.35-1,.51-1.47s.27-.72.41-1.08a15,15,0,0,0,.62-2,6.31,6.31,0,0,0,0-1.49c0-.13-.1-.1-.16,0-.21.2-.57.18-.68.54a.44.44,0,0,1-.32.28.26.26,0,0,0-.17.24c0,.08,0,.26-.22.23a1.38,1.38,0,0,0-.14.31c0,.09-.11.08-.14.15a6,6,0,0,1-.82,1.1,10,10,0,0,0-.7.87,12.11,12.11,0,0,1-.72,1.16,11.53,11.53,0,0,1-1.21,1.34c-.13.11-.22.25-.35.37a3.84,3.84,0,0,1-1.61.77c-.18.06-.38.06-.55.13a1.17,1.17,0,0,1-1.35-.5,4.46,4.46,0,0,0-.29-.43.82.82,0,0,1-.15-.41,9.8,9.8,0,0,0-.22-1,1.72,1.72,0,0,1,0-.32.13.13,0,0,0-.08-.12c-.07,0-.06.07-.08.08-.3.17-.3.55-.53.76s-.45.42-.69.61a6.28,6.28,0,0,1-1.26.73,5.9,5.9,0,0,1-1.88.61,5.07,5.07,0,0,1-2.13-.22,5.34,5.34,0,0,1-1.79-1,9.41,9.41,0,0,1-1.1-1.11,10.51,10.51,0,0,1-1.13-1.81A6.35,6.35,0,0,1,42.83,68a8.43,8.43,0,0,1-.29-1.57,16.59,16.59,0,0,1,.06-1.86,14.15,14.15,0,0,1,.23-2,6.29,6.29,0,0,1,.32-1.38,6.15,6.15,0,0,0,.27-.89,7.79,7.79,0,0,1,.46-1.21c.21-.48.42-1,.66-1.42a18,18,0,0,1,.9-1.56l.63-.95a3.66,3.66,0,0,1,.37-.63.07.07,0,0,0,0-.11.31.31,0,0,0-.15,0,3.87,3.87,0,0,1-1.11.24,9.75,9.75,0,0,0-1.13.35,8.71,8.71,0,0,0-1.49.75,3,3,0,0,1-1,.23c-.2,0-.4,0-.61,0a.49.49,0,0,1-.49-.45.5.5,0,0,1,.27-.4,13.64,13.64,0,0,1,1.58-.78A8.91,8.91,0,0,1,44,53.85a10.05,10.05,0,0,1,1.78-.31,8.87,8.87,0,0,0,1.37-.2c.1,0,.17-.13.22-.23A5.77,5.77,0,0,1,48,52.05c.34-.44.55-.95.9-1.38s.79-1.19,1.19-1.79.89-1.2,1.31-1.82.74-.94,1-1.46c.13-.22.35-.38.49-.6.31-.49.67-.94.94-1.46a.9.9,0,0,0,.07-.21c.11-.45.26-.6.71-.58a3.29,3.29,0,0,1,1.06.2.51.51,0,0,1,.25.58,4.31,4.31,0,0,1-.65,1.18c-.19.29-.41.57-.62.85s-.63.83-1,1.23-.45.65-.68,1c-.44.6-.9,1.18-1.32,1.78s-.81,1.23-1.2,1.85c-.19.3-.44.55-.59.86s-.33.51-.46.78c-.05.11,0,.16.1.15.32,0,.63,0,1,0a1.37,1.37,0,0,1,.7,0c.14.06.28,0,.42,0a5.47,5.47,0,0,1,1.43.09c.12,0,.26,0,.39,0a15.27,15.27,0,0,0,1.57.1,11,11,0,0,1,1.34,0c.1,0,.2,0,.31,0s.22.05.35,0,.27,0,.4.05a.83.83,0,0,0,.51,0,.45.45,0,0,1,.41.08c.18.13.44.08.65.1a.47.47,0,0,1,.35.18.54.54,0,0,0,.2.18c.12,0,.14,0,.15-.1a.11.11,0,0,1,.12-.1h.28l-.2.23c.22,0,.42.08.63.1a1.53,1.53,0,0,1,.45.16s0,.05,0,0c.18-.23.25,0,.43.09a4.14,4.14,0,0,1-1.39,0c-.41-.06-.82-.08-1.23-.11-.68-.05-1.37-.09-2.06-.12s-1.22-.1-1.84-.08c-.8,0-1.59-.1-2.39,0s-1.51,0-2.27,0c-.46,0-.92.1-1.39.09a.18.18,0,0,0-.17.08l-.61.94c-.22.33-.42.68-.63,1s-.37.63-.54.95-.48.86-.7,1.3c-.12.25-.24.51-.37.75a9.29,9.29,0,0,1-.39,1,3.38,3.38,0,0,0-.34,1c-.18.7-.31,1.42-.45,2.13a12,12,0,0,0-.16,2,4.16,4.16,0,0,0,0,1,6.47,6.47,0,0,0,.35,1.36c.11.24.17.51.3.75a2.49,2.49,0,0,0,.33.58,2.86,2.86,0,0,1,.31.51,6.07,6.07,0,0,0,1.64,1.73,4,4,0,0,0,1.51.7,5.69,5.69,0,0,0,1.17.18,1.69,1.69,0,0,0,1.27-.6,18.06,18.06,0,0,0,1.26-1.54,11.3,11.3,0,0,0,.66-1c.27-.45.6-.86.87-1.3a6.44,6.44,0,0,0,.59-1.38c.13-.37.25-.74.37-1.11a2.52,2.52,0,0,1,.32-.63.64.64,0,0,0,.12-.47c0-.29.14-.41.37-.53a3.63,3.63,0,0,1,.93-.31.92.92,0,0,1,.93.52.32.32,0,0,1,0,.24,7.21,7.21,0,0,0-.76,1.73,9.31,9.31,0,0,0-.51,1.35,6.6,6.6,0,0,0-.29,1.35,6.52,6.52,0,0,1-.16,1,4.19,4.19,0,0,0,.12,2,1.86,1.86,0,0,0,.29.56c.12.16.17.11.26,0,.39-.48.78-1,1.17-1.43s.68-1.09,1.08-1.6c.25-.33.52-.64.77-1s.46-.7.69-1a7.78,7.78,0,0,1,1.22-1.4,4.53,4.53,0,0,1,2-1,3.43,3.43,0,0,1,1.2-.07,1.1,1.1,0,0,1,.87.94c0,.17.16.29.13.48A2.09,2.09,0,0,0,65.92,66.62Zm26.2.06,0,.07h.09a.23.23,0,0,1,0,.17,9.49,9.49,0,0,0-.42,1.12,6.58,6.58,0,0,0-.31,1.54c.21-.22.4-.4.57-.59l1.1-1.26a11.87,11.87,0,0,0,1-1.23c.39-.58.74-1.18,1.15-1.75A12.71,12.71,0,0,0,96,63.39a14.35,14.35,0,0,0,.88-1.94,5.42,5.42,0,0,0,.37-2.17c0-.08,0-.18-.07-.2a.22.22,0,0,0-.23.12,1,1,0,0,1-.16.24,6.89,6.89,0,0,0-1.24,1.39,13.32,13.32,0,0,0-1.14,1.64c-.15.29-.38.53-.54.82s-.29.41-.4.64-.3.7-.48,1a3.57,3.57,0,0,0-.41.79A1.38,1.38,0,0,1,92.11,66.69ZM80,71.7a1.15,1.15,0,0,0,1.25,1.24,2.28,2.28,0,0,0,1.18-.58A10.8,10.8,0,0,0,83.69,71a7.92,7.92,0,0,0,.94-1.33c.18-.35.4-.68.58-1s.31-.7.45-1,.17-.75.34-1.1a.14.14,0,0,0,0-.16,1.44,1.44,0,0,0-1.5-.44,6,6,0,0,0-1.3.7,4.24,4.24,0,0,0-.75.56,7.31,7.31,0,0,0-.93,1.05,7.8,7.8,0,0,0-.54.82c-.12.25-.29.47-.39.71a10,10,0,0,0-.32.95A2.67,2.67,0,0,0,80,71.7Zm13-9.82,0,0,0,0a0,0,0,0,0,.05,0Z"/><path class="cls-2" d="M3.4,60.51a3.47,3.47,0,0,0,.54-.7c.06-.14.19,0,.26-.1a7.75,7.75,0,0,0,.94-1,3.33,3.33,0,0,0,.26-.41c0-.12.1-.2.25-.18s.18-.16.23-.23A4,4,0,0,1,7,56.78a1,1,0,0,0,.38-.35c.1-.16.3-.06.42-.19s.34-.1.32-.35l0,0c.31,0,.34-.33.58-.43A7.26,7.26,0,0,0,9.48,55a1.62,1.62,0,0,1,.4-.18c.1,0,.21-.16.32-.21a18,18,0,0,1,1.74-.82,15.82,15.82,0,0,1,2.48-.71c.34-.07.7-.06,1-.12a5.21,5.21,0,0,1,2.1.16A7.41,7.41,0,0,1,19,53.7c.14.07.28.17.14.36s.09.13.06.23c-.21.06-.41.13-.63.16a.7.7,0,0,1-.52,0c-.24-.16-.51-.22-.76-.35a1.46,1.46,0,0,0-.67-.14,8.15,8.15,0,0,0-2.24.16c-.46.12-.9.27-1.33.43a6.73,6.73,0,0,0-1,.47c-.28.15-.59.25-.87.4a2.21,2.21,0,0,0-.57.38c-.08.08-.24.08-.35.16a4.28,4.28,0,0,0-.58.47c-.07.07-.15.22-.31.13-.2.34-.67.39-.82.77,0,0,0,.05,0,.06-.55.28-.86.85-1.36,1.19-.25.17-.39.48-.62.69s-.4.49-.61.72a1,1,0,0,0-.22.33.28.28,0,0,1-.29.2c0,.1.19,0,.15.17-.18-.09,0,.34-.27.19-.08,0-.23.16-.31.28s-.19.14,0,.25,0,.15,0,.18a1.68,1.68,0,0,0-.43.63s-.09.06-.14.09,0-.1,0-.13,0,0-.05,0,0,.09,0,.12.08.16,0,.16c-.27,0-.1.37-.33.39.08.17-.09.27-.12.41a1,1,0,0,1-.19.38.89.89,0,0,0-.25.69s0,.11-.08.15-.29.16-.16.37c0,.06-.1.14-.17.2s-.2.11-.08.24,0,.05,0,.07c-.3.29-.25.67-.27,1,0,.2-.18.17-.26.27.08.08.26.15,0,.27,0,0,0,0,0,.07a.17.17,0,0,1,0,.25c-.16.15-.06.32-.06.47s-.07.53-.07.81a5.12,5.12,0,0,0,.06,1,9.41,9.41,0,0,0,.26,1.16,5.38,5.38,0,0,0,.82,1.56,6.6,6.6,0,0,0,1.7,1.58,5.52,5.52,0,0,0,1,.56c.48.18,1,.38,1.46.53a7.34,7.34,0,0,0,1.6.32c.44,0,.87.11,1.31.17l.22,0a16.7,16.7,0,0,0,2.38-.06c.57-.08,1.14-.16,1.71-.29s1.25-.32,1.88-.49c.45-.12.91-.24,1.35-.39a3.82,3.82,0,0,0,.63-.27,2.43,2.43,0,0,1,.53-.18,4.22,4.22,0,0,0,.8-.34c.36-.18.73-.37,1.11-.52a7.39,7.39,0,0,1,.66-.33,4.45,4.45,0,0,0,1-.61A9,9,0,0,0,24.08,71a16.89,16.89,0,0,0,1.28-1.19,4.64,4.64,0,0,0,.72-.76c.3-.49.65-.94.9-1.47s.4-.76.59-1.15a8.19,8.19,0,0,0,.63-2c.07-.35,0-.71.11-1.07,0-.08,0-.13-.11-.12-.51,0-1,0-1.53.07a3.72,3.72,0,0,1-1,0c-.09,0-.14,0-.21,0l-2.05,0a1.5,1.5,0,0,1-.48,0c0-.06.08,0,.09-.09a2.12,2.12,0,0,1-.64,0c-.53-.13-1.07-.06-1.61-.18A3.22,3.22,0,0,0,19.35,63a.12.12,0,0,1-.12,0,1,1,0,0,0-.78-.2c-.14,0-.22-.08-.33-.12A4.53,4.53,0,0,1,17,62.3a5.45,5.45,0,0,0-.69-.33c-.29-.13-.43-.37-.63-.57a1.41,1.41,0,0,0-.56-.44s-.07-.09-.09-.14c-.16-.3-.18-.64-.33-.94s-.08-.34-.16-.49a.55.55,0,0,1,0-.32c.12-.15,0-.2-.06-.29s-.24-.12,0-.21c0,0-.05-.13-.06-.2s0-.13,0-.17.14-.08.05-.17,0-.17,0-.25c.08-.23.09-.53.25-.68.31-.32.48-.78,1-.95.11,0,.34-.11.39-.31,0,0,.05,0,.08,0,.57-.12,1.05-.45,1.61-.59.17,0,.34-.06.5-.11.41-.11.82-.17,1.23-.26a6,6,0,0,1,1.52-.13,3.6,3.6,0,0,1,.83,0c.62.16,1.26.19,1.87.35a7.35,7.35,0,0,1,1.09.38c.28.13.54.32.82.47s.49.32.75.45a6.78,6.78,0,0,1,.61.45c.32.21.49.57.83.76.1.05.16.24.23.37a1,1,0,0,0,.49.54.44.44,0,0,1,.2.25,3.47,3.47,0,0,0,.54.9,2.87,2.87,0,0,1,.33.71c.07.16-.19,0-.13.15s.26,0,.19.06.12.23.14.37a2.81,2.81,0,0,0,.06.49c0,.12.11.24,0,.39S30,62,30,62a1.82,1.82,0,0,0,.5,0c.66-.11,1.32-.18,2-.34a7.74,7.74,0,0,0,1.19-.17s.07,0,.1.05a.9.9,0,0,0,.72-.06.43.43,0,0,1,.2,0,4.35,4.35,0,0,1,1,0,8.05,8.05,0,0,1,1.71.34,8.86,8.86,0,0,0,.86.29,1,1,0,0,1,.27.16,8,8,0,0,1,1,.66,8.47,8.47,0,0,1,.79.84c.17.21.36.42.54.62s.23.36.36.5.16.29.27.42a2.08,2.08,0,0,1,.38.75c.06.2.17.39.22.6a2.79,2.79,0,0,1,0,1.36,3.07,3.07,0,0,1-.38,1.14s0,.09,0,.11a1.75,1.75,0,0,0-.49.56c-.09.19-.4.15-.54.34s-.49.34-.69.56a.63.63,0,0,1-.51.15c-.15,0-.34-.06-.38.2,0,.06-.16.13-.28.08a.22.22,0,0,0-.32.09.19.19,0,0,1-.2.08,1.09,1.09,0,0,0-.66.17.32.32,0,0,1-.16.05c-.67,0-1.32.19-2,.22a3.14,3.14,0,0,1-1,0,2.42,2.42,0,0,0-.56,0,6.91,6.91,0,0,1-1.49-.24,5.49,5.49,0,0,1-1-.31c-.26-.12-.53-.24-.79-.38a8.55,8.55,0,0,1-.41,1.28,10.13,10.13,0,0,0-.46,1c-.07.32-.21.6-.3.9a3.1,3.1,0,0,1-.2.43c-.08.17-.07.36-.16.54s-.16.64-.29.94a18.12,18.12,0,0,0-.52,1.75,16.56,16.56,0,0,0-.38,1.76.34.34,0,0,1-.42.31s-.09,0-.1,0c-.15.21-.4.08-.57.17s-.59,0-.88.07-.41-.2-.42-.58a2.61,2.61,0,0,1,0-.78,2.62,2.62,0,0,0,.11-.94c0-.13.12-.21.13-.34s.31-.31.12-.54c.17-.16.13-.4.21-.59s.2-.6.3-.9a11.93,11.93,0,0,1,.49-1.26,5.43,5.43,0,0,0,.23-.75c.12-.39.31-.76.43-1.16a7.41,7.41,0,0,0,.3-.88c0-.14.15-.18.2-.28a11,11,0,0,0,.65-1.26,13.82,13.82,0,0,1,.63-1.41c.12-.33.23-.66.36-1s.26-.46.34-.71a12.92,12.92,0,0,0,.53-1.55,1.15,1.15,0,0,1,.27-.48,11.15,11.15,0,0,0,.74-1.22c.08-.13.08-.31.24-.37a1.73,1.73,0,0,0-1,0c-.31.07-.66,0-.94.23a.37.37,0,0,1,.13.36.51.51,0,0,0,0,.39c0,.07.12.28-.1.34-.05,0,0,.06,0,.1a5.18,5.18,0,0,1-.09,1.07,8.68,8.68,0,0,1-.32.89,1.53,1.53,0,0,1-.21.48,1.22,1.22,0,0,0-.19.5,2,2,0,0,1-.31.6s-.07.07-.07.1c.06.37-.24.58-.37.86a2.49,2.49,0,0,1-.31.69c-.21.23-.4.47-.6.71-.05.06-.16.1-.1.22s0,.08-.07.09a1.61,1.61,0,0,0-.86.61c-.06.08-.2.06-.26.16s-.06,0-.06.08.19.05.09.15-.16.23-.29.29a.74.74,0,0,0-.2.15,3.83,3.83,0,0,1-.86.57,8.21,8.21,0,0,1-1,.64c-.48.18-.92.44-1.39.64a9,9,0,0,1-1.34.54c-.36.09-.68.27-1,.37s-.64.23-1,.33a5.8,5.8,0,0,1-1.14.31c-.4,0-.79.24-1.19.32s-1,.26-1.49.33a3.69,3.69,0,0,0-.95.18,2.88,2.88,0,0,1-.89.1c-.45,0-.88.14-1.33.18s-1.08.06-1.61.07a14.75,14.75,0,0,1-2.43-.19,4.39,4.39,0,0,1-1-.14,4.36,4.36,0,0,1-.71-.22l-.06,0a5.22,5.22,0,0,1-1.91-.56,4,4,0,0,1-1.29-.76c-.08-.08-.19-.13-.24-.26s-.19,0-.29-.1a6.58,6.58,0,0,1-1.43-1.46,8.58,8.58,0,0,1-.86-1.61,4.14,4.14,0,0,1-.32-1.62,5,5,0,0,0-.09-.8.88.88,0,0,1,0-.34,3.09,3.09,0,0,0,.11-1C.07,67,.42,66.57.43,66a.88.88,0,0,1,.4-.61L.7,65.34a1.25,1.25,0,0,0,.3-.69,2.49,2.49,0,0,1,.27-.88.07.07,0,0,1,.06,0c.13,0,.29-.11.28-.26,0-.44.3-.68.44-1s.42-.39.59-.62.38-.36.31-.66c0,0,0-.06.05-.07a.86.86,0,0,0,.52-.51c0-.08,0,0-.07-.05Zm13-1.56c.1.16,0,.39.21.49,0,0,0,0,0,.07s-.06.16.07.23.14.08.15.16a1.62,1.62,0,0,0,.63.92,4.26,4.26,0,0,0,1.39.77,4.48,4.48,0,0,0,1.07.35,6.68,6.68,0,0,0,.92.16,8.19,8.19,0,0,1,1.19.13c.61.09,1.22.14,1.84.18s1.46,0,2.19,0,1.3-.08,2-.11c.18,0,.31-.07.23-.33s-.06-.31-.1-.46a7.41,7.41,0,0,0-.62-1.76,7.54,7.54,0,0,0-1.92-2.39,6.68,6.68,0,0,0-1.69-1,8.16,8.16,0,0,0-2.49-.6,7.81,7.81,0,0,0-2.92.29,4.56,4.56,0,0,0-1.36.67c-.06,0-.16.16-.14.16.22.07,0,.12,0,.17s-.23.06-.33.13.15.14,0,.31a1.72,1.72,0,0,0-.21.69c0,.13,0,.37-.25.36,0,0,0,0,0,.06s-.07.32.07.46Zm17.06,5.33c.25.06.13.16.09.24l-.39.71c-.06.11-.14.29-.2.29-.22,0-.21.14-.2.26a.74.74,0,0,1-.07.29c-.08.29-.4.39-.44.74a10.19,10.19,0,0,1-.5,1.29,1.54,1.54,0,0,1-.23.52,4.31,4.31,0,0,0-.49,1.17c0,.12,0,.23.15.28.53.2,1.09.2,1.63.38a4.84,4.84,0,0,0,2.17.19,7.16,7.16,0,0,0,1.59-.32A5.79,5.79,0,0,0,39,68.85a2.7,2.7,0,0,0,.51-.78A1.79,1.79,0,0,0,39.69,67a6.39,6.39,0,0,0-.62-1.64A7.55,7.55,0,0,0,38,63.9a4.07,4.07,0,0,0-1.48-1.09,1.5,1.5,0,0,0-.85-.17,2.81,2.81,0,0,0-1.39.62,2.13,2.13,0,0,0-.48.72C33.74,64.12,33.75,64.27,33.49,64.27ZM4.9,61.41h0l0,0,.06,0Z"/><path class="cls-2" d="M58.68,58.6a1.83,1.83,0,0,1,1,.21,2.35,2.35,0,0,1,.68.8,1,1,0,0,1,0,.78c0,.17-.21.24-.32.32a1,1,0,0,1-.66.24,9.09,9.09,0,0,0-1.17.11,1.19,1.19,0,0,1-.92-.35.8.8,0,0,1-.15-.65s.06-.09,0-.11a.35.35,0,0,1-.13-.53,1.89,1.89,0,0,1,.38-.48c.28-.26.62-.2.93-.27C58.44,58.64,58.59,58.56,58.68,58.6Z"/><path class="cls-2" d="M3.44,60.54s0,.06-.09,0l0-.07Z"/><path class="cls-2" d="M92.15,66.77a.2.2,0,0,1,0,0l.08,0s0,0,0,.06S92.19,66.82,92.15,66.77Z"/><path class="cls-2" d="M158,16c-.55,1.12-1.44.1-1.73-.34-3.3-5.08-3.19-12.74-.86-12.11,3.79,1,3.31,11,2.58,12.46m-3.22-1.9a17.12,17.12,0,0,0,1.05,2,3.42,3.42,0,0,0,.48.59c.33,1.19-.82,1-1.29,1-5.68.11-11.09-5.79-8.06-8.19,2.11-1.67,5.75,1.86,7.81,4.6m2.08,3.23a1.41,1.41,0,0,0,0-.31,1,1,0,0,0,.26.09l-.23.22m8.48-8.15c-3.2.4-5.44,5-5.75,5.66a.93.93,0,0,0-.92.65,1.1,1.1,0,0,0,0,.72,2,2,0,0,0-.51.19c1-2.13,2.06-15.18-2.87-16.34-2.58-.61-3.33,6.51-1,12.71-2.53-3.15-6.31-6.54-8.6-4.69-3.61,2.93,2.85,10.16,9.63,10a3.61,3.61,0,0,0,1.11-.09c-.11.24-.12.26-.52.49a7.09,7.09,0,0,1-2.33.77c-.69,0,1.39.81,3.55-.56,1.5-.95,2-1.58,2.11-2A.94.94,0,0,0,160,16a1.07,1.07,0,0,0,0-.82c1.36-1,3.92-2.55,6-1.59,2.16.81,1.57,2.55,1.39,2.8a1.44,1.44,0,0,1-1.68.53.82.82,0,0,1-.41-1.33.47.47,0,0,0,.19.2.49.49,0,1,0-.2-.66.47.47,0,0,0,0,.26c-.54.2-.7,1.28.3,1.72a1.72,1.72,0,0,0,2-.65c.16-.25.83-2.2-1.54-3.08s-4.83.57-6.2,1.59l-.11-.09c.35-.75,2.57-5.16,5.75-5.53,2.6-.3,2.66,1.58,2.64,1.89A1.44,1.44,0,0,1,167,12.6c-.79.11-1.15-.51-1-.92a.48.48,0,0,0,.27.07.49.49,0,1,0-.51-.46.48.48,0,0,0,.09.24c-.36.45.06,1.46,1.15,1.31a1.72,1.72,0,0,0,1.4-1.61c0-.3.05-2.47-3.08-2.07"/><path class="cls-1" d="M198.63,68.43h-.94v5.94h.94Zm-1.53,5.86L195.42,72a3.46,3.46,0,0,0,.69-.67,2.82,2.82,0,0,0,.4-.74,3.61,3.61,0,0,0,.19-.87q0-.47,0-1.07v-.2h-1v.23c0,.3,0,.59,0,.85a5.43,5.43,0,0,1-.07.74,2.44,2.44,0,0,1-.2.64,1.89,1.89,0,0,1-.4.54l-2.28-3h-1.13v.07l1.45,1.94a3,3,0,0,0-.69.77,3.79,3.79,0,0,0-.4.89,4.82,4.82,0,0,0-.19,1q0,.51,0,1v.24h1v-.22q0-.47,0-.94a7,7,0,0,1,.1-.89,3.17,3.17,0,0,1,.23-.77,1.41,1.41,0,0,1,.43-.56L196,74.37h1.11v-.08Zm-6-5.86h-.94v3.41h.94Zm-2,1.38a2.33,2.33,0,0,0-.53-.94,1.3,1.3,0,0,0-.55-.33,2.42,2.42,0,0,0-.71-.1h-2.19v.94h2.16a1.7,1.7,0,0,1,.33,0,.49.49,0,0,1,.25.13,1.47,1.47,0,0,1,.32.59,4.25,4.25,0,0,1,.14,1.27,6.74,6.74,0,0,1,0,.8,3.48,3.48,0,0,1-.1.53,1.13,1.13,0,0,1-.15.33,1,1,0,0,1-.18.2.86.86,0,0,1-.57.16h-2.16v.94h2.14a2.38,2.38,0,0,0,.69-.09,1.31,1.31,0,0,0,.54-.32,2.27,2.27,0,0,0,.58-.94,4.91,4.91,0,0,0,.22-1.63,5.34,5.34,0,0,0-.19-1.59m-4.62-1.38h-.94v5.94h.94Zm-2,2.15a4.5,4.5,0,0,0-.11-1.14,1.48,1.48,0,0,0-.33-.62,1.08,1.08,0,0,0-.39-.29,1.49,1.49,0,0,0-.58-.1h-3.28v4.48a.55.55,0,0,1-.18.43.7.7,0,0,1-.49.16,1.31,1.31,0,0,1-.31,0l-.21-.06v.93a1.32,1.32,0,0,0,.29.07h.28a1.58,1.58,0,0,0,1.14-.4,1.53,1.53,0,0,0,.42-1.17V69.37h2.39a.34.34,0,0,1,.18.06.7.7,0,0,1,.16.31,2.89,2.89,0,0,1,.07.75v3.87h.94V70.58Zm-8.7,0a4.46,4.46,0,0,0-.11-1.14,1.51,1.51,0,0,0-.32-.62,1.08,1.08,0,0,0-.39-.29,1.51,1.51,0,0,0-.59-.1h-3.46v5.94h.94v-5h2.58a.37.37,0,0,1,.21.06.62.62,0,0,1,.15.31,3.6,3.6,0,0,1,.06.75v3.87h.94V70.58Zm-5.93-2.15h-.94v3.41h.94Zm-2,0H165v3.41h.94Zm-6,5.06V69.35h2.67a.36.36,0,0,1,.21.06.66.66,0,0,1,.15.32,3.59,3.59,0,0,1,.06.77v3Zm4-2.91a4.46,4.46,0,0,0-.11-1.14,1.47,1.47,0,0,0-.33-.62,1.08,1.08,0,0,0-.39-.29,1.5,1.5,0,0,0-.58-.1H159v5.94h5V70.58Z"/><path class="cls-1" d="M194.89,61.78h-.94v3.44h.94Zm3.74-.35a4.5,4.5,0,0,0-.11-1.14,1.48,1.48,0,0,0-.33-.62,1.07,1.07,0,0,0-.39-.29,1.49,1.49,0,0,0-.58-.1h-3.27v.94h3.33a.37.37,0,0,1,.21.06.64.64,0,0,1,.15.31,3.36,3.36,0,0,1,.06.75v3.87h.94V61.43Zm-5.7-.09a2.93,2.93,0,0,0-.13-.94,1.76,1.76,0,0,0-.39-.65,1.38,1.38,0,0,0-.63-.4,2.72,2.72,0,0,0-.8-.11h-.11a1.74,1.74,0,0,0-1.29.51,1.88,1.88,0,0,0-.31.45,3.72,3.72,0,0,0-.24.56l-.11.3-.77-1.77h-1l1.17,2.82-1,3.13h1l1.21-3.88a2.13,2.13,0,0,1,.46-.89,1,1,0,0,1,.37-.23,1.43,1.43,0,0,1,.47-.07h.08a1,1,0,0,1,.76.29,1.34,1.34,0,0,1,.29,1v2.88h-1.9v.93h2.84V61.34Zm-6.24.09a4.46,4.46,0,0,0-.11-1.14,1.47,1.47,0,0,0-.33-.62,1.07,1.07,0,0,0-.39-.29,1.5,1.5,0,0,0-.58-.1h-2.58v.94h2.61a.18.18,0,0,1,.1,0l.11.07a.69.69,0,0,1,.16.3,2.76,2.76,0,0,1,.07.74v3.85h.94V61.43Zm-4.45-.78a2.33,2.33,0,0,0-.53-.94,1.3,1.3,0,0,0-.55-.33,2.42,2.42,0,0,0-.71-.1h-2.19v.94h2.16a1.68,1.68,0,0,1,.33,0,.48.48,0,0,1,.25.13,1.46,1.46,0,0,1,.32.59,4.25,4.25,0,0,1,.14,1.27,6.74,6.74,0,0,1,0,.8,3.48,3.48,0,0,1-.1.53,1.13,1.13,0,0,1-.15.33,1.1,1.1,0,0,1-.18.2.86.86,0,0,1-.57.16h-2.16v.94h2.14a2.38,2.38,0,0,0,.69-.09,1.31,1.31,0,0,0,.54-.32,2.28,2.28,0,0,0,.58-.94,4.91,4.91,0,0,0,.22-1.63,5.34,5.34,0,0,0-.19-1.59m-4.45-1.38h-3v.94h1.73a.73.73,0,0,0-.34.18,1,1,0,0,0-.21.29,1.47,1.47,0,0,0-.1.34,1.86,1.86,0,0,0,0,.32v3.88h.94V61.1a1.69,1.69,0,0,1,0-.33.79.79,0,0,1,.11-.28.55.55,0,0,1,.22-.19.81.81,0,0,1,.37-.07h.28v-.94Zm-5.84,0H168.6V57.15h-.94v2.91a.15.15,0,0,0,.17.17h3.11l-.52,2.9a1.38,1.38,0,0,1-.47.9,1.42,1.42,0,0,1-.87.26h-.25v.94h.32a2.75,2.75,0,0,0,.75-.1,1.81,1.81,0,0,0,.65-.33,2.05,2.05,0,0,0,.51-.63,3.49,3.49,0,0,0,.34-1l.67-3.67c0-.13,0-.2-.12-.2m-4.74,2.15a4.5,4.5,0,0,0-.11-1.14,1.48,1.48,0,0,0-.33-.62,1.07,1.07,0,0,0-.39-.29,1.49,1.49,0,0,0-.58-.1h-2.58v.94h2.61a.18.18,0,0,1,.1,0l.11.07a.69.69,0,0,1,.16.3,2.76,2.76,0,0,1,.07.74v3.85h.94V61.43Zm-4.39-.15a3.91,3.91,0,0,0-.14-.71,2.43,2.43,0,0,0-.22-.52,1.92,1.92,0,0,0-.3-.39,1.17,1.17,0,0,0-.54-.3,2.82,2.82,0,0,0-.71-.08H158v2.27a3.8,3.8,0,0,0,0,.49.77.77,0,0,0,.12.34.56.56,0,0,0,.27.2,1.27,1.27,0,0,0,.45.07H160v-.88h-.81a.26.26,0,0,1-.21-.09.7.7,0,0,1-.06-.36V60.22h2a1.51,1.51,0,0,1,.33,0,.52.52,0,0,1,.24.13,1,1,0,0,1,.15.21,1.35,1.35,0,0,1,.13.36,4,4,0,0,1,.08.54c0,.21,0,.46,0,.76s0,.57,0,.78a5,5,0,0,1-.06.53,1.17,1.17,0,0,1-.11.34.77.77,0,0,1-.16.21.89.89,0,0,1-.58.16h-3v.94h3a1.94,1.94,0,0,0,.63-.09,1.29,1.29,0,0,0,.48-.32,2.3,2.3,0,0,0,.58-1,5.34,5.34,0,0,0,.19-1.6,8.51,8.51,0,0,0,0-1m-5.81-2h-.94v5.94H157Zm-1.53,5.86-1.68-2.32a3.46,3.46,0,0,0,.69-.67,2.82,2.82,0,0,0,.4-.74,3.58,3.58,0,0,0,.19-.87q0-.47,0-1.07v-.2h-1v.23c0,.3,0,.59,0,.85a5.43,5.43,0,0,1-.07.74,2.44,2.44,0,0,1-.2.64,1.89,1.89,0,0,1-.4.54l-2.28-3H150v.07l1.45,1.94a3,3,0,0,0-.69.77,3.82,3.82,0,0,0-.4.89,4.87,4.87,0,0,0-.19,1q0,.51,0,1v.24h1V65q0-.47,0-.94a7,7,0,0,1,.1-.89,3.14,3.14,0,0,1,.23-.77,1.41,1.41,0,0,1,.43-.56l2.46,3.38h1.11v-.08Zm-9.81-3.36h-.94v3.44h.94Zm3.74-.35a4.5,4.5,0,0,0-.11-1.14,1.49,1.49,0,0,0-.33-.62,1.08,1.08,0,0,0-.39-.29,1.49,1.49,0,0,0-.58-.1h-3.27v.94h3.33a.37.37,0,0,1,.21.06.63.63,0,0,1,.15.31,3.36,3.36,0,0,1,.06.75v3.87h.94Zm-7.74,3.71L140,62.83a3.46,3.46,0,0,0,.69-.67,2.82,2.82,0,0,0,.4-.74,3.58,3.58,0,0,0,.19-.87q0-.47,0-1.07v-.2h-1v.23c0,.3,0,.59,0,.85a5.3,5.3,0,0,1-.07.74,2.46,2.46,0,0,1-.2.64,1.92,1.92,0,0,1-.4.54l-2.28-3h-1.13v.07l1.45,1.94a3,3,0,0,0-.69.77,3.79,3.79,0,0,0-.4.89,4.87,4.87,0,0,0-.19,1q0,.51,0,1v.24h1V65q0-.47,0-.94a7.18,7.18,0,0,1,.1-.89,3.21,3.21,0,0,1,.23-.77,1.42,1.42,0,0,1,.43-.56l2.46,3.38h1.11v-.08Zm-7.43-1.77a1.22,1.22,0,0,1-.34.75,1.29,1.29,0,0,1-.94.28h-.31a1.2,1.2,0,0,1-.87-.24,1,1,0,0,1-.26-.64l-.32-3.33h3.41Zm1.35-4.09h-5.37a.08.08,0,0,0-.08,0,.21.21,0,0,0,0,.08l.44,4.08a3,3,0,0,0,.22.91,1.4,1.4,0,0,0,.43.56,1.58,1.58,0,0,0,.65.28,4.49,4.49,0,0,0,.87.07H133a2.51,2.51,0,0,0,.83-.13,2,2,0,0,0,.68-.39,2.17,2.17,0,0,0,.49-.66,2.85,2.85,0,0,0,.26-.93l.46-3.79c0-.09,0-.13-.1-.13m-6.16,2.15a4.46,4.46,0,0,0-.11-1.14,1.47,1.47,0,0,0-.33-.62,1.08,1.08,0,0,0-.39-.29,1.5,1.5,0,0,0-.58-.1h-3.28v4.48a.55.55,0,0,1-.18.43.7.7,0,0,1-.49.16,1.3,1.3,0,0,1-.31,0l-.21-.06v.93a1.32,1.32,0,0,0,.29.07h.28a1.58,1.58,0,0,0,1.14-.4,1.53,1.53,0,0,0,.42-1.17V60.22h2.39a.34.34,0,0,1,.19.06.69.69,0,0,1,.16.31,2.85,2.85,0,0,1,.07.75v3.87h.94V61.43Zm-6-1.92a.26.26,0,0,0,0-.16.21.21,0,0,0-.19-.07h-2.74v.94h1.9L122,63.32a1.05,1.05,0,0,1-.42.84,1.7,1.7,0,0,1-.91.22h-.21a1.25,1.25,0,0,1-.77-.2,1,1,0,0,1-.3-.72L119,59.28h-1l.44,4.2a2.88,2.88,0,0,0,.22.92,1.44,1.44,0,0,0,.44.56,1.57,1.57,0,0,0,.64.28,4.11,4.11,0,0,0,.81.07h.11a2.52,2.52,0,0,0,1.61-.48,2.21,2.21,0,0,0,.74-1.55l.44-3.52a1.45,1.45,0,0,0,0-.24m-6.29-.24h-.94v3.41h.94Zm-2,2.15a4.46,4.46,0,0,0-.11-1.14,1.47,1.47,0,0,0-.33-.62,1.08,1.08,0,0,0-.39-.29,1.5,1.5,0,0,0-.58-.1h-3.28v4.48a.55.55,0,0,1-.18.43.7.7,0,0,1-.49.16,1.3,1.3,0,0,1-.31,0l-.21-.06v.93a1.32,1.32,0,0,0,.29.07h.28a1.58,1.58,0,0,0,1.14-.4,1.53,1.53,0,0,0,.42-1.17V60.22h2.39a.34.34,0,0,1,.19.06.69.69,0,0,1,.16.31,2.85,2.85,0,0,1,.07.75v3.87h.94V61.43Z"/></g></g></svg>