<?xml version="1.0" encoding="utf-8"?>
<!-- Generator: Adobe Illustrator 21.1.0, SVG Export Plug-In . SVG Version: 6.00 Build 0)  -->
<svg version="1.1" id="Layer_1" xmlns="http://www.w3.org/2000/svg" xmlns:xlink="http://www.w3.org/1999/xlink" x="0px" y="0px"
	 viewBox="0 0 225.1 62" style="enable-background:new 0 0 225.1 62;" xml:space="preserve">
<style type="text/css">
	.st0{fill:#922A71;}
	.st1{fill:#0095A9;}
	.st2{fill:#BFD730;}
	.st3{fill:#EC008C;}
	.st4{fill:#001F7D;}
	.st5{fill:#00ADEE;}
</style>
<path class="st0" d="M63.2,28.8l-0.3-1l-0.5-0.6l-0.8-0.7l-0.9-0.5l-3.4-1.7l-1.2-0.3l-1.5-0.2l-1.1,0.1h-1.4L51,23.9l-0.9,0.5
	l-0.8,0.7l-0.7,1l-0.4,0.1l-0.5,0.5L47.4,27l-0.3,0.7l-0.3,0.6l-0.2,1l-0.2,1.1l-0.1,1.1l0.1,1l0.4,1.2l0.6,1.5l0.7,1.8l0.3,0.3
	l0.5,0.7l0.6,0.5l0.8,0.5l1.1,1l1.2,0.8l1.1,0.5l1.3,0.3l1.3,0.1l0.9-0.2l0.9-0.3l1-0.5l0.9-0.5l0.5-0.3l0.3-0.3l-0.1-0.2h-0.5
	l-0.8,0.2l-0.8,0.3l-0.7,0.1L56.9,40h-1l-0.8-0.3l-0.7-0.3l-1.2-0.6l-0.6-0.6l-1.2-1.4L50.7,36l-0.3-0.7l-0.1-1.2l0.3-0.7l0.6-0.2
	l0.7-0.1l1.1,0.1l1.4-0.1l0.8-0.2l1-0.3l0.9-0.4l1.2-0.3l1.4-0.1l1.2-0.4l1-0.4l0.8-0.5l0.5-0.8V28.8L63.2,28.8z M60.2,38.1h-0.4
	l-0.2,0.4l0.3,0.3l0.3-0.3L60.2,38.1L60.2,38.1z M57.6,28.6l-0.8,0.2l-1,0.2l-1.1,0.1h-1l-1-0.2h-1.1l-0.7-0.1l-0.4,0.1l-0.2-0.4
	L51,28l0.4-0.2l0.7-0.6l0.8-0.4l0.8-0.2h0.9l0.9,0.1l0.8,0.4l0.7,0.4l0.5,0.5L57.6,28.6L57.6,28.6z"/>
<polygon class="st1" points="46.2,5.8 45.7,5.2 44.5,3.9 43.8,3.6 43,3.3 41.9,3.1 41.1,3.3 40.3,3.4 39.4,3.6 38.6,4 38.1,4.4 
	37.5,5.1 37.4,6 37.2,6.6 36.9,7.4 36.5,8.2 36.1,9 35.6,10.6 35.5,11.7 35.2,13.3 35.3,14.2 35.3,15.1 35.6,16.7 35.5,17.3 
	35.6,18.1 35.9,19.1 36,20.3 36.2,21.3 36.2,21.7 35.9,22.1 35.2,22.5 34.5,22.4 33.9,22.4 32.3,22.6 31.7,23.1 31.2,23.7 
	31.1,24.4 31.2,24.8 31.5,25.3 32.5,26.3 33.2,26.6 34.2,26.6 34.7,26.4 35.5,26.3 36.4,26.1 36.9,26.4 36.9,36.5 36.9,37.6 
	36.8,38.5 36.8,39.5 36.4,41 36,42.1 35.9,43.2 35.6,44.1 35.6,45.1 35.6,46 35.5,47.3 35.3,49.2 35.3,50.3 35.6,50.8 36.2,50.6 
	36.6,50 36.4,49.2 36.5,48.1 36.5,47.2 36.6,46.3 36.6,45.4 36.8,44.3 37.2,43 37.4,41.9 37.9,40.7 38.1,39.2 38.2,38.1 38.3,37 
	38.3,36.1 38.5,35.2 38.6,34.2 38.6,31.9 38.6,31 38.6,30.1 38.6,28.6 38.6,26.4 38.8,26 40,25.3 40.8,25.2 42.3,24.7 43.2,24.7 
	45.7,24 46,23.7 45.4,23.4 45,23.1 44,22.6 43,22.6 42.1,22.5 41.4,22.6 40.9,22.4 39.7,22.3 39.1,22 38.6,21.5 38.5,21.1 
	38.4,20.3 38.4,18.1 38.3,17 38.6,16 38.6,14.6 38.8,13.5 39.1,12.3 39.4,11.3 39.9,10.4 40,9.6 40.5,8.9 41.4,8.3 42.1,7.9 
	42.8,7.6 43.7,7.5 44.9,7.5 46,6.9 46.3,6.4 46.2,5.8 "/>
<path class="st2" d="M25.8,10.3l-0.4,0.2L25.3,11l0.5,0.1l0.5-0.3L25.8,10.3L25.8,10.3z M28.8,11.4l-0.5-0.1l-0.7,0.1l-1,0.3
	l-1.1,0.1l-0.7,0.1l-0.8,0.5l-0.4,0.5l-0.3,0.6l-0.1,0.5l0.1,0.6l0.3,0.8l0.7,0.8l0.5,0.6l0.6,0.4l0.5,0.3l0.8,0.1l0.7-0.1l0.6-0.5
	l0.5-0.6l0.3-0.7v-0.8l-0.3-0.4L28.1,14v-0.5l0.4-0.6l0.5-0.5l0.1-0.5L28.8,11.4L28.8,11.4z M29.5,23.9l-0.3-0.3l-0.4-0.3l-0.5-0.5
	h-0.7l-0.5-0.4l-0.5-0.5l-0.7-0.2l-0.7,0.2l-0.5,0.2l-0.3,0.5l-0.2,0.7l0.2,0.7l0.1,0.7l0.2,1.1l-0.1,1V29l0.1,0.6l0.3,1.1l0.3,0.4
	l0.5,0.3l0.3,0.6v0.7l0.1,0.8l-0.1,0.7l0.1,1.1l0.1,0.5l0.1,1.8l0.2,0.7v0.8l0.1,0.6v0.8l0.4,0.9v0.5l0.3,0.6l0.1,0.5l0.2,0.7
	l0.3,0.6l0.2,0.1l0.3-0.1l0.3-0.5l-0.2-0.5v-0.5l-0.2-0.6l-0.1-0.8L28,40.7L28,40.1v-1.4L27.7,38l0.3-0.9l-0.3-0.7l-0.2-0.8v-1
	l0.1-0.9l-0.1-1.2v-1l0.1-1l0.1-1l0.3-0.7l-0.2-0.8l0.3-1l0.1-1l0.2-0.7l0.4-0.3l0.6-0.3l0.2-0.3V23.9L29.5,23.9z"/>
<path class="st3" d="M22.3,36.5l-0.2-0.8L22,35.1l-0.6-0.6l-0.3-0.6l-0.6-0.4l-0.8-0.2L19,33.5L18.1,34L18,34.5l-0.7,0.4l-1,0.5
	L15,35.6L14,35.8l-1.1-0.2L12,35.6l-0.6,0.2l-1.1,0.4l-0.8,0.1l-0.6,0.2H8l-0.8-0.3H6.5l-1.1,0.1l-1,0.1l-0.6,0.3l-0.5-0.1L3,36.2
	l0.1-0.8l0.1-0.6v-0.4l0.2-0.6l0.2-0.9l0.1-1.2l-0.1-0.7l0.3-1L4,29l0.1-0.8l0.2-0.8v-0.9L4.4,26l0.2-0.7v-1l0.3-1L5,22.3l0.3-0.8
	v-1l0.2-2l0.2-0.9l0.1-0.8L6,16.4l0.2-0.6L6.5,15v-0.9l0.2-1.7L7,11.5v-1l0.3-0.8l0.2-0.8l0.2-0.8l0.3-0.8l0.2-1.1l0.4-0.7L9.2,5
	l0.1-0.6l0.2-0.8L9.4,3L9.2,2.1L8.7,1.4L7.9,0.8L7.3,0.5L6.6,0.1L5.9,0L5.1,0.2L4.4,0.3L3.8,0.5L3.2,1.1L2.7,1.7l0.1,0.5L2.7,3v0.9
	L2.5,4.6v0.7L2.1,5.8l0.1,0.6l0.4,0.5L2.4,7.4v0.8L2.5,9l0.1,0.9v0.9l0.1,0.8l0.3,0.6l-0.2,0.7l0.1,0.6l-0.1,0.8L2.5,15l0.1,0.5
	l-0.1,0.9l-0.1,0.9v1l-0.1,0.8L2.5,20l0.1,0.8l-0.1,0.8l-0.1,1.2l-0.1,1V25l-0.1,1v2.2l0.1,0.6l-0.1,1.1l-0.2,0.9l-0.1,1l-0.2,0.9
	l0.1,1l-0.1,1.1l-0.3,1.1v0.9l-0.2,0.7L1,38.1l0.1,0.7l-0.3,0.6L0.8,40v0.7l-0.1,0.7L1,41.9l0.7,0.2l1-0.1l0.9,0.3l0.8,0.2l1,0.1
	h1.2l1,0.2h1.6l0.9-0.6l1.1-0.7l1.1-0.3l0.8-0.5l1-0.3H15l1.4-0.2l1.2,0.1h1l0.9-0.3l0.8-0.2h0.9l0.5-0.4l0.2-0.5l0.4-0.7l0.1-0.8
	V36.5L22.3,36.5z M18,27.3L17.6,27l-0.4,0.5l0.3,0.5l0.3,0.1l0.2-0.3V27.3L18,27.3z M0.3,19.1L0,19.5L0.3,20l0.5-0.3l0.1-0.3
	L0.3,19.1L0.3,19.1z"/>
<path class="st4" d="M80.4,21.3c0-3-1.4-4.5-4.2-4.5h-7.5c-0.5,0-0.7-0.4-0.7-1.2V8.3h-6.9v9.5c0,2.7,1.4,4.1,4.1,4.1h6.6
	c1.2,0,1.8,0.6,1.8,1.7V30c0,5.4-2.3,8.1-7,8.1h-1v4.6h1.8c8.8,0,13.2-4.2,13.2-12.7V21.3L80.4,21.3z M110.6,24.8
	c0-2.8-0.7-4.9-2.1-6.2c-1.5-1.4-3.8-2.1-7.1-2.1c-2.4,0-4.3,0.6-5.6,1.7c-1.3,1.1-2.4,3.1-3.3,6c-0.7-1.6-1.7-4.1-2.7-7.3h-5.9
	c-0.5,0-0.7,0.2-0.7,0.7v0.1c0.3,2.2,1.8,6.1,4.4,11.9l-2.9,13.1h6.7l3.3-15.1c0.8-3.9,2.6-5.8,5.2-5.8c1.1,0,2,0.3,2.7,0.9
	c0.8,0.7,1.2,1.6,1.2,2.7v10.2c0,1-0.2,1.7-0.7,1.9c-0.2,0.1-0.8,0.2-1.7,0.2h-4.7v5.1h7.2c2.5,0,4.2-0.5,5.2-1.5
	c1-1,1.5-2.8,1.5-5.2V24.8L110.6,24.8z M124.6,20.8c0-2.7-1.4-4-4.3-4h-6.2v5.1h2c1,0,1.5,0.5,1.5,1.6v9.1h6.9V20.8L124.6,20.8z
	 M153,22.6c0-3.8-1.9-5.8-5.6-5.8h-6.5v5.1h3.9c0.8,0,1.3,0.5,1.3,1.4V33c0,2-0.5,3.4-1.5,4.4c-0.9,0.9-2.1,1.4-3.6,1.4
	c-1.5,0-2.7-0.5-3.6-1.4c-1-1-1.5-2.5-1.5-4.4V16.8h-6.9v15.5c0,3.8,1.1,6.7,3.4,8.6c2.1,1.7,4.9,2.6,8.5,2.6c3.6,0,6.5-0.9,8.5-2.6
	c2.3-1.9,3.5-4.8,3.5-8.6V22.6L153,22.6z M168.9,16.3c-7.9,0-11.9,3.2-11.9,9.5c0,4.5,2.6,6.7,7.7,6.7h3.1v-4.6h-0.7
	c-2,0-3-0.9-3-2.7c0-2.5,1.5-3.8,4.6-3.8c3.9,0,5.9,2.7,5.9,8.2c0,2.6-0.5,4.5-1.4,5.9c-0.9,1.3-2.2,2-3.8,2h-10.8v5.1h12.1
	c3.6,0,6.4-1.3,8.4-4c1.8-2.4,2.7-5.5,2.7-9.2C181.7,20.7,177.5,16.3,168.9,16.3L168.9,16.3L168.9,16.3z M195.2,20.8
	c0-2.7-1.4-4-4.3-4h-6.2v5.1h2c1,0,1.5,0.5,1.5,1.6v19.1h6.9V20.8L195.2,20.8z M217.9,32c4.2-2.6,6.3-6.2,6.3-10.8
	c0-1.7-0.2-3.1-0.6-4.3h-7.2c0.4,1.9,0.6,3.7,0.6,5.7c0,2.4-0.5,4.5-1.4,6.2c-3.4-4.8-6.6-8.7-9.4-11.9h-7.8l6.8,8.6
	c-2.1,1-3.7,2.9-4.8,5.4c-0.9,2-1.3,4-1.3,5.9c0,2.2,0.2,4.1,0.7,5.8h7.3c-0.6-2-0.9-4-0.9-6.1c0-1.2,0.1-2.7,0.4-4.4
	c0.3-1.7,0.6-2.9,1-3.6c3.8,4.9,6.9,9.6,9.3,14.1h8.1C222.2,38,219.8,34.5,217.9,32L217.9,32L217.9,32z"/>
<path class="st4" d="M145.1,49.7c0-0.7-0.3-1-1-1h-2.3v0.8h1.8c0.3,0,0.4,0.1,0.4,0.4v2.7h1V49.7L145.1,49.7z M142.9,50.4h-1v2.2h1
	V50.4L142.9,50.4z M147.2,49.3c0-0.4-0.2-0.6-0.6-0.6h-0.9v0.8h0.3c0.2,0,0.2,0.1,0.2,0.2v1.4h1V49.3L147.2,49.3z M150,48.7h-2.2
	v0.8h0.8c-0.2,0.2-0.4,0.6-0.4,1.1v2h1v-2.8c0-0.2,0-0.3,0.1-0.3c0,0,0.1-0.1,0.2-0.1h0.4V48.7L150,48.7z M153.2,49.7
	c0-0.7-0.3-1-1-1h-1.8v0.8h1.3c0.3,0,0.4,0.1,0.4,0.4v2.7h1V49.7L153.2,49.7z M157.2,49.7c0-0.7-0.3-1-1-1h-2.3v0.8h1.8
	c0.3,0,0.4,0.1,0.4,0.4v2.7h1V49.7L157.2,49.7z M155,50.4h-1v2.2h1V50.4L155,50.4z M159.3,49.3c0-0.4-0.2-0.6-0.6-0.6h-0.9v0.8h0.3
	c0.2,0,0.2,0.1,0.2,0.2v2.9h1V49.3L159.3,49.3z M165.5,49.9c0-0.8-0.4-1.2-1.1-1.2h-2.7v0.8h0.7c-0.2,0.2-0.3,0.5-0.3,0.9v1.2
	c0,0.1,0,0.1-0.1,0.2c-0.1,0.1-0.1,0.1-0.2,0.1h-0.3v0.8h0.6c0.7,0,1-0.4,1-1.1v-1.8c0-0.1,0-0.1,0-0.2c0,0,0-0.1,0.1-0.1h0.8
	c0.3,0,0.4,0.2,0.4,0.5v2.7h1V49.9L165.5,49.9z M167.6,49.3c0-0.4-0.2-0.6-0.6-0.6h-0.9v0.8h0.3c0.2,0,0.2,0.1,0.2,0.2v2.9h1V49.3
	L167.6,49.3z M171,51c0.6-0.4,0.9-0.9,0.9-1.6c0-0.3,0-0.5-0.1-0.7h-1.1c0.1,0.3,0.1,0.6,0.1,0.9c0,0.4-0.1,0.7-0.2,0.9
	c-0.5-0.7-1-1.3-1.4-1.8h-1.2l1,1.3c-0.3,0.2-0.5,0.4-0.7,0.8c-0.1,0.3-0.2,0.6-0.2,0.9c0,0.3,0,0.6,0.1,0.9h1.1
	c-0.1-0.3-0.1-0.6-0.1-0.9c0-0.2,0-0.4,0.1-0.7c0-0.3,0.1-0.4,0.1-0.5c0.6,0.7,1,1.5,1.4,2.1h1.2C171.7,51.9,171.3,51.4,171,51
	L171,51L171,51z M174,49.3c0-0.4-0.2-0.6-0.6-0.6h-0.9v0.8h0.3c0.2,0,0.2,0.1,0.2,0.2v1.4h1V49.3L174,49.3z M177.3,49.7
	c0-0.7-0.3-1-1-1h-1.8v0.8h1.3c0.3,0,0.4,0.1,0.4,0.4v2.7h1V49.7L177.3,49.7z M181,51.9h-0.8c0.4-0.3,0.5-0.8,0.5-1.6
	c0-0.6-0.1-1-0.3-1.3c-0.2-0.3-0.5-0.4-0.9-0.4h-1.7v0.7h1.1c0.3,0,0.4,0.1,0.5,0.3c0.1,0.2,0.1,0.5,0.1,1c0,0.5,0,0.7,0,0.8
	c0,0.3-0.2,0.5-0.4,0.5h-1.3v0.7h3.1V51.9L181,51.9z M184.2,49.4c0-0.5-0.2-0.7-0.6-0.7h-1.1c-0.1,0-0.1-0.1-0.1-0.2v-1.1h-1v1.4
	c0,0.4,0.2,0.6,0.6,0.6h1c0.2,0,0.3,0.1,0.3,0.3v1c0,0.8-0.4,1.2-1.1,1.2H182v0.7h0.3c1.3,0,2-0.6,2-1.9V49.4L184.2,49.4z
	 M190.3,49.6c0-0.3-0.1-0.5-0.2-0.7c-0.1-0.1-0.4-0.2-0.7-0.2h-2c-0.3,0-0.5,0-0.6,0.1c-0.1,0.1-0.2,0.3-0.2,0.6v2.6
	c0,0.2,0,0.4,0.1,0.5c0,0.1,0.1,0.1,0.3,0.1h2.9c0.1,0,0.2,0,0.3-0.1c0.1-0.1,0.1-0.2,0.1-0.5V49.6L190.3,49.6z M189.1,51.9h-1.3
	c-0.1,0-0.1,0-0.1-0.1v-2c0-0.1,0-0.2,0-0.2c0,0,0.1-0.1,0.2-0.1h1.1c0.2,0,0.3,0.1,0.3,0.3v2C189.2,51.8,189.2,51.9,189.1,51.9
	L189.1,51.9L189.1,51.9z M192.4,49.3c0-0.4-0.2-0.6-0.6-0.6h-0.9v0.8h0.3c0.2,0,0.2,0.1,0.2,0.2v1.4h1V49.3L192.4,49.3z M195,49.7
	c0-0.7-0.3-1-1-1h-0.9v0.8h0.5c0.2,0,0.3,0.1,0.3,0.4v1.9c0,0.1,0,0.1-0.1,0.1H193v0.8h1.6c0.2,0,0.4-0.2,0.4-0.6V49.7L195,49.7z
	 M199.3,49.6c0-0.6-0.3-0.9-0.8-0.9h-1v0.8h0.6c0.1,0,0.2,0.1,0.2,0.2v1.5c0,0.3-0.1,0.5-0.2,0.7c-0.1,0.1-0.3,0.2-0.5,0.2
	c-0.2,0-0.4-0.1-0.5-0.2c-0.1-0.2-0.2-0.4-0.2-0.7v-2.5h-1v2.3c0,0.6,0.2,1,0.5,1.3c0.3,0.3,0.7,0.4,1.3,0.4c0.5,0,1-0.1,1.3-0.4
	c0.3-0.3,0.5-0.7,0.5-1.3V49.6L199.3,49.6z M202.7,51c0.6-0.4,0.9-0.9,0.9-1.6c0-0.3,0-0.5-0.1-0.7h-1.1c0.1,0.3,0.1,0.6,0.1,0.9
	c0,0.4-0.1,0.7-0.2,0.9c-0.5-0.7-1-1.3-1.4-1.8h-1.2l1,1.3c-0.3,0.2-0.5,0.4-0.7,0.8c-0.1,0.3-0.2,0.6-0.2,0.9c0,0.3,0,0.6,0.1,0.9
	h1.1c-0.1-0.3-0.1-0.6-0.1-0.9c0-0.2,0-0.4,0.1-0.7c0-0.3,0.1-0.4,0.2-0.5c0.6,0.7,1,1.5,1.4,2.1h1.2C203.3,51.9,203,51.4,202.7,51
	L202.7,51L202.7,51z M205.7,49.3c0-0.4-0.2-0.6-0.6-0.6h-0.9v0.8h0.3c0.2,0,0.2,0.1,0.2,0.2v1.4h1V49.3L205.7,49.3z M209.4,48.7
	h-3.2v0.8h1.9c-0.2,0.2-0.3,0.5-0.3,0.8v2.3h1v-2.8c0-0.1,0-0.2,0-0.2c0,0,0.1-0.1,0.2-0.1h0.4V48.7L209.4,48.7z M215.6,49.9
	c0-0.8-0.4-1.2-1.1-1.2h-2.7v0.8h0.7c-0.2,0.2-0.3,0.5-0.3,0.9v1.2c0,0.1,0,0.1-0.1,0.2c-0.1,0.1-0.1,0.1-0.2,0.1h-0.3v0.8h0.6
	c0.7,0,1-0.4,1-1.1v-1.8c0-0.1,0-0.1,0-0.2c0,0,0-0.1,0.1-0.1h0.8c0.3,0,0.4,0.2,0.4,0.5v2.7h1V49.9L215.6,49.9z M220.9,48.7h-1v2.4
	c0,0.2-0.1,0.4-0.2,0.5c-0.2,0.1-0.3,0.2-0.6,0.2h-0.3c0.2-0.1,0.3-0.3,0.3-0.7v-2.5h-1v2.5c0,0.3,0.1,0.5,0.3,0.7h-0.3
	c-0.2,0-0.4-0.1-0.6-0.2c-0.1-0.1-0.2-0.3-0.2-0.5v-2.4h-1V51c0,0.5,0.1,0.9,0.4,1.2c0.3,0.3,0.7,0.5,1.2,0.5h1.5
	c0.5,0,0.9-0.2,1.2-0.5c0.2-0.3,0.4-0.7,0.4-1.2V48.7L220.9,48.7z M224.1,49.7c0-0.7-0.3-1-1-1h-1.8v0.8h1.3c0.3,0,0.4,0.1,0.4,0.4
	v2.7h1V49.7L224.1,49.7z"/>
<g>
	<path class="st5" d="M109.7,50.8c0.1,0,0.1-0.1,0.2-0.1c0.5-0.6,1.1-1.1,1.8-1.2c0.5-0.1,1.1-0.1,1.6,0.1c0.2,0.1,0.4,0.3,0.4,0.5
		c0.1,0.2,0.2,0.4,0.2,0.6c0.1,0.3,0.1,0.6,0.2,0.9c0.3-0.4,0.6-0.8,0.9-1.1c0.4-0.4,0.8-0.8,1.4-1c0.5-0.2,1-0.2,1.6-0.1
		c0.3,0.1,0.5,0.2,0.5,0.6c0.1,0.5,0.1,1-0.1,1.4c-0.2,0.5-0.4,1-0.5,1.6c-0.2,0.7-0.5,1.4-0.5,2.1c0,0.4,0.1,0.8,0.3,1.1
		c0,0.1,0.1,0.1,0.2,0c0.3-0.2,0.5-0.4,0.7-0.7c0.2-0.3,0.4-0.5,0.5-0.8c0.3-0.4,0.5-0.9,0.8-1.4c0.4-0.7,0.8-1.4,1.4-2
		c0.2-0.3,0.5-0.5,0.7-0.8c0.4-0.4,0.8-0.7,1.4-0.9c0.2-0.1,0.5-0.1,0.7-0.2c0.4-0.1,0.7-0.2,1.1-0.2c0.4,0,0.7,0,1.1,0.1
		c0.3,0.1,0.5,0.2,0.8,0.3c0.5,0.1,0.8,0.4,1,0.7c0.3,0.3,0.5,0.6,0.6,1c0,0,0,0.1,0,0.2c0,0.1,0,0.2,0.1,0.3
		c0.1,0.1,0.1,0.5,0.1,0.6c0,0.1-0.1,0.1-0.2,0.1c-0.2-0.1-0.4-0.1-0.6-0.1c-0.1,0-0.2,0-0.2,0.1c-0.2,0.4-0.4,0.7-0.6,1.1
		c-0.3,0.4-0.5,0.8-0.8,1.3c-0.2,0.3-0.3,0.7-0.3,1.1c0,0.4,0.4,0.6,0.7,0.4c0.3-0.2,0.6-0.3,0.9-0.5c0.3-0.3,0.7-0.5,1.1-0.8
		c0.2-0.1,0.3-0.3,0.5-0.4c0.1-0.1,0.2-0.2,0.1-0.3c-0.1-0.1-0.1-0.3-0.2-0.5c0-0.1,0.1-0.1,0.1-0.1c0-0.1,0-0.2,0-0.3
		c-0.1-0.2,0-0.5,0.1-0.7c0-0.1,0.2-0.2,0.1-0.3c0,0,0-0.1,0-0.1c0.2,0.1,0-0.1,0.1-0.1c0,0,0-0.1,0-0.1c0.2-0.1,0.2-0.2,0.1-0.4
		c0-0.1,0-0.1,0.1-0.1c0.1,0,0.1-0.1,0-0.1c-0.2-0.2-0.1-0.5,0.1-0.7c0.1-0.1,0.1-0.3,0.2-0.5c0.1-0.3,0.3-0.6,0.4-0.9
		c0.1-0.2,0.2-0.4,0.3-0.6c0.1-0.2,0.2-0.4,0.3-0.6c0-0.1,0.1-0.1,0.1-0.1c0.1,0.1,0.1,0,0.2-0.1c0-0.1-0.1-0.2,0.1-0.2
		c0,0,0-0.1,0-0.1c-0.1-0.1-0.1-0.1,0-0.2c0.1-0.1,0.2-0.3,0.3-0.4c0.1,0,0.1-0.1,0.1-0.2c0.1,0,0.1,0.2,0.2,0.1
		c0.1-0.1,0.2-0.2,0.2-0.3c0-0.1-0.2,0-0.1-0.2c0.1-0.1,0.1-0.1,0.2-0.2c0.2-0.2,0.3-0.5,0.5-0.7c0.2-0.2,0.3-0.3,0.4-0.6
		c0-0.1,0.1-0.2,0.2-0.3c0.4-0.3,0.6-0.6,1-0.9c0.3-0.3,0.7-0.4,1.1-0.5c0.4,0,0.8,0.1,1.1,0.3c0.3,0.1,0.5,0.9,0.4,1.1
		c0,0,0,0.1,0,0.1c0.1,0.4,0,0.8-0.2,1.1c0,0.1,0,0.2-0.1,0.3c-0.1,0.1-0.1,0.1-0.1-0.1c0,0.1,0,0.2,0,0.3c0,0.2-0.2,0.3-0.2,0.4
		c0,0.3-0.3,0.4-0.3,0.7c0,0,0,0.1,0,0.2c0.1-0.1,0.1-0.1,0.2-0.1c-0.2,0.1-0.1,0.3-0.3,0.4c-0.3,0.2-0.5,0.4-0.6,0.8
		c0,0.1-0.1,0.1-0.1,0.1c-0.1,0-0.1,0.1-0.1,0.2c0,0.1,0.1,0.2-0.1,0.2c0,0,0,0.1,0,0.1c0.2,0.1,0,0.2,0,0.2
		c-0.1,0.1-0.2,0.3-0.3,0.4c-0.1,0.1-0.1,0.3-0.4,0.3c0,0.1-0.1,0.1-0.1,0.2c0,0,0,0.1-0.1,0.2c-0.1,0.1-0.2,0.1-0.1,0.3
		c0,0,0,0.1-0.1,0.1c0,0-0.1,0-0.1,0c0,0.2-0.2,0.4-0.3,0.5c-0.1,0.1-0.2,0.2-0.2,0.4c0,0,0,0.1-0.1,0.1c-0.2-0.2-0.2,0.1-0.3,0.2
		c-0.1,0-0.1,0.2-0.2,0.2c-0.1,0,0,0.2,0.1,0.2c-0.1,0-0.3,0-0.2,0.2c0,0.1-0.2,0.2-0.3,0.3c-0.2,0.3-0.5,0.5-0.8,0.7
		c-0.2,0.1-0.3,0.4-0.5,0.4c0.3,0.4,0.6,0.6,1.1,0.9c0.3,0.2,0.6,0.3,0.9,0.4c0.3,0.1,0.7,0.2,1.1,0.2c0.4,0,0.8,0.1,1.2,0.1
		c0.3,0,0.6,0,1-0.1c0.2,0,0.4-0.1,0.6-0.1c0.4,0,0.7-0.1,1.1-0.2c0.4,0,0.9-0.1,1.3-0.2c0.4-0.1,0.8-0.1,1.2-0.2
		c0.2,0,0.4-0.2,0.7-0.1c0,0,0.1,0,0.1,0c0.3-0.2,0.7-0.1,1.1-0.1c-0.1,0.2-0.3,0.3-0.5,0.3c-0.6,0-1.1,0.3-1.6,0.4
		c-0.2,0-0.5,0.1-0.7,0.1c-0.1,0-0.2,0-0.2,0.1c0,0-0.1,0-0.1,0c0-0.1-0.1-0.1-0.1,0c-0.2,0.2-0.6,0.1-0.8,0.2
		c-0.3,0.1-0.5,0-0.8,0.2c-0.1,0.1-0.2,0.1-0.3,0.1c-1.2,0.2-2.4,0.1-3.5,0.1c-0.2,0-0.3-0.1-0.5-0.1c-0.3,0-0.6-0.1-1-0.2
		c-0.4-0.1-0.8-0.2-1.1-0.5c-0.1-0.1-0.3,0-0.4-0.1c-0.2-0.1-0.3-0.3-0.5-0.4c-0.1-0.1-0.2,0-0.2,0c-0.2,0.3-0.5,0.4-0.8,0.6
		c-0.2,0.1-0.4,0.3-0.6,0.4c-0.2,0.1-0.4,0.2-0.6,0.1c0,0-0.1,0-0.1,0c-0.3,0.2-0.7,0.2-1,0.4c-0.1,0-0.1,0-0.2,0
		c-0.5,0-0.9,0.1-1.4-0.1c-0.3-0.1-0.7-0.3-0.9-0.6c0-0.1-0.1-0.1-0.1,0c-0.6,0.4-1.3,0.5-2,0.5c-0.4,0-0.8,0.1-1.2,0
		c-0.2-0.1-0.4-0.1-0.6-0.2c-0.3-0.1-0.5-0.4-0.7-0.7c-0.1-0.1-0.1-0.1-0.2,0c-0.2,0.2-0.4,0.5-0.7,0.7c-0.1,0.1-0.3,0.1-0.3,0.2
		c0,0,0,0,0,0c0.1,0.1,0.2,0,0.2,0.2c0,0.1-0.2,0.2-0.3,0.2c-0.3,0.1-0.6,0.1-0.9,0c-0.4,0-0.7-0.1-1.1-0.2
		c-0.3-0.2-0.7-0.4-0.9-0.7c-0.2-0.4-0.4-0.8-0.4-1.2c0-0.4,0-0.8,0.2-1.2c0.1-0.3,0.2-0.6,0.2-0.8c0.1-0.4,0.3-0.8,0.4-1.2
		c0.1-0.3,0.2-0.7,0.3-1.1c-0.2,0-0.2,0.2-0.3,0.2c-0.3,0.3-0.6,0.7-0.9,1c-0.2,0.3-0.4,0.6-0.6,0.9c-0.3,0.6-0.7,1.2-1,1.8
		c-0.3,0.6-0.6,1.2-1,1.7c0,0.1-0.1,0.1-0.2,0.2c-0.1,0.1-0.2,0.2-0.2,0.3c0,0.1-0.1,0.2-0.2,0.3c-0.1,0-0.2,0-0.3,0.1
		c-0.3,0-0.6-0.1-0.9,0c0,0,0,0-0.1,0c-0.4,0.1-0.4-0.2-0.5-0.4c-0.1-0.1,0-0.3,0.1-0.4c0.3-0.2,0.3-0.5,0.4-0.8
		c0-0.1,0-0.2,0.1-0.2c0.1-0.3,0.1-0.6,0.2-0.8c0.2-0.4,0.3-0.9,0.4-1.3c0.1-0.3,0.2-0.7,0.3-1c0.1-0.4,0.1-0.8,0.1-1.3
		c0-0.1,0-0.2,0-0.4c0-0.2-0.1-0.3-0.3-0.1c-0.1,0.1-0.3,0.2-0.4,0.3c-0.2,0.1-0.4,0.3-0.4,0.4c-0.1,0.3-0.4,0.4-0.5,0.6
		c-0.2,0.3-0.3,0.6-0.5,0.8c-0.1,0.1-0.1,0.3-0.2,0.3c-0.1,0.1-0.1,0.3-0.2,0.4c-0.2,0.2-0.2,0.5-0.4,0.8c-0.2,0.2-0.4,0.5-0.5,0.7
		c-0.1,0.2-0.3,0.4-0.4,0.7c0,0.2-0.2,0.4-0.3,0.6c-0.2,0.4-0.4,0.8-0.4,1.3c0,0.1,0,0.1-0.1,0.1c-0.2,0-0.4,0.1-0.7,0.1
		c-0.2,0-0.5,0.1-0.7-0.1c-0.1-0.1-0.2-0.2-0.2-0.3c0.1-0.6,0.2-1.2,0.4-1.8c0.1-0.4,0.3-0.8,0.4-1.2c0.1-0.3,0.2-0.6,0.3-0.9
		c0.2-0.6,0.4-1.1,0.5-1.7c0.1-0.4,0-0.8,0-1.2c0-0.1-0.1-0.1-0.1,0c-0.2,0.2-0.5,0.2-0.6,0.5c0,0.1-0.1,0.2-0.3,0.2
		c-0.1,0-0.1,0.1-0.1,0.2c0,0.1,0,0.2-0.2,0.2c0,0-0.1,0.2-0.1,0.3c0,0.1-0.1,0.1-0.1,0.1c-0.2,0.3-0.4,0.6-0.7,0.9
		c-0.2,0.2-0.4,0.5-0.6,0.7c-0.2,0.3-0.4,0.7-0.6,1c-0.3,0.4-0.6,0.8-1,1.1c-0.1,0.1-0.2,0.2-0.3,0.3c-0.4,0.4-0.9,0.5-1.4,0.6
		c-0.2,0-0.3,0.1-0.5,0.1c-0.4,0.2-0.9-0.1-1.1-0.4c-0.1-0.1-0.2-0.2-0.2-0.4c-0.1-0.1-0.1-0.2-0.1-0.3c0-0.3-0.1-0.6-0.2-0.8
		c0-0.1,0-0.2,0-0.3c0,0,0-0.1-0.1-0.1c-0.1,0,0,0.1-0.1,0.1c-0.2,0.1-0.3,0.5-0.4,0.6c-0.2,0.2-0.4,0.3-0.6,0.5
		c-0.3,0.3-0.7,0.4-1.1,0.6c-0.5,0.2-1,0.5-1.6,0.5c-0.6,0.1-1.2,0-1.8-0.2c-0.5-0.2-1-0.4-1.5-0.8c-0.3-0.3-0.6-0.6-0.9-0.9
		c-0.4-0.5-0.7-1-0.9-1.5c-0.2-0.4-0.3-0.8-0.5-1.1c-0.1-0.4-0.2-0.9-0.2-1.3c0-0.5,0-1,0-1.6c0-0.6,0.1-1.1,0.2-1.7
		c0.1-0.4,0.1-0.8,0.3-1.2c0.1-0.2,0.2-0.5,0.2-0.7c0.1-0.3,0.2-0.7,0.4-1c0.2-0.4,0.4-0.8,0.6-1.2c0.2-0.4,0.5-0.9,0.8-1.3
		c0.2-0.3,0.4-0.5,0.5-0.8c0.1-0.2,0.2-0.4,0.3-0.5c0,0,0-0.1,0-0.1c0,0-0.1,0-0.1,0c-0.3,0.1-0.6,0.2-0.9,0.2
		c-0.3,0-0.6,0.2-0.9,0.3c-0.5,0.1-0.8,0.4-1.2,0.6c-0.3,0.1-0.6,0.2-0.9,0.2c-0.2,0-0.3,0-0.5,0c-0.2,0-0.4-0.2-0.4-0.4
		c0-0.1,0.1-0.3,0.2-0.3c0.4-0.2,0.9-0.5,1.3-0.7c0.5-0.2,1-0.4,1.4-0.5c0.5-0.1,1-0.3,1.5-0.3c0.4,0,0.8-0.1,1.2-0.2
		c0.1,0,0.1-0.1,0.2-0.2c0.1-0.3,0.3-0.6,0.5-0.9c0.3-0.4,0.5-0.8,0.8-1.2c0.4-0.5,0.7-1,1-1.5c0.4-0.5,0.7-1,1.1-1.5
		c0.3-0.4,0.6-0.8,0.9-1.2c0.1-0.2,0.3-0.3,0.4-0.5c0.3-0.4,0.6-0.8,0.8-1.2c0-0.1,0-0.1,0.1-0.2c0.1-0.4,0.2-0.5,0.6-0.5
		c0.3,0,0.6,0.1,0.9,0.2c0.2,0.1,0.3,0.3,0.2,0.5c-0.1,0.4-0.3,0.7-0.5,1c-0.2,0.2-0.3,0.5-0.5,0.7c-0.3,0.3-0.5,0.7-0.8,1
		c-0.2,0.3-0.4,0.5-0.6,0.8c-0.4,0.5-0.8,1-1.1,1.5c-0.4,0.5-0.7,1-1,1.6c-0.2,0.2-0.4,0.5-0.5,0.7c-0.1,0.2-0.3,0.4-0.4,0.7
		c0,0.1,0,0.1,0.1,0.1c0.3,0,0.5,0,0.8,0c0.2,0,0.4-0.1,0.6,0c0.1,0.1,0.2,0,0.3,0c0.4,0,0.8-0.1,1.2,0.1c0.1,0,0.2,0,0.3,0
		c0.4,0,0.9,0.2,1.3,0.1c0.4-0.1,0.7,0,1.1,0c0.1,0,0.2,0,0.3,0c0.1,0,0.2,0,0.3,0c0.1,0,0.2,0,0.3,0c0.1,0,0.3,0.1,0.4,0
		c0.1,0,0.2,0,0.3,0.1c0.2,0.1,0.4,0.1,0.5,0.1c0.1,0,0.2,0.1,0.3,0.2c0.1,0.1,0.1,0.1,0.2,0.2c0.1,0,0.1,0,0.1-0.1
		c0-0.1,0-0.1,0.1-0.1c0.1,0,0.1,0,0.2,0c-0.1,0.1-0.1,0.1-0.2,0.2c0.2,0,0.3,0.1,0.5,0.1c0.1,0,0.3,0.1,0.4,0.1c0,0,0,0,0,0
		c0.1-0.2,0.2,0,0.4,0.1c-0.4,0.1-0.8,0.1-1.2,0c-0.3-0.1-0.7-0.1-1-0.1c-0.6,0-1.1-0.1-1.7-0.1c-0.5,0-1-0.1-1.5-0.1
		c-0.7,0-1.3-0.1-2,0c-0.6,0-1.3,0-1.9,0c-0.4,0-0.8,0.1-1.2,0.1c-0.1,0-0.1,0-0.1,0.1c-0.2,0.3-0.3,0.5-0.5,0.8
		c-0.2,0.3-0.4,0.6-0.5,0.8c-0.2,0.3-0.3,0.5-0.5,0.8c-0.2,0.4-0.4,0.7-0.6,1.1c-0.1,0.2-0.2,0.4-0.3,0.6c-0.1,0.3-0.2,0.6-0.3,0.8
		c-0.2,0.3-0.2,0.6-0.3,0.9c-0.2,0.6-0.3,1.2-0.4,1.8c-0.1,0.6-0.1,1.1-0.1,1.7c0,0.3,0,0.6,0,0.9c0.1,0.4,0.1,0.8,0.3,1.1
		c0.1,0.2,0.1,0.4,0.2,0.6c0.1,0.2,0.2,0.3,0.3,0.5c0.1,0.1,0.2,0.3,0.3,0.4c0.3,0.6,0.8,1,1.4,1.5c0.4,0.3,0.8,0.5,1.3,0.6
		c0.3,0.1,0.6,0.1,1,0.1c0.4,0,0.8-0.2,1.1-0.5c0.4-0.4,0.7-0.8,1.1-1.3c0.2-0.3,0.4-0.5,0.6-0.8c0.2-0.4,0.5-0.7,0.7-1.1
		c0.2-0.4,0.4-0.8,0.5-1.2c0.1-0.3,0.2-0.6,0.3-0.9c0.1-0.2,0.2-0.4,0.3-0.5c0.1-0.1,0.1-0.3,0.1-0.4c0-0.2,0.1-0.3,0.3-0.4
		c0.3-0.1,0.5-0.2,0.8-0.3c0.3-0.1,0.7,0.2,0.8,0.4c0,0.1,0,0.2,0,0.2c-0.3,0.4-0.4,1-0.6,1.5c-0.2,0.4-0.3,0.7-0.4,1.1
		c-0.1,0.4-0.2,0.7-0.2,1.1c0,0.3-0.1,0.5-0.1,0.8c-0.1,0.6-0.1,1.1,0.1,1.7c0.1,0.2,0.1,0.3,0.2,0.5c0.1,0.1,0.1,0.1,0.2,0
		c0.3-0.4,0.6-0.8,1-1.2c0.3-0.4,0.6-0.9,0.9-1.3c0.2-0.3,0.4-0.5,0.6-0.8c0.2-0.3,0.4-0.6,0.6-0.9c0.3-0.4,0.6-0.8,1-1.2
		c0.5-0.4,1-0.7,1.6-0.8c0.3-0.1,0.7-0.1,1-0.1c0.3,0,0.7,0.4,0.7,0.8c0,0.1,0.1,0.2,0.1,0.4C109.7,50.5,109.7,50.6,109.7,50.8z
		 M131.7,50.8C131.7,50.9,131.7,50.9,131.7,50.8C131.7,50.9,131.7,50.9,131.7,50.8c0,0.1,0.1,0.2,0,0.2c-0.1,0.3-0.3,0.6-0.4,0.9
		c-0.1,0.4-0.2,0.8-0.3,1.3c0.2-0.2,0.3-0.3,0.5-0.5c0.3-0.4,0.6-0.7,0.9-1.1c0.3-0.3,0.6-0.7,0.8-1c0.3-0.5,0.6-1,1-1.5
		c0.3-0.4,0.5-0.8,0.7-1.2c0.3-0.5,0.5-1.1,0.7-1.6c0.2-0.6,0.3-1.2,0.3-1.8c0-0.1,0-0.1-0.1-0.2c-0.1,0-0.1,0-0.2,0.1
		c0,0.1-0.1,0.2-0.1,0.2c-0.4,0.3-0.7,0.8-1,1.2c-0.3,0.4-0.7,0.9-1,1.4c-0.1,0.2-0.3,0.4-0.5,0.7c-0.1,0.2-0.2,0.3-0.3,0.5
		c-0.1,0.3-0.3,0.6-0.4,0.9c-0.1,0.2-0.3,0.4-0.3,0.7C132,50.4,132,50.7,131.7,50.8z M121.6,55c0,0.7,0.5,1.1,1,1
		c0.4,0,0.7-0.2,1-0.5c0.4-0.3,0.7-0.7,1-1.1c0.3-0.3,0.6-0.7,0.8-1.1c0.2-0.3,0.3-0.6,0.5-0.9c0.2-0.3,0.3-0.6,0.4-0.9
		c0.1-0.3,0.1-0.6,0.3-0.9c0-0.1,0-0.1,0-0.1c-0.3-0.3-0.8-0.5-1.3-0.4c-0.4,0.1-0.7,0.4-1.1,0.6c-0.2,0.1-0.5,0.3-0.6,0.5
		c-0.3,0.3-0.6,0.5-0.8,0.9c-0.1,0.2-0.3,0.4-0.5,0.7c-0.1,0.2-0.2,0.4-0.3,0.6c-0.1,0.3-0.2,0.5-0.3,0.8
		C121.7,54.5,121.6,54.8,121.6,55z M132.5,46.8C132.5,46.8,132.5,46.8,132.5,46.8C132.5,46.8,132.5,46.8,132.5,46.8
		C132.5,46.8,132.5,46.9,132.5,46.8C132.5,46.8,132.5,46.8,132.5,46.8z"/>
	<path class="st5" d="M57.3,45.7c0.1-0.2,0.4-0.4,0.5-0.6c0-0.1,0.2,0,0.2-0.1c0.3-0.3,0.6-0.5,0.8-0.9c0.1-0.1,0.2-0.2,0.2-0.3
		c0-0.1,0.1-0.2,0.2-0.1c0.1,0,0.2-0.1,0.2-0.2c0.3-0.4,0.6-0.7,1-0.9c0.1-0.1,0.2-0.2,0.3-0.3c0.1-0.1,0.2,0,0.4-0.2
		c0.1-0.1,0.3-0.1,0.3-0.3c0,0,0,0,0,0c0.3,0,0.3-0.3,0.5-0.4c0.2-0.1,0.4-0.2,0.6-0.4c0.1-0.1,0.2-0.1,0.3-0.1
		c0.1,0,0.2-0.1,0.3-0.2c0.5-0.2,1-0.5,1.5-0.7c0.7-0.3,1.4-0.5,2.1-0.6c0.3-0.1,0.6-0.1,0.9-0.1c0.6-0.1,1.2,0,1.8,0.1
		c0.4,0.1,0.8,0.3,1.2,0.5c0.1,0.1,0.2,0.1,0.1,0.3c-0.1,0.1,0.1,0.1,0.1,0.2c-0.2,0-0.3,0.1-0.5,0.1c-0.1,0-0.3,0.1-0.4,0
		c-0.2-0.1-0.4-0.2-0.6-0.3c-0.2-0.1-0.4-0.1-0.6-0.1c-0.6,0-1.3,0-1.9,0.1c-0.4,0.1-0.8,0.2-1.1,0.4c-0.3,0.1-0.6,0.2-0.8,0.4
		c-0.2,0.1-0.5,0.2-0.7,0.3c-0.2,0.1-0.3,0.2-0.5,0.3c-0.1,0.1-0.2,0.1-0.3,0.1c-0.2,0.1-0.3,0.2-0.5,0.4c-0.1,0.1-0.1,0.2-0.3,0.1
		c-0.2,0.3-0.6,0.3-0.7,0.6c0,0,0,0,0,0.1c-0.5,0.2-0.7,0.7-1.1,1c-0.2,0.1-0.3,0.4-0.5,0.6c-0.2,0.2-0.3,0.4-0.5,0.6
		c-0.1,0.1-0.2,0.2-0.2,0.3c0,0.1-0.1,0.2-0.2,0.2c0,0.1,0.2,0,0.1,0.1c-0.2-0.1,0,0.3-0.2,0.2c-0.1,0-0.2,0.1-0.3,0.2
		c0,0-0.2,0.1,0,0.2c0.1,0,0,0.1,0,0.2c-0.2,0.2-0.3,0.3-0.4,0.5c0,0-0.1,0-0.1,0.1c0,0,0-0.1,0-0.1c0,0,0,0,0,0c0,0.1,0,0.1,0,0.1
		c0,0,0.1,0.1,0,0.1c-0.2,0-0.1,0.3-0.3,0.3c0.1,0.1-0.1,0.2-0.1,0.3c0,0.1-0.1,0.2-0.2,0.3c-0.1,0.2-0.2,0.3-0.2,0.6
		c0,0,0,0.1-0.1,0.1c-0.1,0.1-0.2,0.1-0.1,0.3c0,0.1-0.1,0.1-0.1,0.2c-0.1,0.1-0.2,0.1-0.1,0.2c0,0,0,0,0,0.1
		c-0.3,0.2-0.2,0.6-0.2,0.9c0,0.2-0.1,0.1-0.2,0.2c0.1,0.1,0.2,0.1,0,0.2c0,0,0,0,0,0.1c0.1,0.1,0.1,0.2,0,0.2
		c-0.1,0.1-0.1,0.3,0,0.4c0,0.2-0.1,0.4-0.1,0.7c0,0.3,0,0.6,0.1,0.8c0.1,0.3,0.1,0.7,0.2,1c0.2,0.5,0.4,0.9,0.7,1.3
		c0.4,0.5,0.9,1,1.4,1.3c0.3,0.2,0.6,0.3,0.9,0.5c0.4,0.2,0.8,0.3,1.2,0.4c0.4,0.1,0.9,0.2,1.3,0.3c0.4,0,0.7,0.1,1.1,0.1
		c0.1,0,0.1,0,0.2,0c0.7,0,1.3,0,2-0.1c0.5-0.1,1-0.1,1.4-0.2c0.5-0.1,1-0.3,1.6-0.4c0.4-0.1,0.8-0.2,1.1-0.3
		c0.2-0.1,0.4-0.1,0.5-0.2c0.1-0.1,0.3-0.1,0.4-0.2c0.2-0.1,0.4-0.2,0.7-0.3c0.3-0.1,0.6-0.3,0.9-0.4c0.2-0.1,0.4-0.2,0.6-0.3
		c0.3-0.1,0.6-0.3,0.9-0.5c0.4-0.2,0.7-0.5,1-0.7c0.4-0.3,0.7-0.6,1.1-1c0.2-0.2,0.5-0.4,0.6-0.6c0.2-0.4,0.5-0.8,0.8-1.2
		c0.2-0.3,0.3-0.6,0.5-1c0.3-0.5,0.4-1.1,0.5-1.6c0.1-0.3,0-0.6,0.1-0.9c0-0.1,0-0.1-0.1-0.1c-0.4,0-0.9,0-1.3,0.1
		c-0.3,0-0.6,0-0.8,0c-0.1,0-0.1,0-0.2,0c-0.6,0-1.1,0-1.7,0c-0.1,0-0.3,0.1-0.4,0c0-0.1,0.1,0,0.1-0.1c-0.2,0-0.4,0.1-0.5,0
		c-0.4-0.1-0.9-0.1-1.4-0.2c-0.4-0.1-0.8-0.2-1.2-0.1c0,0-0.1,0-0.1,0c-0.2-0.2-0.4-0.2-0.7-0.2c-0.1,0-0.2-0.1-0.3-0.1
		c-0.3-0.1-0.6-0.1-0.9-0.3c-0.2-0.1-0.4-0.2-0.6-0.3c-0.2-0.1-0.4-0.3-0.5-0.5c-0.1-0.1-0.3-0.3-0.5-0.4c0,0-0.1-0.1-0.1-0.1
		c-0.1-0.2-0.1-0.5-0.3-0.8c-0.1-0.1-0.1-0.3-0.1-0.4c0,0,0-0.2,0-0.3c0.1-0.1,0-0.2,0-0.2c0-0.1-0.2-0.1,0-0.2c0,0,0-0.1-0.1-0.2
		c0,0,0-0.1,0-0.1c0.1-0.1,0.1-0.1,0-0.1c-0.1-0.1,0-0.1,0-0.2c0.1-0.2,0.1-0.4,0.2-0.6c0.3-0.3,0.4-0.6,0.8-0.8
		c0.1,0,0.3-0.1,0.3-0.3c0,0,0,0,0.1,0c0.5-0.1,0.9-0.4,1.4-0.5c0.1,0,0.3-0.1,0.4-0.1c0.3-0.1,0.7-0.1,1-0.2
		c0.4-0.1,0.8-0.1,1.3-0.1c0.2,0,0.5,0,0.7,0c0.5,0.1,1.1,0.2,1.6,0.3c0.3,0.1,0.6,0.2,0.9,0.3c0.2,0.1,0.5,0.3,0.7,0.4
		c0.2,0.1,0.4,0.3,0.6,0.4c0.2,0.1,0.3,0.3,0.5,0.4c0.3,0.2,0.4,0.5,0.7,0.6c0.1,0,0.1,0.2,0.2,0.3c0.1,0.2,0.2,0.4,0.4,0.5
		c0.1,0,0.1,0.1,0.2,0.2c0.1,0.3,0.2,0.5,0.5,0.8c0.1,0.2,0.2,0.4,0.3,0.6c0.1,0.1-0.2,0-0.1,0.1c0,0.1,0.2,0,0.2,0
		c-0.1,0.2,0.1,0.2,0.1,0.3c0,0.1,0,0.3,0,0.4c0,0.1,0.1,0.2,0,0.3c-0.1,0.1,0.1,0.1,0.1,0.1c0.1,0,0.3,0,0.4,0
		c0.6-0.1,1.1-0.2,1.7-0.3c0.3-0.1,0.7,0,1-0.1c0,0,0.1,0,0.1,0c0.2,0.1,0.4,0.1,0.6,0c0,0,0.1,0,0.2,0c0.3,0,0.6-0.1,0.8,0
		c0.5,0.1,1,0.1,1.4,0.3c0.2,0.1,0.5,0.2,0.7,0.2c0.1,0,0.2,0.1,0.2,0.1c0.3,0.2,0.6,0.3,0.8,0.6c0.2,0.2,0.5,0.4,0.7,0.7
		c0.1,0.2,0.3,0.4,0.5,0.5c0.1,0.1,0.2,0.3,0.3,0.4c0.1,0.1,0.1,0.2,0.2,0.4c0.2,0.2,0.2,0.4,0.3,0.6c0.1,0.2,0.1,0.3,0.2,0.5
		c0.1,0.4,0.1,0.8,0,1.1c-0.1,0.3-0.1,0.7-0.3,1c0,0,0,0.1,0,0.1c-0.2,0.1-0.3,0.3-0.4,0.5c-0.1,0.2-0.3,0.1-0.4,0.3
		C88.4,54,88.1,54,88,54.2c-0.1,0.1-0.3,0.1-0.4,0.1c-0.1,0-0.3-0.1-0.3,0.2c0,0-0.1,0.1-0.2,0.1c-0.1,0-0.2,0-0.3,0.1
		c0,0.1-0.1,0.1-0.2,0.1c-0.2,0-0.4,0-0.6,0.1c0,0-0.1,0-0.1,0c-0.6,0-1.1,0.2-1.7,0.2c-0.3,0-0.5,0-0.8,0c-0.2,0-0.3,0-0.5,0
		c-0.4,0-0.8-0.1-1.3-0.2c-0.3-0.1-0.6-0.1-0.8-0.3c-0.2-0.1-0.4-0.2-0.7-0.3c-0.1,0.4-0.2,0.7-0.3,1.1c-0.1,0.3-0.3,0.6-0.4,0.9
		c-0.1,0.3-0.2,0.5-0.3,0.8c0,0.1-0.1,0.2-0.2,0.4c-0.1,0.1-0.1,0.3-0.1,0.4c-0.1,0.2-0.1,0.5-0.2,0.8c-0.2,0.5-0.3,1-0.4,1.5
		c-0.2,0.5-0.2,1-0.3,1.5c0,0.2-0.2,0.3-0.4,0.3c0,0-0.1,0-0.1,0c-0.1,0.2-0.3,0.1-0.5,0.1c-0.2,0.1-0.5,0-0.7,0.1
		c-0.2,0-0.3-0.2-0.4-0.5c0-0.2,0-0.4,0-0.6c0.1-0.3,0.1-0.5,0.1-0.8c0-0.1,0.1-0.2,0.1-0.3c0-0.2,0.3-0.3,0.1-0.4
		c0.1-0.1,0.1-0.3,0.2-0.5c0.1-0.2,0.2-0.5,0.3-0.8c0.1-0.4,0.2-0.7,0.4-1.1c0.1-0.2,0.1-0.4,0.2-0.6c0.1-0.3,0.3-0.6,0.4-1
		c0.1-0.3,0.2-0.5,0.3-0.7c0-0.1,0.1-0.1,0.2-0.2c0.1-0.4,0.4-0.7,0.5-1.1c0.1-0.4,0.4-0.8,0.5-1.2c0.1-0.3,0.2-0.6,0.3-0.8
		c0.1-0.2,0.2-0.4,0.3-0.6c0.1-0.4,0.4-0.8,0.4-1.3c0-0.1,0.1-0.3,0.2-0.4c0.3-0.3,0.4-0.7,0.6-1c0.1-0.1,0.1-0.3,0.2-0.3
		c-0.3-0.1-0.5-0.1-0.8,0c-0.3,0.1-0.6,0-0.8,0.2c0.1,0.1,0.1,0.2,0.1,0.3c0,0.1,0,0.2,0,0.3c0,0.1,0.1,0.2-0.1,0.3c0,0,0,0.1,0,0.1
		c0,0.3,0,0.6-0.1,0.9c0,0.3-0.2,0.5-0.3,0.7c0,0.1-0.1,0.3-0.2,0.4C79,51.1,79,51.2,79,51.4c0,0.2-0.2,0.3-0.3,0.5
		c0,0-0.1,0.1-0.1,0.1c0.1,0.3-0.2,0.5-0.3,0.7c-0.1,0.2-0.1,0.4-0.3,0.6c-0.2,0.2-0.3,0.4-0.5,0.6c0,0.1-0.1,0.1-0.1,0.2
		c0,0,0,0.1-0.1,0.1c-0.3,0.1-0.5,0.3-0.7,0.5c-0.1,0.1-0.2,0.1-0.2,0.1c0,0-0.1,0-0.1,0.1c0,0.1,0.2,0,0.1,0.1
		c-0.1,0.1-0.1,0.2-0.2,0.2c-0.1,0-0.1,0.1-0.2,0.1c-0.2,0.2-0.5,0.3-0.7,0.5c-0.3,0.2-0.5,0.4-0.9,0.5c-0.4,0.1-0.8,0.4-1.2,0.5
		c-0.4,0.2-0.7,0.4-1.1,0.5c-0.3,0.1-0.6,0.2-0.9,0.3c-0.3,0.1-0.5,0.2-0.8,0.3c-0.3,0.1-0.6,0.2-1,0.3c-0.3,0-0.7,0.2-1,0.3
		c-0.4,0.1-0.8,0.2-1.2,0.3c-0.3,0-0.5,0-0.8,0.2c-0.2,0.1-0.5,0.1-0.7,0.1c-0.4,0-0.7,0.1-1.1,0.1c-0.5,0-0.9,0-1.4,0.1
		c-0.7,0-1.4-0.1-2-0.2c-0.3,0-0.5,0-0.8-0.1c-0.2-0.1-0.4-0.1-0.6-0.2c0,0,0,0-0.1,0c-0.6,0-1.1-0.2-1.6-0.5
		c-0.4-0.2-0.8-0.3-1.1-0.6c-0.1-0.1-0.2-0.1-0.2-0.2c0-0.1-0.2,0-0.2-0.1c-0.5-0.3-0.9-0.7-1.2-1.2c-0.3-0.4-0.5-0.9-0.7-1.3
		c-0.2-0.4-0.3-0.9-0.3-1.4c0-0.2,0-0.4-0.1-0.7c0-0.1,0-0.2,0-0.3c0.1-0.3,0.1-0.6,0.1-0.8c-0.1-0.5,0.2-0.8,0.2-1.3
		c0-0.1,0.1-0.4,0.3-0.5c0,0-0.1-0.1-0.1-0.1c0.1-0.2,0.2-0.4,0.3-0.6c0-0.3,0.1-0.5,0.2-0.7c0,0,0,0,0,0c0.1,0,0.2-0.1,0.2-0.2
		c0-0.4,0.3-0.6,0.4-0.9c0.1-0.3,0.4-0.3,0.5-0.5c0.1-0.2,0.3-0.3,0.3-0.6c0,0,0-0.1,0-0.1C57.2,46.1,57.4,45.9,57.3,45.7
		C57.4,45.7,57.4,45.7,57.3,45.7C57.4,45.7,57.3,45.7,57.3,45.7z M68.3,44.4c0.1,0.1,0,0.3,0.2,0.4c0,0,0,0,0,0.1
		c0,0.1,0,0.1,0.1,0.2c0.1,0,0.1,0.1,0.1,0.1c0,0.3,0.3,0.6,0.5,0.8c0.3,0.3,0.8,0.5,1.2,0.6c0.3,0.1,0.6,0.3,0.9,0.3
		c0.3,0,0.5,0.1,0.8,0.1c0.3,0,0.7,0.1,1,0.1c0.5,0.1,1,0.1,1.5,0.2c0.6,0,1.2,0,1.8,0c0.5,0,1.1-0.1,1.6-0.1c0.2,0,0.3-0.1,0.2-0.3
		c0-0.1-0.1-0.3-0.1-0.4c-0.1-0.5-0.3-1-0.5-1.5c-0.4-0.8-0.9-1.4-1.6-2c-0.4-0.3-0.9-0.6-1.4-0.8c-0.7-0.3-1.4-0.4-2.1-0.5
		c-0.8-0.1-1.6,0-2.4,0.2c-0.4,0.1-0.8,0.3-1.1,0.6c-0.1,0-0.1,0.1-0.1,0.1c0.2,0.1,0,0.1,0,0.1c0,0.2-0.2,0.1-0.3,0.1
		c0,0.1,0.1,0.1,0,0.3c-0.1,0.2-0.1,0.4-0.2,0.6c0,0.1,0,0.3-0.2,0.3c0,0,0,0,0,0c0,0.1-0.1,0.3,0.1,0.4
		C68.2,44.4,68.2,44.4,68.3,44.4z M82.6,48.8c0.2,0,0.1,0.1,0.1,0.2c-0.1,0.2-0.2,0.4-0.3,0.6c-0.1,0.1-0.1,0.2-0.2,0.2
		c-0.2,0-0.2,0.1-0.2,0.2c0,0.1,0,0.2-0.1,0.2c-0.1,0.2-0.3,0.3-0.4,0.6c0,0.4-0.3,0.7-0.4,1.1c0,0.2-0.1,0.3-0.2,0.4
		c-0.2,0.3-0.3,0.6-0.4,1c0,0.1,0,0.2,0.1,0.2c0.4,0.2,0.9,0.2,1.4,0.3c0.6,0.2,1.2,0.2,1.8,0.2c0.5-0.1,0.9-0.1,1.3-0.3
		c0.8-0.3,1.5-0.6,2-1.2c0.2-0.2,0.3-0.4,0.4-0.7c0.1-0.3,0.2-0.6,0.1-0.9c-0.1-0.5-0.3-0.9-0.5-1.4c-0.2-0.5-0.6-0.9-0.9-1.2
		c-0.3-0.4-0.8-0.7-1.2-0.9c-0.2-0.1-0.5-0.2-0.7-0.1c-0.4,0.1-0.8,0.2-1.2,0.5c-0.2,0.2-0.3,0.4-0.4,0.6
		C82.8,48.7,82.8,48.8,82.6,48.8z M58.6,46.4C58.6,46.4,58.6,46.4,58.6,46.4C58.6,46.4,58.5,46.4,58.6,46.4
		C58.5,46.4,58.6,46.4,58.6,46.4C58.6,46.4,58.6,46.4,58.6,46.4z"/>
	<path class="st5" d="M103.7,44.1c0.3,0,0.6,0,0.8,0.2c0.2,0.2,0.4,0.4,0.6,0.7c0.1,0.2,0.1,0.4,0,0.7c0,0.1-0.2,0.2-0.3,0.3
		c-0.2,0.1-0.3,0.2-0.6,0.2c-0.3,0-0.7,0.1-1,0.1c-0.3,0-0.6-0.1-0.8-0.3c-0.1-0.1-0.2-0.3-0.1-0.5c0,0,0-0.1,0-0.1
		c-0.2-0.1-0.2-0.3-0.1-0.4c0.1-0.1,0.2-0.3,0.3-0.4c0.2-0.2,0.5-0.2,0.8-0.2C103.5,44.1,103.6,44,103.7,44.1z"/>
	<path class="st5" d="M57.4,45.7C57.4,45.7,57.3,45.7,57.4,45.7C57.3,45.7,57.3,45.7,57.4,45.7C57.3,45.7,57.4,45.7,57.4,45.7z"/>
	<path class="st5" d="M131.7,50.9C131.7,50.9,131.7,50.9,131.7,50.9C131.8,50.9,131.8,50.9,131.7,50.9
		C131.8,50.9,131.8,50.9,131.7,50.9C131.8,50.9,131.8,51,131.7,50.9z"/>
</g>
</svg>
