<svg style="display: none; position: absolute;" height="0" overflow="hidden" width="0" xmlns="http://www.w3.org/2000/svg"><defs><symbol id="icon-balloon" viewBox="0 0 32 32"><path d="m16 31.647c-8.642 0-15.647-7.005-15.647-15.647s7.005-15.647 15.647-15.647 15.647 7.005 15.647 15.647c-.011 8.637-7.01 15.636-15.646 15.647z" fill="#fff"/><path d="m16 .706c8.447 0 15.294 6.847 15.294 15.294s-6.847 15.294-15.294 15.294-15.294-6.847-15.294-15.294 6.847-15.294 15.294-15.294zm0-.706c-8.837 0-16 7.163-16 16s7.163 16 16 16 16-7.163 16-16c-.011-8.832-7.168-15.989-15.999-16z" fill="#001f7d"/><path d="m15.266 9.659c.799-.491 1.491-1.005 2.134-1.574 1.189-1.026 3.184-2 3.911-1.203s-1.56 2.367-2.769 2.687c-.781.207-1.325.038-1.922.125s-2.245.36-1.353-.035z" fill="#fff"/><path d="m15.181 9.984c-.207 0-.264-.042-.287-.12-.04-.136.12-.221.318-.308.79-.491 1.475-1.004 2.112-1.569 1.191-1.026 3.26-2.087 4.074-1.193.102.112.164.261.164.425 0 .076-.014.149-.038.217-.257.873-1.97 1.981-2.954 2.24-.29.073-.623.115-.965.115-.097 0-.194-.003-.29-.01-.057-.004-.139-.006-.222-.006-.166 0-.33.01-.491.03l-.176.026c-.353.069-.78.123-1.214.151zm5.353-3.28c-.885 0-2.207.739-3.073 1.485-.623.547-1.31 1.059-2.037 1.514.249.013.731-.06.981-.098l.198-.028c.15-.019.325-.03.501-.03.082 0 .163.002.244.007.07.006.164.009.26.009.321 0 .634-.04.932-.114.99-.26 2.543-1.338 2.762-2.077.017-.043.027-.093.027-.145 0-.103-.039-.197-.103-.268-.161-.16-.383-.258-.629-.258-.022 0-.044.001-.066.002z" fill="#001f7d"/><path d="m13.518 18.442-.08.024-.078.021-.155.038c-.104.024-.207.042-.313.061-.209.035-.421.064-.635.085l-.322.026c-.025.004-.054.006-.084.006s-.058-.002-.087-.006c-.056 0-.114-.028-.173-.044-.05-.016-.109-.028-.17-.035-.018-.002-.034-.003-.049-.003-.041 0-.08.005-.118.015l-.307.07c-.209.045-.419.087-.642.118l-.172.019-.169.012c-.113 0-.235 0-.346 0-.254-.008-.496-.045-.727-.109s-.453-.16-.657-.282c-.103-.061-.201-.126-.294-.196-.086-.065-.176-.14-.261-.23s-.165-.16-.235-.235-.151-.169-.219-.256c-.249-.319-.483-.677-.686-1.054-.201-.364-.383-.751-.539-1.152-.1-.268-.171-.475-.229-.691-.031-.111-.056-.221-.08-.346-.02-.104-.035-.228-.042-.355-.006-.067-.009-.135-.009-.204s.003-.138.009-.205c.021-.14.053-.273.096-.4.035-.113.071-.245.113-.377.044-.141.104-.263.18-.374.038-.053.079-.104.123-.152l.065-.072.068-.068c.086-.081.179-.158.276-.229.185-.138.385-.262.595-.367.126-.062.23-.111.333-.156l.311-.134.689-.285c.027-.011.051-.023.073-.036.047-.029.09-.064.127-.104l.059-.066.059-.068c.037-.043.078-.081.123-.114.043-.029.089-.051.139-.066l.15-.053.289-.104c.774-.275 1.548-.541 2.329-.788q.586-.188 1.176-.362c.393-.115.788-.235 1.176-.327v0c .041-.006.089-.01.138-.01.52 0 .941.421.941.941 0 .357-.198.667-.491.827-.388.155-.774.292-1.165.428s-.779.264-1.176.386c-.784.249-1.574.471-2.367.706l-.447.12c-.046.015-.098.025-.152.026-.061-.001-.119-.009-.175-.025l-.169-.041c-.04-.009-.086-.015-.133-.015-.011 0-.022 0-.033.001h-.074l-.071.016c-.212.048-.394.104-.569.174-.061.026-.146.062-.228.102s-.162.082-.235.127c-.168.096-.309.189-.444.29-.055.041-.118.091-.177.14l-.085.075-.08.075c-.054.049-.118.089-.176.134-.06.043-.109.098-.142.162-.05.123-.079.262-.079.408v.019c.001.088.008.174.02.259-.001.067.025.156.046.246.042.181.094.367.155.551.143.427.293.784.466 1.128.065.127.159.296.258.461.11.181.217.335.331.482.048.064.107.135.168.203s.125.134.188.195c.062.058.128.114.196.167.068.052.139.099.212.142.293.176.633.276.998.276h.001q.134 0 .271 0l .136-.014h.136c.089-.014.186-.035.28-.056l.285-.071.287-.078c.052-.015.098-.039.138-.069.044-.035.084-.073.12-.116.041-.046.079-.091.121-.131.037-.037.079-.069.124-.095l.271-.152c.179-.099.358-.195.539-.287l.273-.132.136-.061.068-.028.066-.028c.065-.016.14-.025.217-.025.52 0 .941.421.941.941 0 .35-.192.656-.476.818l-.052.019z" fill="#fff"/><path d="m9.744 18.962h-.127c-.263-.007-.514-.045-.754-.111-.246-.066-.481-.166-.697-.294-.101-.065-.199-.135-.292-.209-.09-.068-.182-.146-.271-.23s-.172-.165-.249-.252-.155-.174-.235-.264c-.256-.324-.496-.687-.705-1.07-.203-.363-.387-.75-.545-1.151-.108-.29-.178-.497-.235-.701-.026-.099-.059-.219-.082-.358-.02-.109-.035-.239-.042-.372-.002-.038-.003-.073-.003-.109 0-.11.008-.218.022-.324.021-.144.055-.283.1-.416l.035-.12c.026-.085.049-.172.078-.256.048-.152.112-.285.194-.405.039-.053.08-.105.125-.154l.072-.079.08-.087c.09-.08.187-.158.289-.229.192-.143.398-.271.615-.379.129-.062.233-.114.339-.161l.311-.144.616-.264.078-.031.054-.026c.039-.024.073-.052.103-.084l.057-.062.059-.068c.043-.052.092-.097.146-.135.051-.036.107-.063.167-.083l.437-.157c.859-.306 1.624-.565 2.334-.791q.586-.188 1.176-.362c.351-.104.765-.221 1.191-.327.096-.032.206-.05.32-.05.581 0 1.052.471 1.052 1.052 0 .467-.304.863-.725 1-.422.167-.829.31-1.172.428-.414.144-.8.271-1.176.388-.734.235-1.508.471-2.372.706l-.447.12c-.055.019-.118.031-.184.031-.001 0-.001 0-.002 0-.071-.001-.139-.011-.203-.03l-.082-.02-.082-.019c-.02-.003-.043-.005-.067-.005s-.047.002-.07.005h-.054l-.073.016c-.206.047-.382.102-.552.169-.057.024-.142.059-.21.1s-.158.08-.235.122c-.163.094-.301.185-.432.283q-.085.063-.17.136l-.118.106-.047.045c-.04.035-.082.066-.127.099l-.056.042c-.044.031-.08.071-.105.118-.043.107-.067.229-.067.356v.021c.001.082.006.164.018.244-.001.063.025.148.044.226.038.167.089.351.153.539.139.424.286.779.457 1.12.061.119.153.287.254.454.108.182.212.335.324.482.048.061.104.132.163.198s.12.127.181.188c.059.055.122.108.187.158.064.048.13.092.198.133.26.143.558.223.875.223.023 0 .047 0 .07-.001h.255l.132-.014h.129c.089-.014.184-.035.275-.054l.28-.068.278-.099c.038-.011.071-.028.1-.05.039-.03.073-.063.104-.1l.02-.022c.035-.04.071-.08.106-.113.044-.043.093-.08.147-.111l.062-.035.209-.118c.179-.101.36-.198.544-.289l.275-.134.139-.064.139-.059c.124-.054.268-.086.419-.086.589 0 1.066.477 1.066 1.066 0 .462-.294.856-.706 1.003l-.062.021-.172.049-.16.038c-.106.024-.212.042-.318.061-.202.035-.419.064-.645.087l-.322.031c-.03.004-.064.007-.099.007s-.069-.002-.103-.007c-.061-.012-.115-.026-.168-.043l-.014.003c-.043-.014-.094-.024-.147-.03-.022-.003-.043-.005-.065-.005s-.043.002-.063.005l-.311.073c-.188.04-.414.087-.652.12l-.176.019h-.172zm4.705-10.049c-.001 0-.002 0-.002 0-.069 0-.137.009-.201.025-.418.105-.83.222-1.171.323q-.588.174-1.176.36c-.706.235-1.471.482-2.327.788l-.435.155c-.043.013-.08.03-.115.053-.037.027-.071.059-.101.095l-.06.069-.064.071c-.044.048-.095.089-.15.123-.028.017-.056.031-.086.043l-.091.041-.614.235-.308.132c-.104.045-.205.094-.306.144-.226.112-.419.232-.601.367-.091.069-.18.146-.263.229l-.066.066-.064.068c-.039.043-.077.09-.112.139-.069.102-.125.214-.163.334-.031.092-.054.176-.078.259l-.04.139c-.037.106-.067.232-.086.363-.013.095-.02.192-.02.29 0 .033.001.066.002.098.007.124.021.244.042.361.022.119.049.233.081.344.048.173.116.373.199.59.176.46.356.842.559 1.209.198.362.432.714.693 1.044.056.072.127.154.202.236s.153.16.235.235.169.148.261.216c.082.062.175.124.271.181.195.122.404.218.626.285.22.061.452.097.692.104h.341.165l.167-.019c.235-.031.44-.073.633-.115l.308-.071c.042-.011.091-.017.141-.017.02 0 .04.001.059.003.07.008.137.022.2.042l.018-.002c.047.012.094.026.139.033.021.003.045.005.069.005s.049-.002.072-.005l.317-.026c.219-.021.431-.049.626-.082.104-.019.205-.038.306-.059l.151-.035.155-.045.042-.016c.287-.135.482-.422.482-.754 0-.459-.372-.831-.831-.831-.084 0-.165.012-.241.035l-.124.053-.134.061-.268.132q-.268.136-.534.285l-.207.115-.061.035c-.039.022-.073.048-.104.078-.033.03-.063.066-.094.099l-.021.024c-.043.049-.089.093-.139.133-.052.038-.11.067-.172.085l-.293.081-.289.071c-.099.021-.195.042-.287.056h-.141l-.139.014c-.096 0-.188.012-.28 0-.007 0-.014 0-.022 0-.374 0-.724-.1-1.026-.274-.081-.046-.158-.096-.232-.15-.072-.055-.141-.114-.207-.176q-.1-.095-.194-.201c-.064-.073-.125-.146-.184-.221-.108-.14-.217-.298-.317-.462-.116-.195-.213-.369-.298-.54-.154-.3-.307-.663-.434-1.037-.083-.257-.138-.445-.178-.62-.021-.094-.04-.188-.049-.268-.011-.079-.018-.17-.019-.263 0-.007 0-.014 0-.021 0-.162.032-.317.09-.459.04-.079.101-.151.177-.205l.068-.015c.042-.029.078-.057.112-.086l.165-.151q.092-.078.193-.155c.128-.096.273-.193.424-.28.099-.058.183-.101.268-.141s.174-.08.264-.115c.155-.063.343-.122.536-.167l.097-.022c.027-.007.059-.012.092-.014.016-.001.032-.002.048-.002.054 0 .106.006.156.016l.089.02.087.021c.041.013.089.02.138.021.044-.001.085-.009.123-.022l.437-.1c.859-.235 1.631-.471 2.353-.706.374-.118.755-.235 1.176-.386.341-.118.744-.261 1.153-.424.304-.123.514-.415.514-.757 0-.294-.156-.552-.39-.695-.122-.075-.266-.119-.42-.12z" fill="#001f7d"/><path d="m26.367 18.115c0 4.03-3.267 7.296-7.296 7.296s-7.296-3.267-7.296-7.296c0-4.03 3.267-7.296 7.296-7.296s7.296 3.267 7.296 7.296z" fill="#001f7d"/></symbol><symbol id="icon-eating" viewBox="0 0 32 32"><path d="m16 31.647c-8.642 0-15.647-7.005-15.647-15.647s7.005-15.647 15.647-15.647 15.647 7.005 15.647 15.647c-.011 8.637-7.01 15.636-15.646 15.647z" fill="#fff"/><path d="m16 .706c8.447 0 15.294 6.847 15.294 15.294s-6.847 15.294-15.294 15.294-15.294-6.847-15.294-15.294 6.847-15.294 15.294-15.294zm0-.706c-8.837 0-16 7.163-16 16s7.163 16 16 16 16-7.163 16-16c-.011-8.832-7.168-15.989-15.999-16z" fill="#001f7d"/><path d="m17.052 6.195c0 1.212-.983 2.195-2.195 2.195s-2.195-.983-2.195-2.195.983-2.195 2.195-2.195 2.195.983 2.195 2.195z" fill="#001f7d"/><path d="m7.322 11.704-1.054.2c.407 2.029.64 4.361.64 6.748 0 2.223-.202 4.398-.588 6.51l1.123-.22c.078-.454.146-.911.207-1.365h4v1.365h1.056v-3.765h.235v-1.078h-4.995c.019-.441.03-.959.03-1.479 0-2.446-.238-4.837-.691-7.15zm4.311 9.472v1.821h-3.918q.108-.908.172-1.821z" fill="#001f7d"/><path d="m17.478 16.344c.016-.162.024-.327.024-.494 0-.131-.01-.259-.028-.384.865.128 1.682.142 2.381.523 1.28.706 2.416 8 1.052 8.499-1.527.565-1.268-.184-1.918.689h5.835c-.649-.873-.391-.125-1.918-.689-1.365-.504-.235-7.8 1.052-8.499s2.948-.162 4.598-1.264h-11.266c-.257-.701-.565-1.306-.934-1.867-.443.187-.976.275-1.531.275-.087 0-.173-.002-.258-.006-1.362-.096-2.43-.357-2.849-.705-.328-.276-.536-.688-.536-1.147 0-.057.003-.113.009-.168.011-.28.107-.542.263-.757.248-.316.635-.52 1.069-.52.289 0 .557.09.778.245l-.004-.003c.261.169 1.026.616 1.438.645.065.004.14.006.216.006s.152-.002.227-.006c-.368-1.011-1.119-1.762-2.627-1.84-4.181-.212-4.2 6.353-4.193 8.235-.001.019-.001.042-.001.064 0 .823.524 1.523 1.256 1.786.277.217.616.345.984.345h.003 4.459l-.536 4.012c-.009.063-.014.136-.014.209 0 .788.584 1.439 1.342 1.545.072.01.145.015.219.015h.001c.787-.001 1.437-.585 1.543-1.342l.782-5.764c.01-.066.015-.142.015-.219 0-.635-.38-1.182-.926-1.424z" fill="#001f7d"/><path d="m17.718 7.934 3.694 1.779c.066-.117.106-.258.106-.407 0-.311-.17-.583-.422-.727l-2.289-1.103c-.093-.039-.201-.061-.314-.061-.348 0-.647.212-.773.514z" fill="#001f7d"/><path d="m20.111 10.306v0c-.02.279-.144.526-.334.705l.112.055c.092.038.2.06.312.06.348 0 .646-.212.773-.514l-.864-.422c.001.017.002.037.002.058s-.001.04-.002.06z" fill="#001f7d"/><path d="m18.405 9.369-1.12-.539c-.066.117-.105.258-.105.407 0 .297.154.558.386.708.312-.187.575-.371.825-.569z" fill="#001f7d"/><path d="m19.882 9.569c.08.101.142.219.182.348l1.037.506c.026.009.057.014.088.014.153 0 .278-.124.278-.278 0-.099-.052-.186-.13-.235l-3.775-1.819c-.026-.009-.057-.014-.088-.014-.153 0-.278.124-.278.278 0 .099.052.186.13.235l1.319.636c.117-.048.254-.076.397-.076.34 0 .642.157.839.403z" fill="#001f7d"/><path d="m25.473 14.348.341-2.889h-1.951l.341 2.889h1.268z" fill="#001f7d"/><path d="m24.515 10.788h-.812v.513h2.268v-.513h-1.155l-.195-.814-1.038-.835-.184.228.96.772.155.649z" fill="#001f7d"/><path d="m21.341 12.506-.198.129.398.619h-.195l-.694-.838-.181.151.569.687h-.047l-.988-.68-.134.195.706.485h-.456l-.466-.487-.169.165.308.322h-.273l.682 1.134h2.24l.682-1.134h-.402l.471-.52-.174-.158-.616.678h-.075l.275-.678-.216-.089-.313.767h-.106l.174-.736-.228-.054-.162.678-.409-.635z" fill="#001f7d"/><path d="m13.198 10.247h-.012c-.185-.132-.416-.211-.666-.211-.37 0-.699.173-.911.443-.371.492-.277 1.428.233 1.788v0c .296.235 1.176.546 2.755.656 1.341.096 3.129-.525 4.988-1.998.204-.162.334-.411.334-.689 0-.485-.393-.878-.878-.878-.206 0-.396.071-.545.19-1.568 1.225-2.822 1.434-3.763 1.377-.553-.042-1.52-.671-1.536-.68z" fill="#001f7d"/></symbol><symbol id="icon-heart" viewBox="0 0 32 32"><path d="m16 31.647c-8.642 0-15.647-7.005-15.647-15.647s7.005-15.647 15.647-15.647 15.647 7.005 15.647 15.647c-.011 8.637-7.01 15.636-15.646 15.647z" fill="#fff"/><path d="m16 .706c8.447 0 15.294 6.847 15.294 15.294s-6.847 15.294-15.294 15.294-15.294-6.847-15.294-15.294 6.847-15.294 15.294-15.294zm0-.706c-8.837 0-16 7.163-16 16s7.163 16 16 16 16-7.163 16-16c-.011-8.832-7.168-15.989-15.999-16z" fill="#001f7d"/><path d="m8.311 13.089c.412-.135.885-.213 1.377-.213.271 0 .536.024.794.069-1.992-2.696-5.051-4.147-5.249-4.239l-.729 1.569c1.472.75 2.729 1.69 3.802 2.809z" fill="#001f7d"/><path d="m14.247 13.572c.222-.052.476-.082.737-.082.458 0 .894.091 1.292.257-.597-1.537-1.713-2.751-3.131-3.439l-.674 1.586c.75.382 1.355.956 1.766 1.658z" fill="#001f7d"/><path d="m10 11.927c.128-.107.275-.198.433-.268l-.005-.005-.536-1.647c-.437.167-.812.401-1.132.694.446.386.851.787 1.228 1.212z" fill="#001f7d"/><path d="m7.362 12.567c-.18.354-.352.776-.489 1.212.266-.159.587-.352.931-.504.088-.037.147-.059.206-.08-.212-.224-.428-.433-.647-.628z" fill="#001f7d"/><path d="m17.701 18.588c.262-.451.416-.992.416-1.57 0-.459-.098-.896-.274-1.29-.471-1.111-1.572-1.89-2.855-1.89-.429 0-.837.087-1.209.244-.1.045-.199.096-.294.153 1.981 4.082.604 9.602.604 9.602.102-.67.16-1.444.16-2.231 0-1.622-.247-3.185-.705-4.656-1.389 1.927-3.777 3.05-3.777 3.05 1.824-1.009 3.089-2.791 3.591-3.584-.311-.867-.666-1.609-1.084-2.308-.693-.541-1.632-.904-2.656-.904-2.339 0-4.235 1.896-4.235 4.235 0 1.549.831 2.903 2.072 3.642-.133 2.157.923 5.251 7.598 6.561 0 0 4.621 1.864 2.652-9.054z" fill="#001f7d"/><path d="m27.496 16.259-3.398-3.296 2.614-4.045-4.816-.021-.906-4.661-3.409 3.409-4.169-2.781.645 4.132.24-2.539 3.449 2.431 2.586-2.579.812 3.565 3.915.028-2.162 3.289 2.769 2.551-3.847.746.205 4.214-2.369-1.214 3.176 2.739-.028-4.934 4.694-1.033z" fill="#001f7d"/><path d="m17.805 14.967c.666-.941 2.588-1.715 2.649-1.736l-.654-1.6c-.075.031-2.391.887-3.311 2.214.534.267.976.647 1.308 1.112z" fill="#001f7d"/></symbol><symbol id="icon-fat" viewBox="0 0 32 32"><path d="m16 31.647c-8.642 0-15.647-7.005-15.647-15.647s7.005-15.647 15.647-15.647 15.647 7.005 15.647 15.647c-.011 8.637-7.01 15.636-15.646 15.647z" fill="#fff"/><path d="m16 .706c8.447 0 15.294 6.847 15.294 15.294s-6.847 15.294-15.294 15.294-15.294-6.847-15.294-15.294 6.847-15.294 15.294-15.294zm0-.706c-8.837 0-16 7.163-16 16s7.163 16 16 16 16-7.163 16-16c-.011-8.832-7.168-15.989-15.999-16z" fill="#001f7d"/><path d="m23.941 12.085-4.115-4.115c-.341-.148-.753-.288-1.178-.397-.433.986-1.38 1.684-2.489 1.684-1.121 0-2.075-.712-2.435-1.709-.604.101-1.121.249-1.62.436l-4.044 4.101c-.206.206-.333.491-.333.806s.127.599.333.806l.016.016c.206.206.491.333.806.333s.599-.127.806-.333l.826-.826c-.041.241-.065.519-.066.802-.002.043-.003.093-.003.143 0 .978.417 1.859 1.083 2.474l1.296 4.971c0 .78.632 1.412 1.412 1.412h.028c.78 0 1.412-.632 1.412-1.412v-3.666h.384.414v3.668c0 .78.632 1.412 1.412 1.412h.028c.78 0 1.412-.632 1.412-1.412l1.266-4.974c.666-.617 1.081-1.496 1.081-2.472 0-.05-.001-.1-.003-.149 0-.224-.017-.451-.047-.673l.681.704c.206.206.491.333.806.333s.599-.127.806-.333l.016-.016c.21-.207.34-.495.34-.813 0-.312-.125-.595-.329-.801z" fill="#001f7d"/><path d="m20.045 19.68c-.003-.094-.019-.184-.047-.268l-.28 1.141v5.329c0 .343-.278.621-.621.621h-6.193c-.343 0-.621-.278-.621-.621v-5.929l-.195-.751c-.081.135-.13.297-.132.47v6.21c0 .52.421.941.941.941h6.2c.52 0 .941-.421.941-.941z" fill="#001f7d"/><path d="m15.873 18.734h.414v.327h-.414z" fill="#001f7d"/><path d="m13.866 23.786v.031c.044.372.159.708.331 1.008.335.59.973.99 1.703.99.035 0 .07-.001.104-.003.025.002.059.003.094.003.731 0 1.368-.4 1.705-.993.171-.297.286-.633.329-.993l.001-.043-.927-.654h-2.414zm4.155.052c-.047.344-.154.654-.313.933-.309.553-.904.928-1.586.928-.004 0-.008 0-.012 0l-.108-.188-.108.188c-.003 0-.006 0-.009 0-.682 0-1.277-.376-1.588-.932-.157-.275-.266-.587-.311-.918l.311-.232v.129c0 .947.767 1.714 1.714 1.714s1.714-.767 1.714-1.714c0-.045 0-.087 0-.129zm-.845-.598.261.186h-.066l.024.134.169-.031c.009.062.014.133.014.206s-.005.144-.015.214l-.169-.039-.024.134.169.031c-.033.147-.081.276-.145.397l-.262-.161-.068.118.266.153c-.077.12-.165.223-.265.314l-.112-.131-.104.087.111.132c-.103.08-.221.15-.347.203l-.069-.158-.129.047.059.162c-.121.039-.26.065-.404.07l-.003-.308h-.136v.308c-.147-.006-.287-.031-.418-.074l.07-.159-.129-.047-.059.162c-.137-.057-.254-.127-.361-.21l.114-.129-.104-.087-.111.132c-.101-.092-.188-.196-.262-.309l.262-.159-.068-.118-.266.153c-.06-.112-.108-.241-.139-.378l.167-.041-.024-.134-.169.031c-.009-.062-.014-.133-.014-.206s.005-.144.015-.214l.168.039.024-.134h-.066l.261-.186z" fill="#001f7d"/><path d="m16.48 23.753c0 .265-.215.48-.48.48s-.48-.215-.48-.48.215-.48.48-.48.48.215.48.48z" fill="#001f7d"/><path d="m16 24.88.235-.409h-.471l.235.409z" fill="#001f7d"/><path d="m11.18 27.493.623-.528.231.273-.623.528z" fill="#001f7d"/><path d="m10.603 26.355.803-.145.064.352-.803.145z" fill="#001f7d"/><path d="m10.437 25.555.05-.354.809.113-.05.354z" fill="#001f7d"/><path d="m19.997 27.238.231-.273.623.528-.231.273z" fill="#001f7d"/><path d="m20.561 26.563.064-.352.803.145-.064.352z" fill="#001f7d"/><path d="m20.74 25.296.813-.079.034.356-.813.079z" fill="#001f7d"/><path d="m16.151 9.158c-1.392 0-2.52-1.128-2.52-2.52s1.128-2.52 2.52-2.52 2.52 1.128 2.52 2.52c-.001 1.391-1.129 2.519-2.52 2.52z" fill="#001f7d"/><path d="m16.151 4.235c1.327 0 2.402 1.076 2.402 2.402s-1.076 2.402-2.402 2.402c-1.327 0-2.402-1.076-2.402-2.402s1.076-2.402 2.402-2.402zm0-.235c-1.457 0-2.638 1.181-2.638 2.638s1.181 2.638 2.638 2.638 2.638-1.181 2.638-2.638c-.001-1.456-1.181-2.636-2.638-2.638z" fill="#fff"/><path d="m17.162 6.4-.186-.186c-.036-.035-.085-.056-.139-.056s-.103.021-.139.056l-.183.186-.141-.141.186-.186c.072-.071.171-.114.28-.114s.208.044.28.114l.186.186zm.396-1.045-.186.186c-.035.036-.057.085-.057.139s.022.103.057.139l.186.183-.141.141-.186-.186c-.071-.072-.115-.171-.115-.28s.044-.208.115-.28l.186-.186zm-1.052-.414.186.186c.035.036.085.058.139.058s.103-.022.139-.058l.184-.186.141.141-.186.186c-.072.071-.171.115-.28.115s-.208-.044-.28-.115l-.186-.186zm-.212.581-.186-.186.141-.141.186.186c.071.072.115.171.115.28s-.044.208-.115.28l-.186.186-.141-.141.186-.186c.032-.035.052-.082.052-.133s-.02-.098-.052-.133z" fill="#001f7d"/></symbol><symbol id="icon-fatter" viewBox="0 0 32 32"><path d="m16 31.647c-8.642 0-15.647-7.005-15.647-15.647s7.005-15.647 15.647-15.647 15.647 7.005 15.647 15.647c-.011 8.637-7.01 15.636-15.646 15.647z" fill="#fff"/><path d="m16 .706c8.447 0 15.294 6.847 15.294 15.294s-6.847 15.294-15.294 15.294-15.294-6.847-15.294-15.294 6.847-15.294 15.294-15.294zm0-.706c-8.837 0-16 7.163-16 16s7.163 16 16 16 16-7.163 16-16c-.011-8.832-7.168-15.989-15.999-16z" fill="#001f7d"/><path d="m20.941 9.546c-.588-.399-1.272-.716-2.004-.916-.571 1.084-1.669 1.827-2.941 1.827s-2.37-.743-2.885-1.819c-.786.192-1.467.51-2.077.923-1.545 1.013-3.27 3.043-4.181 6.742-.021.073-.032.157-.032.244 0 .52.421.941.941.941.187 0 .36-.054.507-.148.212-1.968 1.006-3.721 2.202-5.119-1.186 1.567-1.899 3.529-1.917 5.656 0 4.576 3.555 6.489 7.445 6.489s7.445-1.911 7.445-6.485c-.017-2.131-.731-4.092-1.923-5.671 1.203 1.409 1.997 3.162 2.209 5.09.146.133.32.188.507.188.52 0 .941-.421.941-.941 0-.087-.012-.171-.034-.251-.909-3.695-2.631-5.723-4.203-6.751z" fill="#001f7d"/><path d="m16 24.487c-3.656 0-7.562-1.734-7.562-6.602.005-.716.091-1.409.248-2.075-.136.487-.234.991-.287 1.507l-.003.097-.049.031c-.158.098-.35.156-.556.156-.59 0-1.068-.478-1.068-1.068 0-.094.012-.185.035-.271.968-3.967 2.845-5.901 4.252-6.816.599-.405 1.294-.728 2.038-.93l.129-.044.042.087c.503 1.054 1.561 1.77 2.786 1.77s2.282-.715 2.778-1.751l.041-.106.094.024c.793.213 1.488.536 2.112.957l-.025-.016c1.412.922 3.294 2.854 4.254 6.824.021.079.033.169.033.262 0 .59-.478 1.068-1.068 1.068-.204 0-.395-.057-.557-.157l-.042-.021v-.059c-.056-.554-.154-1.058-.293-1.544.16.665.245 1.358.25 2.07-.019 4.874-3.925 6.608-7.581 6.608zm-5.628-12.327.184.146c-1.163 1.535-1.868 3.473-1.882 5.575 0 4.709 3.786 6.37 7.327 6.37s7.327-1.664 7.327-6.369c-.014-2.106-.719-4.044-1.899-5.602l.201-.122c1.188 1.387 1.987 3.139 2.212 5.066.115.102.245.136.384.136.46 0 .833-.373.833-.833 0-.071-.009-.14-.026-.206-.949-3.891-2.782-5.78-4.152-6.674v0c-.553-.374-1.192-.678-1.877-.875-.607 1.074-1.72 1.804-3.003 1.804s-2.396-.73-2.947-1.797c-.741.191-1.381.494-1.957.884-1.346.879-3.178 2.768-4.129 6.67-.016.06-.025.13-.025.201 0 .46.373.833.833.833.14 0 .271-.034.387-.095.223-1.97 1.022-3.723 2.22-5.124z" fill="#fff"/><path d="m12 26.28c0 .819.821 1.485 1.833 1.485s1.833-.664 1.833-1.485v-1.614c-1.522-.012-2.958-.37-4.236-1z" fill="#001f7d"/><path d="m13.831 27.882c-1.071 0-1.944-.706-1.951-1.591l-.558-2.824.216.111c1.207.595 2.625.948 4.126.96h.119v1.729c-.002.896-.878 1.614-1.953 1.614zm-2.184-3.978.471 2.376c0 .753.769 1.367 1.715 1.367s1.715-.612 1.715-1.367v-1.501c-1.419-.029-2.756-.349-3.964-.901z" fill="#fff"/><path d="m16.336 26.28c0 .819.821 1.485 1.833 1.485s1.831-.664 1.831-1.485l.513-2.588c-1.222.604-2.658.962-4.177.974z" fill="#001f7d"/><path d="m18.169 27.882c-1.075 0-1.951-.718-1.951-1.602v-1.729h.115c1.507-.011 2.928-.365 4.193-.988l.16-.085-.56 2.824c-.007.864-.882 1.581-1.958 1.581zm-1.715-3.101v1.501c0 .753.769 1.367 1.715 1.367s1.715-.612 1.715-1.367l.471-2.376c-1.145.527-2.482.846-3.891.875z" fill="#fff"/><path d="m19.024 7.259c0 1.67-1.354 3.024-3.024 3.024s-3.024-1.354-3.024-3.024 1.354-3.024 3.024-3.024 3.024 1.354 3.024 3.024z" fill="#001f7d"/><path d="m16 10.4c-1.735 0-3.141-1.406-3.141-3.141s1.406-3.141 3.141-3.141 3.141 1.406 3.141 3.141c-.003 1.734-1.407 3.138-3.141 3.141zm0-6.047c-1.605 0-2.906 1.301-2.906 2.906s1.301 2.906 2.906 2.906 2.906-1.301 2.906-2.906c-.003-1.604-1.302-2.903-2.906-2.906z" fill="#fff"/></symbol><symbol id="icon-arrow" viewBox="0 0 22 32"><path d="m10.874 32c-.219 0-.417-.089-.56-.234l-10.043-10.086c-.168-.178-.272-.419-.272-.684 0-.142.03-.277.083-.399.116-.301.406-.516.747-.523h5.89v-19.157c-.001-.015-.001-.032-.001-.05 0-.467.369-.847.83-.867h.229l3.077 2.689 3.077-2.689h.228c.464.02.832.4.832.867 0 .018-.001.035-.002.052v19.161h5.932c.342.006.632.222.749.524.053.121.083.257.083.399 0 .265-.103.506-.272.684l-10.049 10.08c-.143.144-.341.234-.56.234zm-9.231-10.689 9.231 9.268 9.231-9.268h-6.314v-19.532l-2.917 2.529-2.923-2.529v19.532z"/></symbol><symbol id="icon-butterfly" viewBox="0 0 39 32"><path d="m21.99 26.24c-.896 1.843-2.362.16-2.829-.563-5.414-8.32-5.229-20.89-1.402-19.84 6.208 1.664 5.427 17.984 4.237 20.429zm-5.267-3.098c.579 1.26 1.153 2.309 1.79 3.315.16.239.409.547.687.826.55 1.958-1.351 1.696-2.112 1.709-9.312.179-18.182-9.498-13.216-13.44 3.469-2.746 9.427 3.053 12.8 7.546zm3.354 5.255c.001-.022.001-.048.001-.073 0-.151-.014-.298-.042-.44.124.078.265.129.414.16-.13.123-.258.245-.373.36zm13.901-13.37c-5.178.672-8.883 8.211-9.376 9.293-.016-.001-.035-.001-.054-.001-.675 0-1.247.439-1.447 1.046-.085.21-.133.441-.133.683 0 .18.026.354.075.518-.318.058-.596.164-.853.303 1.669-3.503 3.371-24.898-4.719-26.812-4.224-.998-5.459 10.682-1.677 20.838-4.141-5.165-10.355-10.733-14.08-7.68-5.92 4.806 4.678 16.64 15.789 16.461.138.012.3.018.462.018.483 0 .953-.058 1.402-.167-.226.392-.245.437-.898.808-1.11.614-2.403 1.063-3.775 1.272-1.204.066 2.214 1.333 5.753-.907 2.451-1.555 3.36-2.56 3.469-3.315h.006c.68 0 1.258-.44 1.463-1.052.088-.209.138-.44.138-.683s-.049-.474-.139-.683c2.232-1.659 6.404-4.174 9.867-2.593 3.539 1.331 2.56 4.179 2.278 4.589s-1.363 1.478-2.752.877c-1.197-.518-1.178-1.702-.64-2.176.071.139.179.25.31.324.113.061.242.096.38.096.442 0 .8-.358.8-.8s-.358-.8-.8-.8c-.302 0-.565.167-.701.414-.056.107-.088.229-.088.359 0 .024.001.047.003.07-.89.317-1.152 2.096.499 2.813s3.046-.602 3.334-1.056 1.363-3.61-2.522-5.05c-3.642-1.626-7.923.928-10.163 2.605-.053-.055-.112-.103-.175-.145.585-1.263 4.188-8.495 9.411-9.097 4.262-.486 4.358 2.56 4.32 3.091s-.403 1.971-1.92 2.176c-1.28.173-1.92-.845-1.696-1.51.117.073.259.116.411.116h.026c.42-.025.753-.373.753-.799 0-.442-.358-.8-.8-.8s-.8.358-.8.8c0 .015 0 .03.001.046.011.151.065.289.149.403-.597.734.101 2.391 1.918 2.148s2.291-2.093 2.298-2.63.09-4.045-5.056-3.392z" fill="#00aeef"/></symbol><symbol id="icon-form" viewBox="0 0 33 32"><path d="m23.443 16.755v6.24h-5.581c-.857.004-1.552.698-1.555 1.555v5.581h-14.438v-28.262h21.574v3.891l1.869-1.869v-2.336c-.004-.857-.698-1.552-1.555-1.555h-22.202c-.857.004-1.552.698-1.555 1.555v28.89c.004.857.698 1.552 1.555 1.555h16.071l7.68-7.68v-9.434zm-3.296 10.08-1.971 1.965v-3.936h3.949z" fill="#001f7d"/><path d="m32.819 6.17c.352-.33.572-.799.572-1.318 0-.482-.189-.919-.496-1.243l-1.817-1.804c-.323-.307-.76-.495-1.242-.495-.52 0-.988.22-1.317.571l-1.582 1.588 4.294 4.294z" fill="#001f7d"/><path d="m14.182 18.944-.685 1.997c.072.099.157.184.253.254l6.134-2.097 10.931-10.918-4.294-4.294-10.925 10.925zm13.895-11.264c.043-.044.103-.072.17-.072s.127.027.17.072l.397.397c.044.043.072.103.072.17s-.027.127-.072.17l-8.922 8.902c-.043.044-.103.072-.17.072s-.127-.027-.17-.072l-.397-.397c-.044-.043-.072-.103-.072-.17s.027-.127.072-.17zm-1.779-1.792c.043-.044.103-.072.17-.072s.127.027.17.072l.397.397c.044.043.072.103.072.17s-.027.127-.072.17l-8.922 8.915c-.043.044-.103.072-.17.072s-.127-.027-.17-.072l-.397-.397c-.044-.043-.072-.103-.072-.17s.027-.127.072-.17zm-10.208 9.978c.007-.002.016-.002.024-.002.033 0 .063.013.085.034l2.598 2.598c.021.022.034.052.034.085 0 .052-.032.096-.078.114l-3.034 1.056c-.132-.366-.415-.649-.772-.778l1.053-3.03c.015-.039.048-.068.089-.077z" fill="#001f7d"/></symbol><symbol id="icon-phone" viewBox="0 0 32 32"><path d="m15.995 0c-8.829.006-15.984 7.165-15.984 15.995 0 8.834 7.161 15.995 15.995 15.995s15.995-7.161 15.995-15.995-7.161-15.995-15.995-15.995c-.004 0-.008 0-.011 0zm4.233 25.725c-1.361-.097-10.238-2.236-13.975-12.765-.756-2.16.184-5.789 2.711-6.577s3.888 2.765 4.255 5.033l-2.246 2.236s-.065 1.404 3.002 4.471 4.46 3.002 4.46 3.002l2.603-2.603c1.89.675 3.523 1.499 5.033 2.495-.486 3.013-2.582 5.055-5.843 4.709z"/></symbol><symbol id="icon-logo" viewBox="0 0 80 32"><path d="m79.776 21.892q-.78-1.136-1.468-2.116l-1.2-1.704q-.612-.86-.956-1.332c.62-.435 1.163-.903 1.656-1.42.767-.81 1.268-1.871 1.367-3.046q.089-.919.089-2.143v-1.332h-3.864v3.38q0 .624-.024 1.016c-.012.231-.049.448-.109.656-.046.145-.122.289-.221.415-.114.144-.237.275-.371.395q-.247-.305-.547-.725l-.636-.892-.692-.98q-.356-.492-.688-.964-.8-1.096-1.644-2.308h-4.276v.268q.676.892 1.276 1.72.524.7 1.048 1.424t.844 1.116q-.868.8-1.416 1.392c-.35.366-.641.791-.856 1.259-.222.532-.365 1.115-.411 1.726q-.101 1.027-.101 2.671v1.772h3.736v-2.04q0-.88 0-1.6c-.003-.095-.005-.206-.005-.318 0-.33.016-.657.048-.979.03-.317.1-.646.202-.96.098-.271.263-.53.475-.744l.544.8.668.996q.356.536.748 1.096t.76 1.108q.856 1.248 1.824 2.64h4.236v-.252zm-14.792-13.092h-3.712v13.348h3.712zm-4.984 3.672c-.113-.782-.378-1.484-.765-2.103-.343-.509-.839-.922-1.422-1.169-.652-.263-1.383-.41-2.149-.41-.059 0-.118.001-.177.003h-7.487v6.148c-.005.049-.008.107-.008.165 0 .436.162.834.43 1.137.275.247.644.4 1.048.4.026 0 .052-.001.078-.002h3.996v-2.592h-1.544c-.005 0-.01 0-.016 0-.071 0-.137-.024-.189-.065-.051-.043-.075-.151-.075-.331v-1.9h3.48v0c .167 0 .325.038.466.107.154.087.274.235.324.412.097.337.169.728.204 1.13.066.59.102 1.247.102 1.912 0 .053 0 .106-.001.159q0 2.264-.332 3.04c-.07.154-.185.276-.328.354-.136.075-.294.118-.462.118-.001 0-.001 0-.002 0h-7.088v3.164h7.296c.053.002.115.003.178.003.767 0 1.498-.155 2.162-.437.581-.268 1.087-.702 1.447-1.242.397-.613.678-1.321.804-2.081.15-.847.233-1.785.233-2.743 0-.065 0-.13-.001-.195.001-.051.001-.123.001-.195 0-.984-.079-1.95-.231-2.891zm-13.828-3.672h-6.632v3.164h3.124l-.4 4.96q-.14 1.392-.676 1.888c-.409.315-.929.505-1.494.505-.075 0-.15-.003-.224-.01l-.118.001c-.023 0-.051.001-.079.001-.347 0-.686-.031-1.016-.09-.232-.039-.467-.151-.659-.313-.186-.169-.325-.39-.395-.641-.094-.337-.149-.714-.154-1.102l-.744-12.439h-3.788l.868 12.36c.045 1.082.28 2.097.673 3.029.311.688.866 1.284 1.56 1.657.455.238.962.404 1.498.479.584.085 1.23.131 1.888.131h.119.542c.079.003.171.005.264.005 1.034 0 2.012-.237 2.884-.659.767-.416 1.41-1.062 1.829-1.846.25-.458.44-.961.553-1.492q.187-.861.315-1.933l.74-6.9q.072-.756-.476-.756zm-14.172 0h-3.7v7.66h3.7zm-4.76 4.124q0-2.192-1.048-3.228t-3.2-1.032h-1.212c-.018 0-.039 0-.06 0-.405 0-.798.054-1.172.156-.309.085-.605.205-.883.356-.201.153-.396.336-.566.54-.192.225-.361.472-.505.735-.14.256-.264.532-.367.818-.084.235-.158.487-.219.744l-.062.049-1.148-3.26h-3.792l2.116 6.252-1.62 7.096h3.764l1.9-8.496c.113-.553.37-1.034.729-1.418.339-.318.799-.514 1.304-.514.039 0 .077.001.116.003h.363c.056-.006.122-.009.188-.009.472 0 .904.17 1.239.452.267.317.431.733.431 1.187 0 .05-.002.1-.006.149v5.481h-3.156v3.164h6.864v-9.224zm-15.2-3.356v-.168q0-.612-.344-.612h-6.768v-4.064h-3.728v6.76q0 .372.104.42c.082.034.177.053.276.053.015 0 .031 0 .046-.001h6.25l-.78 5.384c-.026.615-.355 1.147-.841 1.456-.441.236-.957.373-1.504.373-.014 0-.028 0-.042 0h-.598v2.972q.24.052.58.104c.205.033.442.052.684.052h.069c.664 0 1.305-.095 1.912-.272.56-.163 1.087-.451 1.534-.829.471-.414.861-.921 1.141-1.491.339-.696.589-1.47.722-2.284l1.259-7.649c.015-.058.024-.124.024-.192z" fill="#1c4969"/><path d="m26.368 26.648c.036-.012.065-.032.088-.06.212-.286.513-.494.861-.586.091-.019.182-.028.276-.028.176 0 .345.033.5.093.098.038.177.13.198.243.024.102.076.198.096.302.02.158.052.3.097.437.13-.215.276-.387.438-.544.177-.21.394-.377.641-.492.142-.056.294-.085.452-.085.106 0 .209.013.308.038.126.021.23.132.239.269.016.077.025.165.025.254 0 .154-.027.302-.076.44-.077.243-.177.487-.257.735-.122.292-.204.631-.231.985-.001.015-.001.02-.001.025 0 .188.06.363.162.505.008.012.025.021.044.021s.036-.009.046-.024c.122-.097.227-.206.317-.328.092-.121.178-.251.255-.388l.409-.661c.194-.356.414-.663.667-.94.117-.116.221-.252.349-.364.183-.176.399-.319.638-.419.112-.035.23-.06.35-.076.191-.033.363-.093.543-.113.043-.005.092-.008.142-.008.141 0 .276.022.403.062.119.037.243.101.371.129.203.059.373.179.494.338.125.13.225.282.294.449.008.02.011.033.011.046s-.003.025-.008.037c-.008.013-.013.029-.013.046 0 .035.02.065.048.081.048.028.06.244.032.292-.014.022-.037.036-.064.036-.008 0-.017-.001-.024-.004-.086-.021-.188-.035-.292-.04-.01-.002-.016-.003-.024-.003-.035 0-.065.023-.076.054-.102.222-.202.405-.312.582-.114.155-.233.355-.336.566-.092.17-.139.343-.139.526v.007c-.001.006-.001.013-.001.021 0 .113.091.204.204.204.044 0 .084-.014.118-.037.168-.075.309-.152.444-.239.151-.124.339-.224.507-.352.074-.072.156-.136.246-.189.049-.016.08-.056.08-.103 0-.024-.008-.047-.022-.065-.056-.068-.052-.148-.088-.22s.032-.04.032-.064c.004-.019.006-.041.006-.064s-.002-.045-.007-.066c-.006-.026-.01-.058-.01-.091 0-.08.022-.156.059-.221.019-.05.071-.074.027-.138s0-.036 0-.024c.104.044 0-.044.032-.052s0-.048 0-.048c.092-.032.096-.096.064-.172s0-.068.044-.064c.002.001.005.001.007.001.013 0 .024-.011.024-.024 0-.007-.003-.013-.007-.017-.116-.12-.032-.232.032-.32.041-.062.071-.134.087-.212.054-.172.125-.317.213-.451.04-.081.072-.173.116-.257l.16-.304c0-.024.028-.06.056-.032s.064 0 .088-.04-.028-.088.048-.08c0 0 0-.028 0-.04s-.056-.048 0-.104c.044-.08.094-.15.149-.213.018-.026.033-.058.042-.093.04-.002.036.082.08.046.034-.044.054-.099.056-.16 0-.032-.108 0-.032-.072.028-.03.053-.065.075-.101.08-.136.158-.25.243-.358.078-.071.147-.164.196-.268.025-.058.061-.101.105-.133.169-.129.289-.313.457-.437.146-.122.327-.205.527-.231.011-.001.017-.001.024-.001.193 0 .373.054.526.147.105.11.173.264.173.433 0 .038-.003.076-.01.112.001.016.001.028.001.04.012.049.019.106.019.164 0 .133-.037.257-.101.364-.022.037-.022.093-.042.137s-.056.052-.064-.024c-.013.035-.021.075-.021.116 0 .008 0 .017.001.025 0 .087-.096.127-.108.211s-.136.208-.164.332c-.001.012-.001.026-.001.04s0 .028.001.042c.024-.058.064-.05.104-.058-.096.04-.04.156-.124.212-.133.082-.233.207-.283.355-.013.032-.033.054-.057.068-.033.024-.053.036-.033.088s.052.116-.056.096v.048c.072.04 0 .076 0 .104-.031.069-.076.126-.131.171-.065.041-.069.161-.177.129 0 .032-.056.044-.032.092s0 .052-.036.076-.088.056-.056.124c0 0 0 .068-.064.06s-.028 0-.028 0c0 .116-.08.176-.14.256s-.116.108-.096.204c0 0-.02.044-.032.068-.1-.084-.096.06-.156.072s-.06.076-.116.1 0 .072.052.08c-.06.024-.14 0-.1.108 0 .044-.084.088-.124.144-.11.129-.228.244-.355.348-.081.072-.133.184-.261.208.141.161.31.295.499.395.131.073.272.135.42.184.162.048.333.082.509.1.2.021.384.041.572.041s.308 0 .464-.028.204-.032.308-.036c.205-.017.386-.043.565-.077.175-.019.367-.047.595-.091s.368-.048.552-.088c.065-.028.14-.045.22-.045.035 0 .07.003.103.01s.037-.001.053-.001c.136-.044.293-.069.455-.069.018 0 .037 0 .055.001-.049.085-.132.145-.229.16-.274.02-.514.156-.778.2l-.34.068c-.036 0-.076 0-.092.048s-.028.02-.036 0-.028-.028-.044 0c-.116.108-.268.064-.4.1-.135.01-.26.037-.378.079-.039.016-.095.027-.153.029-.371.044-.8.069-1.235.069-.16 0-.318-.003-.476-.01-.057.001-.141-.027-.221-.035-.167-.015-.321-.045-.469-.088-.181-.033-.356-.11-.507-.218-.044-.041-.116.003-.172-.053s-.148-.136-.228-.2c-.012-.007-.027-.011-.042-.011s-.03.004-.042.011c-.115.106-.246.197-.39.267-.091.066-.185.129-.282.188-.085.052-.169.077-.259.077-.008 0-.017 0-.025-.001-.005-.002-.012-.003-.019-.003s-.014.001-.021.003c-.138.064-.301.123-.471.167-.032.007-.046.008-.06.008s-.028-.001-.041-.003c-.059.006-.129.009-.2.009-.164 0-.324-.018-.477-.052-.158-.039-.299-.148-.384-.294-.002-.043-.038-.043-.066-.027-.242.141-.534.224-.844.224-.039 0-.079-.001-.117-.004-.052.005-.118.008-.184.008-.128 0-.253-.01-.376-.029-.107-.025-.209-.056-.309-.095-.13-.063-.246-.17-.324-.303-.034-.056-.066-.044-.106-.004-.099.121-.205.228-.32.325-.056.039-.128.035-.168.087v0c .028.036.112 0 .104.08s-.072.096-.128.12c-.06.017-.129.027-.2.027s-.14-.01-.205-.028c-.184-.009-.362-.051-.525-.119-.163-.07-.307-.187-.411-.333-.109-.159-.173-.351-.174-.559 0-.014 0-.029 0-.045 0-.192.026-.378.076-.554.037-.118.073-.254.113-.386.06-.2.14-.4.204-.584s.1-.336.152-.516c-.08 0-.108.076-.148.112-.154.149-.293.311-.417.485-.107.147-.203.287-.287.435-.164.284-.324.572-.476.864s-.292.56-.456.828c-.022.035-.048.065-.076.092-.043.034-.07.086-.072.144v.009c0 .062-.05.112-.112.112-.003 0-.006 0-.009 0-.062.007-.116.017-.169.03-.127-.002-.259-.03-.391-.022 0 0 0 0-.028 0-.172.04-.196-.104-.24-.204-.007-.017-.011-.036-.011-.056 0-.049.023-.092.058-.12.101-.105.167-.244.18-.398.006-.042.016-.077.029-.11.063-.121.059-.261.115-.397.092-.204.132-.424.204-.636s.096-.312.136-.472c.029-.149.046-.32.046-.496 0-.035-.001-.07-.002-.105-.001-.058-.009-.119-.021-.177.001-.105-.063-.129-.147-.057-.057.046-.121.092-.187.135-.09.051-.156.114-.203.191-.049.138-.177.194-.241.306-.065.142-.143.264-.234.375-.046.045-.042.125-.078.161s-.056.124-.088.176-.092.264-.184.36c-.088.1-.167.213-.231.335-.083.101-.142.211-.175.332-.029.118-.073.217-.132.305-.104.169-.172.375-.186.597 0 .06-.024.072-.072.068-.113.005-.22.021-.323.046-.026.007-.069.012-.113.012-.083 0-.161-.019-.231-.052-.043-.019-.075-.064-.075-.116 0-.014.002-.027.006-.039.064-.279.092-.563.176-.839.06-.2.14-.4.204-.588s.108-.288.164-.432c.088-.218.173-.485.24-.759.02-.13.026-.234.026-.339s-.006-.209-.019-.31c.001-.04-.039-.028-.063.012-.084.08-.228.072-.272.216-.021.056-.068.099-.127.112-.041.015-.069.052-.069.096 0 .032 0 .104-.088.092-.022.036-.041.077-.055.12-.001.04-.045.036-.057.064-.098.167-.206.311-.329.441-.093.103-.185.217-.271.335-.108.194-.203.345-.306.491-.142.182-.301.357-.472.519-.054.046-.09.102-.142.15-.179.146-.396.254-.634.306-.082.026-.162.026-.23.054-.042.014-.091.022-.142.022-.167 0-.314-.088-.397-.22-.041-.068-.079-.124-.12-.178-.03-.042-.052-.098-.057-.159-.027-.162-.057-.297-.095-.429.005.008.004-.014.004-.036s.001-.045.003-.067c0-.019-.013-.037-.032-.045-.028 0-.024.028-.032.032-.12.068-.12.22-.212.304s-.18.168-.276.244c-.146.11-.312.208-.488.286-.234.123-.487.208-.755.249-.08.009-.157.014-.235.014-.225 0-.442-.037-.644-.104-.262-.088-.5-.224-.705-.398-.157-.135-.301-.28-.432-.436-.169-.216-.32-.454-.446-.705-.098-.175-.174-.351-.23-.534-.059-.2-.1-.413-.12-.633-.002-.06-.003-.116-.003-.171 0-.206.009-.41.028-.612.011-.267.044-.541.096-.81.018-.17.063-.357.128-.534.034-.081.071-.2.099-.322.058-.205.12-.365.195-.519.076-.174.16-.382.256-.55.128-.25.248-.454.377-.652l.235-.352c.045-.096.094-.179.151-.256.004-.001.008-.009.008-.018s-.004-.017-.011-.022c-.009-.002-.019-.004-.03-.004s-.021.001-.031.004c-.13.051-.281.085-.438.096-.186.045-.337.093-.483.149-.203.081-.399.182-.583.299-.103.042-.24.075-.383.083-.083 0-.163 0-.247 0 0 0 0 0-.001 0-.103 0-.187-.079-.195-.179.006-.071.048-.13.107-.16.175-.103.383-.208.597-.299.228-.096.454-.166.689-.214.229-.062.471-.106.72-.127.217-.015.405-.043.587-.086.016.005.044-.047.064-.087.075-.162.159-.301.256-.43.132-.17.216-.374.356-.546s.316-.476.476-.716.356-.48.524-.728.296-.376.4-.584c.052-.088.14-.152.196-.24.124-.196.268-.376.376-.584.012-.024.021-.052.028-.082.044-.182.104-.242.284-.234.153.003.298.032.433.083.055.032.098.099.098.176 0 .019-.003.037-.007.054-.066.179-.154.335-.263.474-.073.112-.161.224-.245.336s-.252.332-.4.492-.18.26-.272.4c-.176.24-.36.472-.528.712s-.324.492-.48.74c-.076.12-.176.22-.236.344s-.132.204-.184.312c-.02.044 0 .064.04.06h.4c.042-.012.09-.018.14-.018s.098.007.144.019c.052.023.108-.001.164-.001.045-.003.097-.005.15-.005.149 0 .295.015.436.044.034-.002.09-.002.142-.002.186.023.403.037.624.04.084-.005.178-.008.272-.008s.188.003.281.009c.027-.001.067-.001.111-.001s.088.02.14 0 .108 0 .16.02c.03.01.066.016.102.016s.072-.006.104-.017c.013-.004.031-.007.049-.007.043 0 .082.015.113.04.072.052.176.032.26.04.057.003.107.03.14.072.021.031.048.055.079.072.049.001.057.001.061-.039.002-.023.021-.04.044-.04h.004.112l-.08.092c.088 0 .168.032.252.04.068.013.128.035.183.066s-.003.018-.003-.002c.072-.092.1 0 .172.036-.084.015-.18.023-.278.023s-.194-.009-.288-.025c-.154-.023-.318-.031-.482-.043-.272-.02-.548-.036-.824-.048s-.488-.04-.736-.032c-.32 0-.636-.04-.956 0s-.604 0-.908 0c-.184 0-.368.04-.556.036-.002 0-.005 0-.008 0-.025 0-.047.013-.06.032l-.244.376c-.088.132-.168.272-.252.4s-.148.252-.216.38-.192.344-.28.52c-.048.1-.096.204-.148.3-.053.162-.106.294-.166.423-.053.093-.1.227-.125.369-.073.288-.125.576-.181.86-.041.235-.064.505-.064.781v.02c-.008.059-.012.128-.012.199s.004.14.013.208c.029.196.078.379.145.554.038.078.062.186.114.282.036.089.081.165.134.234.044.057.085.124.119.195.177.282.396.512.652.694.178.134.381.231.601.283.149.04.309.066.473.074.209-.002.39-.095.513-.239.171-.187.337-.388.491-.597.099-.133.186-.264.267-.399.119-.201.251-.365.359-.541.093-.158.173-.341.231-.534.057-.166.105-.314.153-.462.033-.096.077-.18.13-.255.029-.039.048-.092.048-.149 0-.012-.001-.025-.003-.037 0-.115.056-.163.148-.211.107-.054.232-.097.363-.123.021-.003.035-.004.049-.004.146 0 .272.085.331.208.007.016.01.033.01.05s-.003.034-.01.049c-.123.198-.226.428-.298.671-.078.17-.147.349-.202.534-.06.183-.101.366-.122.555-.013.161-.036.297-.069.43-.014.073-.024.178-.024.285 0 .178.028.349.079.509.024.074.064.148.114.214.047.062.067.042.103-.002.156-.192.312-.4.468-.572s.272-.436.432-.64c.1-.132.208-.256.308-.4s.184-.28.276-.4c.145-.211.305-.395.485-.558.223-.194.493-.334.791-.4.108-.026.218-.04.331-.04.057 0 .113.003.168.01.177.038.317.187.341.373 0 .07.064.118.052.194-.001.015-.001.032-.001.05 0 .083.012.164.035.24zm10.48.024v.028h.036c.004.01.007.022.007.034s-.002.024-.007.035c-.056.119-.113.268-.161.421-.069.207-.113.417-.131.634.083-.079.159-.151.227-.227l.44-.504c.138-.148.27-.309.39-.478.166-.246.306-.486.47-.714.091-.149.184-.328.267-.512.134-.248.252-.503.352-.769.108-.274.162-.546.162-.83 0-.027-.001-.054-.002-.081 0-.028 0-.068-.028-.076-.004-.001-.008-.001-.013-.001-.034 0-.064.02-.079.048-.018.037-.039.069-.065.097-.188.161-.352.344-.49.546-.164.202-.314.416-.449.641-.073.14-.165.236-.229.352s-.116.164-.16.256-.12.28-.192.4c-.064.091-.119.195-.161.306-.011.165-.082.302-.191.397zm-4.848 2.008c-.001.011-.002.025-.002.038 0 .254.206.46.46.46.015 0 .029-.001.043-.002.182-.031.344-.114.471-.232.182-.166.347-.343.496-.534.144-.166.269-.34.375-.526.08-.156.168-.288.24-.416s.124-.28.18-.4.068-.3.136-.44c.006-.009.01-.02.01-.032s-.004-.023-.01-.032c-.106-.122-.262-.2-.436-.2-.058 0-.115.009-.168.025-.195.077-.366.171-.523.284-.106.062-.205.136-.294.22-.135.126-.257.263-.365.411-.078.103-.149.21-.214.321-.056.115-.124.203-.164.299s-.084.223-.121.352c-.063.138-.101.265-.115.4z" fill="#00aeef"/><path d="m1.36 24.204c.082-.082.153-.174.212-.274.028-.062.08-.006.108-.046.137-.122.26-.253.371-.393.04-.054.075-.107.105-.164.003-.055.043-.087.103-.079s.072-.064.092-.092c.12-.177.269-.325.442-.44.069-.037.12-.084.157-.142.041-.066.121-.026.169-.078s.136-.04.128-.14v0c .124 0 .136-.132.232-.172.122-.062.224-.123.322-.19.036-.023.089-.047.145-.064.045-.001.089-.065.133-.085.184-.103.413-.213.648-.31.324-.126.656-.224.999-.295.177-.035.321-.031.441-.055.08-.011.172-.017.265-.017.205 0 .403.03.59.085.212.059.408.138.593.236.04.02.096.06.04.136s.036.052.024.092c-.084.024-.164.052-.252.064-.031.013-.067.02-.104.02s-.073-.007-.106-.021c-.094-.063-.202-.087-.302-.139-.073-.035-.159-.056-.25-.056-.006 0-.013 0-.019 0-.064-.005-.14-.007-.217-.007-.24 0-.474.026-.7.075-.162.044-.338.104-.51.168-.156.059-.287.122-.413.195-.099.053-.223.093-.335.153-.088.041-.163.092-.229.153-.031.031-.095.031-.139.063-.087.059-.162.121-.232.188-.028.028-.06.088-.124.052-.08.136-.268.156-.328.308v.024c-.22.112-.344.34-.544.476-.1.068-.156.192-.248.276s-.16.196-.244.288c-.037.037-.067.081-.087.129-.015.049-.058.083-.108.083-.003 0-.006 0-.009 0 0 .04.076 0 .06.068-.072-.036 0 .136-.108.076-.032 0-.092.064-.124.112s-.076.056 0 .1 0 .06 0 .072c-.074.068-.133.153-.17.247s-.038.029-.058.041 0-.04 0-.052 0 0-.02 0 0 .036 0 .048.032.064 0 .064c-.108 0-.04.148-.132.156.032.068-.036.108-.048.164-.015.058-.041.109-.077.153-.062.063-.1.151-.1.248 0 .01 0 .019.001.029s0 .043-.032.059-.116.064-.064.148c0 .024-.04.056-.068.08s-.08.044-.032.096 0 .02 0 .028c-.12.116-.1.268-.108.4 0 .08-.072.068-.104.108.032.032.104.06 0 .108v.028c.013.012.022.03.022.05s-.008.038-.022.05c-.064.06-.024.128-.024.188s-.028.212-.028.324c-.001.023-.001.051-.001.078 0 .114.009.225.027.334.027.17.064.326.109.479.073.212.185.419.325.603.185.244.41.454.666.621.126.089.257.164.396.225.206.078.414.158.598.218.187.062.404.107.629.127.187.001.359.045.535.069h.088c.092.005.2.007.308.007.227 0 .451-.011.672-.033.2-.03.428-.062.656-.114s.5-.128.752-.196c.18-.048.364-.096.54-.156.098-.032.181-.069.26-.112.053-.026.124-.05.198-.067.129-.039.235-.086.335-.142.136-.068.284-.144.435-.204.07-.041.156-.085.245-.125.171-.076.303-.157.422-.254.184-.111.346-.23.497-.361.18-.151.347-.307.506-.471.109-.092.203-.192.286-.301.123-.201.263-.381.363-.593s.16-.304.236-.46c.11-.231.197-.499.249-.78.031-.16.003-.304.047-.448 0-.032 0-.052-.044-.048-.204 0-.4 0-.612.028-.06.009-.129.014-.2.014s-.14-.005-.208-.014c-.028.001-.048.001-.076.001h-.82c-.029.005-.062.008-.096.008s-.067-.003-.1-.008c.004-.024.036 0 .04-.036-.038.006-.083.01-.128.01s-.09-.004-.133-.01c-.207-.051-.423-.023-.639-.071-.096-.026-.206-.04-.319-.04-.088 0-.174.009-.257.026.001.003-.007.005-.016.005s-.017-.002-.024-.007c-.067-.053-.153-.085-.247-.085-.023 0-.045.002-.067.006-.054 0-.086-.032-.13-.048-.169-.034-.319-.087-.458-.157-.066-.04-.157-.084-.251-.122-.131-.057-.187-.153-.267-.233-.058-.076-.133-.136-.22-.175s-.032-.037-.04-.057c-.064-.12-.072-.256-.132-.376s-.032-.136-.064-.196c-.006-.019-.01-.041-.01-.064s.003-.045.01-.066c.048-.058 0-.078-.024-.114s-.096-.048 0-.084c0 0-.02-.052-.024-.08s0-.052 0-.068.056-.032.02-.068 0-.068 0-.1c.032-.092.036-.212.1-.272.124-.128.192-.312.4-.38.044 0 .136-.044.156-.124h.032c.228-.048.42-.18.644-.236.068 0 .136-.024.2-.044.164-.044.328-.068.492-.104.152-.034.327-.054.507-.054.036 0 .071.001.106.002.045-.006.102-.01.161-.01s.116.003.173.01c.241.063.497.075.741.139.17.045.315.097.455.159.093.045.197.121.309.181s.196.128.3.18c.093.061.172.12.248.184.124.08.192.224.328.3.04.02.064.096.092.148.037.095.106.171.194.215.04.023.069.058.082.1.058.139.13.258.218.363.052.079.096.174.128.274.03.072-.074.008-.05.068s.104 0 .076.024.048.092.056.148c.002.071.011.138.025.203-.001.041.043.089-.001.149s.04.064.04.064c.03.004.065.007.1.007s.07-.003.104-.007c.26-.044.524-.072.796-.136.176-.012.339-.036.497-.072s.007.004.019.024c.035.012.075.019.117.019.063 0 .122-.016.173-.044.01-.002.024-.004.038-.004s.028.002.041.005c.059-.008.128-.012.199-.012s.14.004.208.012c.244.022.477.07.699.142.065.03.179.07.296.103.066.023.102.044.134.071.152.085.283.173.407.269.105.099.208.209.304.325.073.09.149.174.221.254s.092.144.144.2.064.116.108.168c.068.085.12.185.151.294.025.086.069.162.089.246.021.082.034.175.034.272s-.012.19-.035.28c-.02.163-.074.317-.153.454s.003.03.003.038c-.08.06-.146.135-.194.22-.038.08-.162.064-.218.14s-.196.136-.276.224c-.044.039-.103.063-.166.063-.013 0-.026-.001-.039-.003-.059 0-.135-.024-.151.08 0 .024-.064.052-.112.032-.014-.009-.03-.015-.048-.015-.035 0-.065.02-.079.05-.014.021-.037.034-.063.034-.006 0-.012-.001-.017-.002-.008 0-.018-.001-.028-.001-.087 0-.169.026-.237.07-.016.011-.038.018-.062.019-.268 0-.528.076-.8.088-.06.01-.129.016-.2.016s-.14-.006-.207-.017c-.026-.003-.065-.006-.105-.006s-.078.002-.117.007c-.212-.012-.416-.046-.611-.101-.134-.028-.267-.07-.395-.125-.09-.043-.198-.091-.302-.147-.047.199-.104.37-.172.535-.049.083-.111.215-.166.35-.038.155-.094.267-.13.387-.025.067-.052.124-.083.178-.029.062-.025.138-.061.21s-.064.256-.116.376c-.067.178-.138.412-.197.65-.065.236-.118.473-.157.716-.01.11-.069.166-.141.166-.011 0-.023-.001-.033-.004s-.035 0-.039 0c-.06.084-.16.032-.228.068s-.236 0-.352.028-.164-.08-.168-.232c-.007-.047-.012-.101-.012-.156s.004-.109.012-.162c.029-.086.045-.192.045-.302 0-.024-.001-.048-.002-.071 0-.049.048-.081.052-.133s.124-.124.048-.216c.068-.064.052-.16.084-.236s.08-.24.12-.36c.067-.205.133-.372.208-.533.021-.053.053-.153.077-.256.051-.171.127-.319.175-.479.04-.094.081-.211.115-.331.005-.077.065-.093.085-.133.086-.139.173-.305.249-.476.098-.257.183-.442.278-.622.034-.102.078-.234.13-.37s.104-.184.136-.284c.072-.166.144-.372.203-.584.03-.111.067-.176.117-.229.098-.138.196-.298.284-.464.044-.076.044-.148.108-.172-.06-.019-.129-.03-.2-.03s-.14.011-.205.031c-.119.027-.259-.001-.371.091.034.027.055.069.055.115 0 .01-.001.02-.003.03-.01.022-.015.049-.015.077s.006.055.016.079c-.001.027.047.111-.04.135-.02 0 0 .024 0 .04v.041c0 .137-.013.27-.039.4-.041.132-.085.251-.134.365-.01.05-.038.114-.077.172-.037.055-.064.122-.074.195-.03.094-.072.174-.126.245s-.027.026-.027.038c.024.148-.096.232-.148.344-.029.105-.072.197-.126.28-.082.088-.158.184-.238.28-.02.024-.064.04-.04.088s0 .032-.028.036c-.142.042-.261.128-.343.242-.025.034-.081.026-.105.066s-.024 0-.024.032.076.02.036.06-.064.092-.116.116c-.031.016-.057.036-.08.06-.1.088-.213.164-.335.224-.125.091-.255.176-.392.251-.209.081-.385.185-.573.265-.149.077-.327.15-.511.209-.169.043-.297.115-.425.155s-.256.092-.4.132c-.13.052-.284.095-.442.122-.174.002-.33.098-.49.13s-.4.104-.596.132c-.138.008-.268.034-.39.075-.081.023-.186.038-.295.038-.018 0-.036 0-.053-.001-.178 0-.349.056-.529.072s-.432.024-.644.028c-.008 0-.018 0-.028 0-.333 0-.66-.028-.979-.081-.109.001-.247-.019-.378-.054-.097-.021-.192-.052-.283-.089l-.012.004c-.283-.027-.542-.107-.775-.229-.188-.067-.359-.17-.506-.3-.03-.03-.074-.05-.094-.102s-.076 0-.116-.04c-.221-.166-.41-.358-.567-.576-.133-.193-.249-.405-.341-.629-.089-.211-.136-.431-.136-.661 0-.003 0-.007 0-.01-.004-.115-.017-.225-.038-.332-.002-.008-.004-.031-.004-.055s.002-.048.007-.07c.029-.098.045-.212.045-.331 0-.023-.001-.047-.002-.07.032-.229.172-.401.176-.629.016-.103.076-.19.159-.243l-.051-.021c.065-.074.109-.169.12-.274.015-.133.053-.252.111-.36.001.004.005.003.009.003s.008.001.012.003c.052 0 .116-.044.112-.104 0-.176.12-.272.176-.4s.168-.156.236-.248.152-.144.124-.264c0 0 0-.024.02-.028.097-.035.172-.108.207-.202.001-.034.001-.002-.027-.022zm5.2-.624c.04.064 0 .156.084.196v.028s-.024.064.028.092.056.032.06.064c.04.152.129.28.25.367.159.133.344.238.546.306.135.064.279.112.429.142.115.029.24.051.368.065.185.007.348.026.508.056.224.033.468.053.716.069s.584 0 .876 0 .52-.032.8-.044c.072 0 .124-.028.092-.132s-.024-.124-.04-.184c-.058-.266-.144-.501-.256-.721-.187-.36-.445-.678-.755-.935-.199-.163-.422-.297-.663-.398-.309-.131-.648-.217-1.002-.246-.096-.009-.194-.013-.292-.013-.316 0-.622.047-.909.134-.185.057-.366.149-.527.266-.019-.004-.059.06-.051.06.088.028 0 .048 0 .068s-.092.024-.132.052.06.056 0 .124c-.045.08-.075.173-.084.273 0 .055 0 .151-.1.147v.024s-.028.128.028.184zm6.824 2.132c.1.024.052.064.036.096l-.156.284c-.024.044-.056.116-.08.116-.088 0-.084.056-.08.104-.001.042-.012.082-.029.118-.031.114-.159.154-.175.294-.064.205-.132.376-.211.541-.008.054-.04.124-.083.185-.082.133-.149.288-.192.454-.003.06-.003.104.057.124.212.08.436.08.652.152.179.06.385.095.599.095.095 0 .188-.007.28-.02.224-.019.44-.065.646-.133.362-.113.689-.316.952-.582.083-.089.152-.192.202-.305.053-.102.082-.215.082-.334 0-.036-.003-.071-.008-.105-.057-.244-.142-.463-.254-.665-.119-.209-.261-.4-.423-.573-.158-.184-.356-.332-.58-.43-.092-.049-.19-.075-.293-.075-.02 0-.04.001-.06.003-.212.032-.401.12-.555.249-.079.078-.144.174-.188.281-.026.062-.022.122-.126.122zm-11.424-1.148v0 0h .024z" fill="#00aeef"/><path d="m23.472 23.44c.017-.001.036-.002.056-.002.126 0 .245.032.348.088.109.083.201.19.266.313.023.051.034.105.034.161s-.012.11-.033.159c.001.065-.083.093-.127.125-.069.06-.16.096-.26.096-.001 0-.003 0-.004 0-.169.005-.331.021-.489.047.012-.002.002-.002-.009-.002-.132 0-.252-.054-.338-.141-.042-.053-.067-.122-.067-.195 0-.023.002-.045.007-.067s.024-.034 0-.042c-.048-.023-.081-.071-.081-.127 0-.032.011-.062.029-.085.041-.074.092-.137.151-.191.113-.105.249-.081.373-.109.048-.012.108-.044.144-.028z" fill="#00aeef"/><path d="m1.376 24.216s0 .024-.036 0v-.028z" fill="#00aeef"/><path d="m36.86 26.708h.032s0 0 0 .024-.016-.004-.032-.024z" fill="#00aeef"/><path d="m63.2 6.4c-.22.448-.576.04-.692-.136-1.32-2.032-1.276-5.096-.344-4.844 1.516.4 1.324 4.4 1.032 4.984zm-1.292-.756c.14.315.281.578.437.829.041.06.104.137.175.207.132.476-.328.4-.516.4-2.272.044-4.436-2.316-3.224-3.276.844-.668 2.3.744 3.124 1.84zm.828 1.292c.002-.019.003-.04.003-.062s-.001-.043-.004-.065c.03.018.065.031.102.038l-.089.088zm3.404-3.26c-1.28.16-2.176 2-2.3 2.264-.004 0-.009 0-.013 0-.166 0-.306.108-.354.258-.016.046-.025.095-.025.147s.009.101.025.147c-.078.014-.146.041-.209.075.404-.854.828-6.074-1.144-6.538-1.032-.244-1.332 2.604-.4 5.084-1.012-1.26-2.524-2.616-3.44-1.876-1.444 1.172 1.14 4.064 3.852 4 .032.003.069.004.107.004.12 0 .236-.015.347-.042-.054.098-.058.106-.218.198-.27.148-.584.256-.916.306-.292.002.54.326 1.404-.222.6-.38.8-.632.844-.8.147-.027.263-.136.299-.277.021-.051.033-.107.033-.167s-.012-.116-.034-.167c.545-.397 1.569-1.017 2.401-.633.864.324.628 1.02.556 1.12-.105.15-.278.247-.473.247-.071 0-.14-.013-.203-.037-.138-.037-.24-.164-.24-.316 0-.082.03-.158.081-.215.017.034.043.062.075.08.028.015.06.024.094.024.108 0 .196-.088.196-.196s-.088-.196-.196-.196c-.075 0-.14.042-.173.103-.005.017-.008.035-.008.053s.003.036.008.053c-.216.079-.28.511.12.687.069.025.149.04.232.04.235 0 .443-.118.567-.298.066-.102.334-.882-.615-1.234s-1.932.228-2.48.636l-.044-.036c.14-.3 1.028-2.064 2.3-2.212 1.04-.12 1.064.632 1.056.756-.009.267-.198.487-.448.543-.32.045-.464-.203-.404-.367.028.018.063.028.1.028h.008c.104-.005.187-.09.187-.196 0-.108-.088-.196-.196-.196s-.196.088-.196.196v.012c.003.036.016.069.036.096-.144.179.024.583.46.523.311-.06.544-.323.56-.642 0-.122.02-.99-1.232-.83z" fill="#00aeef"/><path d="m79.452 27.372h-.376v2.376h.376zm-.612 2.344-.672-.916c.105-.077.196-.166.274-.265.067-.088.121-.186.16-.291.04-.109.067-.227.078-.35q0-.194 0-.434v-.08h-.4v.092.34c-.003.107-.013.209-.03.309-.014.083-.042.169-.081.249-.039.078-.093.149-.157.21l-.912-1.2h-.452v.028l.58.776c-.109.086-.2.188-.273.303-.067.107-.121.225-.16.35-.04.127-.067.263-.078.404q0 .211 0 .407v.096h.4v-.088q0-.188 0-.376c.006-.131.021-.253.043-.373.017-.098.049-.202.093-.299.036-.082.094-.158.168-.215l.981 1.355h.444v-.032zm-2.4-2.344h-.376v1.364h.376zm-.8.552c-.043-.146-.116-.273-.213-.377-.059-.059-.133-.105-.216-.13-.086-.026-.181-.041-.279-.041-.003 0-.006 0-.009 0h-.876v.376h.864c.02-.002.043-.003.066-.003s.046.001.069.003c.036.007.07.026.097.052.058.065.102.144.127.232.037.136.058.286.058.442 0 .025-.001.049-.002.073.003.044.005.1.005.157s-.002.112-.005.168c-.009.072-.023.144-.042.214-.012.04-.032.084-.059.124-.02.029-.044.055-.07.078-.056.041-.126.066-.202.066-.009 0-.019 0-.028-.001h-.863v.376h.856.016c.093 0 .182-.013.267-.038.078-.024.15-.068.209-.126.104-.102.184-.228.23-.369.058-.181.091-.383.091-.591 0-.024 0-.047-.001-.07.001-.017.001-.04.001-.064 0-.202-.028-.398-.081-.584zm-1.832-.572h-.376v2.376h.376zm-.8.86c.001-.017.001-.037.001-.057 0-.142-.016-.279-.047-.412-.023-.084-.068-.168-.13-.236-.041-.049-.094-.088-.153-.114-.067-.027-.141-.041-.218-.041-.006 0-.012 0-.018 0h-1.311v1.792.009c0 .064-.028.123-.072.163-.048.04-.111.065-.179.065-.006 0-.012 0-.018-.001-.018.002-.039.004-.061.004s-.043-.001-.065-.004l-.081-.024v.372c.034.013.073.023.113.028h.115c.01.001.022.001.035.001.162 0 .31-.061.422-.161.104-.109.169-.258.169-.422 0-.016-.001-.032-.002-.047v-1.378h.956c.027.001.052.01.072.024.03.034.052.076.063.122.019.079.029.167.029.258 0 .015 0 .031-.001.046v1.546h.376v-1.512zm-3.48 0c .001-.017.001-.038.001-.058 0-.141-.016-.278-.047-.41-.022-.084-.066-.167-.126-.237-.041-.048-.093-.088-.153-.114-.067-.027-.142-.041-.22-.041-.007 0-.013 0-.02 0h-1.383v2.376h.376v-2h1.032.003c.03 0 .058.009.081.024.03.033.051.075.059.122.016.081.025.172.025.266v.038 1.546h.376v-1.492zm-2.372-.86h-.376v1.364h.376zm-.8 0h-.356v1.364h.376zm-2.4 2.024v-1.636h1.068.004c.03 0 .057.009.08.024.03.035.051.078.059.126.016.081.025.173.025.267 0 .015 0 .03-.001.045v1.198zm1.6-1.164c.001-.017.001-.038.001-.058 0-.141-.016-.278-.047-.41-.022-.084-.068-.168-.13-.236-.042-.049-.094-.088-.153-.114-.067-.027-.141-.041-.219-.041-.006 0-.011 0-.017 0h-1.391v2.376h2v-1.496z" fill="#1c4969"/><path d="m77.956 24.712h-.376v1.376h.376zm1.496-.14c.001-.017.001-.037.001-.057 0-.142-.016-.279-.047-.412-.023-.084-.068-.168-.13-.236-.041-.049-.094-.088-.153-.114-.067-.027-.141-.041-.218-.041-.006 0-.012 0-.018 0h-1.307v.376h1.332.003c.03 0 .058.009.081.024.029.033.051.076.059.122.016.079.025.167.025.258 0 .015 0 .031-.001.046v1.546h.376v-1.512zm-2.28-.036c0-.009 0-.019 0-.03 0-.124-.019-.243-.055-.355-.032-.093-.086-.18-.154-.252-.066-.073-.151-.129-.248-.159s-.201-.045-.31-.045c-.005 0-.009 0-.014 0h-.043c-.007 0-.015 0-.023 0-.192 0-.367.078-.493.204-.048.052-.09.111-.122.176-.036.067-.069.141-.095.218l-.047.13-.308-.708h-.4l.468 1.128-.4 1.252h.4l.484-1.552c.034-.138.098-.258.185-.357.04-.039.089-.07.144-.09.056-.019.117-.029.18-.029h.011.031c.007 0 .014-.001.022-.001.11 0 .21.045.282.117.075.091.12.209.12.338 0 .022-.001.044-.004.065v1.149h-.76v.372h1.136v-1.572zm-2.496.036c.001-.017.001-.038.001-.058 0-.141-.016-.278-.047-.41-.022-.084-.068-.168-.13-.236-.041-.049-.094-.088-.153-.114-.067-.027-.141-.041-.219-.041-.006 0-.011 0-.017 0h-1.031v.376h1.044c.006-.002.013-.003.02-.003s.014.001.02.003l.043.028c.03.033.052.073.064.118.019.077.029.164.029.253 0 .016 0 .032-.001.047v1.538h.376v-1.5zm-1.78-.312c-.043-.146-.116-.273-.213-.377-.059-.059-.133-.105-.216-.13-.086-.026-.181-.041-.279-.041-.003 0-.006 0-.009 0h-.876v.376h.864c.02-.002.043-.003.066-.003s.046.001.069.003c.036.007.071.026.097.052.058.065.103.144.127.232.037.136.058.286.058.442 0 .025-.001.049-.002.073.003.044.005.1.005.157s-.002.112-.005.168c-.009.072-.023.144-.042.214-.012.04-.032.084-.059.124-.02.029-.044.055-.07.078-.056.041-.126.066-.202.066-.009 0-.019 0-.028-.001h-.863v.376h.856.016c.093 0 .182-.013.267-.038.078-.024.15-.068.209-.126.104-.102.184-.228.23-.369.058-.181.091-.383.091-.591 0-.024 0-.047-.001-.07.001-.017.001-.04.001-.064 0-.202-.028-.398-.081-.584zm-1.764-.572h-1.2v.376h.692c-.053.012-.099.037-.136.072-.034.032-.062.071-.083.113-.018.042-.032.087-.041.135-.002.023-.003.045-.003.067s.001.045.003.067v1.549h.376v-1.628c-.002-.02-.003-.043-.003-.066s.001-.046.003-.069c.008-.039.023-.077.045-.11.021-.031.051-.057.086-.074.04-.018.086-.029.134-.029h.016.111v-.376zm-2.336 0h-1.356v-.828h-.376v1.164c0 .003-.001.006-.001.009 0 .033.027.06.06.06.003 0 .006 0 .009-.001h1.244l-.208 1.16c-.016.145-.085.271-.187.359-.092.066-.206.105-.329.105-.007 0-.014 0-.021 0h-.099v.376h.128.006c.105 0 .206-.015.302-.042.092-.026.179-.071.254-.131.082-.068.15-.152.2-.246.064-.12.111-.254.137-.396l.269-1.477c0-.052 0-.08-.048-.08zm-1.912.892c.001-.017.001-.037.001-.057 0-.142-.016-.279-.047-.412-.023-.084-.068-.168-.13-.236-.041-.049-.094-.088-.153-.114-.067-.027-.141-.041-.218-.041-.006 0-.012 0-.018 0h-1.031v.376h1.044c.006-.002.013-.003.02-.003s.014.001.02.003l.043.028c.03.033.052.073.064.118.019.077.029.164.029.253 0 .016 0 .032-.001.047v1.538h.376v-1.508zm-1.756-.06c-.011-.106-.031-.202-.059-.295-.021-.068-.051-.137-.088-.202-.032-.055-.072-.106-.118-.151-.058-.057-.131-.099-.213-.119-.084-.021-.176-.033-.27-.033-.006 0-.012 0-.018 0h-1.163v.908c-.002.029-.003.064-.003.098s.001.069.003.103c.005.047.022.093.048.133.026.035.063.063.106.078.051.018.109.029.168.029h.014.463v-.352h-.324c-.002 0-.003 0-.005 0-.031 0-.06-.014-.079-.036-.016-.034-.025-.074-.025-.117 0-.01.001-.019.001-.029v-.447h.8c.02-.002.043-.004.066-.004s.046.001.069.004c.035.009.067.027.093.052.023.024.043.052.059.082.024.044.042.092.052.143.015.065.026.139.032.214v.31s0 .228 0 .312c-.005.08-.013.152-.026.224-.007.039-.022.085-.044.127-.016.03-.037.058-.063.081-.057.041-.128.065-.205.065-.009 0-.019 0-.028-.001h-1.199v.376h1.2.018c.084 0 .164-.013.24-.038.07-.028.134-.071.186-.126.107-.108.188-.243.231-.394.051-.177.079-.373.079-.576 0-.025 0-.05-.001-.075.004-.056.006-.126.006-.196s-.002-.14-.006-.21zm-2.324-.852h-.376v2.376h.372zm-.612 2.344-.672-.928c.105-.077.196-.166.274-.265.067-.088.121-.186.16-.291.04-.109.067-.228.078-.35q0-.194 0-.434v-.08h-.4v.092.34c-.003.107-.013.209-.03.309-.014.083-.042.169-.081.249-.039.078-.093.149-.157.21l-.912-1.2h-.452v.028l.58.776c-.109.086-.2.188-.273.303-.067.107-.121.225-.16.35-.039.127-.066.263-.078.404q-.001.211-.001.407v.096h.4v-.028q0-.188 0-.376c.006-.131.021-.253.043-.373.017-.098.049-.202.093-.299.036-.082.094-.158.168-.215l.985 1.351h.444v-.032zm-3.924-1.344h-.376v1.376h.376zm1.496-.14c.001-.017.001-.037.001-.057 0-.142-.016-.279-.047-.412-.023-.084-.069-.167-.13-.236-.041-.049-.094-.088-.153-.114-.067-.027-.141-.041-.218-.041-.006 0-.012 0-.018 0h-1.307v.376h1.332.003c.03 0 .058.009.081.024.03.033.051.076.059.122.016.079.025.167.025.258 0 .015 0 .031-.001.046v1.546h.376zm-3.096 1.484-.668-.88c.105-.077.196-.166.274-.265.067-.088.121-.186.16-.291.04-.109.067-.228.078-.35q0-.194 0-.434v-.08h-.4v.092.34c-.003.107-.013.209-.03.309-.015.083-.042.169-.081.249-.04.078-.093.149-.157.21l-.912-1.2h-.452v.028l.58.776c-.109.086-.2.188-.273.303-.067.107-.121.225-.16.35-.039.127-.066.263-.078.404q-.001.211-.001.407v.096h.4v-.076q0-.188 0-.376c.007-.131.021-.254.043-.374.017-.098.049-.202.093-.299.036-.082.094-.157.168-.215l.985 1.351h.444v-.032zm-2.972-.708c-.01.117-.06.222-.136.3-.088.071-.201.114-.324.114-.018 0-.036-.001-.054-.003h-.122c-.017.002-.036.003-.056.003-.111 0-.212-.037-.293-.1-.061-.067-.099-.156-.103-.255l-.128-1.333h1.364zm.54-1.636h-2.148c-.005-.003-.01-.004-.016-.004s-.011.002-.016.004c-.001.005-.001.01-.001.016s.001.011.002.017l.176 1.631c.011.134.042.257.091.372.036.082.094.158.168.215.074.055.162.094.257.112.099.019.209.029.321.029h.032.098.013c.114 0 .224-.019.326-.054.098-.034.188-.087.266-.155.079-.073.145-.16.193-.258.055-.113.092-.239.106-.372l.184-1.521c0-.036 0-.052-.04-.052zm-2.452.84c.001-.017.001-.038.001-.058 0-.141-.016-.278-.047-.41-.022-.084-.068-.168-.13-.236-.042-.049-.094-.088-.153-.114-.067-.027-.141-.041-.219-.041-.006 0-.011 0-.017 0h-1.311v1.792.009c0 .064-.028.123-.072.163-.048.04-.111.065-.179.065-.006 0-.012 0-.018-.001-.018.002-.039.004-.061.004s-.043-.001-.065-.004l-.081-.024v.372c.034.013.073.023.113.028h.115c.01.001.022.001.035.001.162 0 .31-.061.422-.161.104-.109.169-.258.169-.422 0-.016-.001-.032-.002-.047v-1.334h.956c.028 0 .055.009.076.024.03.034.053.076.063.122.019.078.029.166.029.257 0 .016 0 .032-.001.047v1.546h.376v-1.512zm-2.4-.768c.003-.01.005-.021.005-.032s-.002-.022-.005-.033c-.015-.017-.038-.028-.063-.028-.004 0-.009 0-.013.001h-1.096v.376h.76l-.172 1.304c0 .137-.066.259-.167.335-.098.056-.213.089-.337.089-.01 0-.02 0-.03-.001h-.083c-.01.001-.023.001-.035.001-.102 0-.196-.03-.275-.082-.072-.072-.118-.173-.118-.285 0-.001 0-.002 0-.002l-.156-1.672h-.4l.176 1.68c.01.135.041.26.091.375.038.083.097.158.172.216.073.055.16.094.253.112.095.019.2.029.307.029h.022.043c.015.001.033.001.05.001.223 0 .429-.073.596-.195.17-.152.281-.371.293-.616l.176-1.41c.001-.014.002-.031.002-.048s-.001-.034-.002-.05zm-2.52-.028h-.376v1.364h.376zm-.8.86c.001-.017.001-.038.001-.058 0-.141-.016-.278-.047-.41-.022-.084-.068-.168-.13-.236-.042-.049-.094-.088-.153-.114-.067-.027-.141-.041-.219-.041-.006 0-.011 0-.017 0h-1.311v1.792.009c0 .064-.028.123-.072.163-.048.04-.111.065-.179.065-.006 0-.012 0-.018-.001-.018.002-.039.004-.061.004s-.043-.001-.065-.004l-.081-.024v.372c.034.013.073.023.113.028h.115c.01.001.022.001.035.001.162 0 .31-.061.422-.161.104-.109.169-.258.169-.422 0-.016-.001-.032-.002-.047v-1.398h.956c.028 0 .055.009.076.024.03.034.053.076.063.122.019.078.029.166.029.257 0 .016 0 .032-.001.047v1.546h.376v-1.512z" fill="#1c4969"/></symbol><symbol id="icon-cross" viewBox="0 0 32 32"><path d="m31.708 25.708v0l-9.708-9.708 9.708-9.708v0c .105-.105.18-.227.229-.357.133-.356.057-.771-.229-1.057l-4.586-4.586c-.286-.286-.702-.361-1.057-.229-.13.048-.252.124-.357.228v0l-9.708 9.708-9.708-9.708v0c-.105-.104-.227-.18-.357-.228-.356-.133-.771-.057-1.057.229l-4.586 4.586c-.286.286-.361.702-.229 1.057.049.13.124.252.229.357v0l9.708 9.708-9.708 9.708v0c-.104.105-.18.227-.229.357-.133.355-.057.771.229 1.057l4.586 4.586c.286.286.702.361 1.057.229.13-.049.252-.124.357-.229v0l9.708-9.708 9.708 9.708v0c .105.105.227.18.357.229.356.133.771.057 1.057-.229l4.586-4.586c.286-.286.362-.702.229-1.057-.049-.13-.124-.252-.229-.357z"/></symbol></defs></svg>