<svg style="position: absolute; width: 0; height: 0; overflow: hidden;" version="1.1" xmlns="http://www.w3.org/2000/svg">
<defs>
<symbol id="icon-balloon" viewBox="0 0 32 32">
<title>balloon</title>
<path fill="#fff" style="fill: var(--color1, #fff)" d="M16 31.647c-8.642 0-15.647-7.005-15.647-15.647s7.005-15.647 15.647-15.647c8.642 0 15.647 7.005 15.647 15.647-0.011 8.637-7.010 15.636-15.646 15.647z"></path>
<path fill="#001f7d" style="fill: var(--color2, #001f7d)" d="M16 0.706c8.447 0 15.294 6.847 15.294 15.294s-6.847 15.294-15.294 15.294c-8.447 0-15.294-6.847-15.294-15.294s6.847-15.294 15.294-15.294zM16 0c-8.837 0-16 7.163-16 16s7.163 16 16 16c8.837 0 16-7.163 16-16-0.011-8.832-7.168-15.989-15.999-16z"></path>
<path fill="#fff" style="fill: var(--color1, #fff)" d="M15.266 9.659c0.799-0.491 1.491-1.005 2.134-1.574 1.189-1.026 3.184-2 3.911-1.203s-1.56 2.367-2.769 2.687c-0.781 0.207-1.325 0.038-1.922 0.125s-2.245 0.36-1.353-0.035z"></path>
<path fill="#001f7d" style="fill: var(--color2, #001f7d)" d="M15.181 9.984c-0.207 0-0.264-0.042-0.287-0.12-0.040-0.136 0.12-0.221 0.318-0.308 0.79-0.491 1.475-1.004 2.112-1.569 1.191-1.026 3.26-2.087 4.074-1.193 0.102 0.112 0.164 0.261 0.164 0.425 0 0.076-0.014 0.149-0.038 0.217-0.257 0.873-1.97 1.981-2.954 2.24-0.29 0.073-0.623 0.115-0.965 0.115-0.097 0-0.194-0.003-0.29-0.010-0.057-0.004-0.139-0.006-0.222-0.006-0.166 0-0.33 0.010-0.491 0.030l-0.176 0.026c-0.353 0.069-0.78 0.123-1.214 0.151zM20.534 6.704c-0.885 0-2.207 0.739-3.073 1.485-0.623 0.547-1.31 1.059-2.037 1.514 0.249 0.013 0.731-0.060 0.981-0.098l0.198-0.028c0.15-0.019 0.325-0.030 0.501-0.030 0.082 0 0.163 0.002 0.244 0.007 0.070 0.006 0.164 0.009 0.26 0.009 0.321 0 0.634-0.040 0.932-0.114 0.99-0.26 2.543-1.338 2.762-2.077 0.017-0.043 0.027-0.093 0.027-0.145 0-0.103-0.039-0.197-0.103-0.268-0.161-0.16-0.383-0.258-0.629-0.258-0.022 0-0.044 0.001-0.066 0.002z"></path>
<path fill="#fff" style="fill: var(--color1, #fff)" d="M13.518 18.442l-0.080 0.024-0.078 0.021-0.155 0.038c-0.104 0.024-0.207 0.042-0.313 0.061-0.209 0.035-0.421 0.064-0.635 0.085l-0.322 0.026c-0.025 0.004-0.054 0.006-0.084 0.006s-0.058-0.002-0.087-0.006c-0.056 0-0.114-0.028-0.173-0.044-0.050-0.016-0.109-0.028-0.17-0.035-0.018-0.002-0.034-0.003-0.049-0.003-0.041 0-0.080 0.005-0.118 0.015l-0.307 0.070c-0.209 0.045-0.419 0.087-0.642 0.118l-0.172 0.019-0.169 0.012c-0.113 0-0.235 0-0.346 0-0.254-0.008-0.496-0.045-0.727-0.109s-0.453-0.16-0.657-0.282c-0.103-0.061-0.201-0.126-0.294-0.196-0.086-0.065-0.176-0.14-0.261-0.23s-0.165-0.16-0.235-0.235-0.151-0.169-0.219-0.256c-0.249-0.319-0.483-0.677-0.686-1.054-0.201-0.364-0.383-0.751-0.539-1.152-0.1-0.268-0.171-0.475-0.229-0.691-0.031-0.111-0.056-0.221-0.080-0.346-0.020-0.104-0.035-0.228-0.042-0.355-0.006-0.067-0.009-0.135-0.009-0.204s0.003-0.138 0.009-0.205c0.021-0.14 0.053-0.273 0.096-0.4 0.035-0.113 0.071-0.245 0.113-0.377 0.044-0.141 0.104-0.263 0.18-0.374 0.038-0.053 0.079-0.104 0.123-0.152l0.065-0.072 0.068-0.068c0.086-0.081 0.179-0.158 0.276-0.229 0.185-0.138 0.385-0.262 0.595-0.367 0.126-0.062 0.23-0.111 0.333-0.156l0.311-0.134 0.689-0.285c0.027-0.011 0.051-0.023 0.073-0.036 0.047-0.029 0.090-0.064 0.127-0.104l0.059-0.066 0.059-0.068c0.037-0.043 0.078-0.081 0.123-0.114 0.043-0.029 0.089-0.051 0.139-0.066l0.15-0.053 0.289-0.104c0.774-0.275 1.548-0.541 2.329-0.788q0.586-0.188 1.176-0.362c0.393-0.115 0.788-0.235 1.176-0.327v0c0.041-0.006 0.089-0.010 0.138-0.010 0.52 0 0.941 0.421 0.941 0.941 0 0.357-0.198 0.667-0.491 0.827-0.388 0.155-0.774 0.292-1.165 0.428s-0.779 0.264-1.176 0.386c-0.784 0.249-1.574 0.471-2.367 0.706l-0.447 0.12c-0.046 0.015-0.098 0.025-0.152 0.026-0.061-0.001-0.119-0.009-0.175-0.025l-0.169-0.041c-0.040-0.009-0.086-0.015-0.133-0.015-0.011 0-0.022 0-0.033 0.001l-0.074-0-0.071 0.016c-0.212 0.048-0.394 0.104-0.569 0.174-0.061 0.026-0.146 0.062-0.228 0.102s-0.162 0.082-0.235 0.127c-0.168 0.096-0.309 0.189-0.444 0.29-0.055 0.041-0.118 0.091-0.177 0.14l-0.085 0.075-0.080 0.075c-0.054 0.049-0.118 0.089-0.176 0.134-0.060 0.043-0.109 0.098-0.142 0.162-0.050 0.123-0.079 0.262-0.079 0.408 0 0.006 0 0.013 0 0.019 0.001 0.088 0.008 0.174 0.020 0.259-0.001 0.067 0.025 0.156 0.046 0.246 0.042 0.181 0.094 0.367 0.155 0.551 0.143 0.427 0.293 0.784 0.466 1.128 0.065 0.127 0.159 0.296 0.258 0.461 0.11 0.181 0.217 0.335 0.331 0.482 0.048 0.064 0.107 0.135 0.168 0.203s0.125 0.134 0.188 0.195c0.062 0.058 0.128 0.114 0.196 0.167 0.068 0.052 0.139 0.099 0.212 0.142 0.293 0.176 0.633 0.276 0.998 0.276 0 0 0.001 0 0.001 0q0.134 0 0.271 0l0.136-0.014h0.136c0.089-0.014 0.186-0.035 0.28-0.056l0.285-0.071 0.287-0.078c0.052-0.015 0.098-0.039 0.138-0.069 0.044-0.035 0.084-0.073 0.12-0.116 0.041-0.046 0.079-0.091 0.121-0.131 0.037-0.037 0.079-0.069 0.124-0.095l0.271-0.152c0.179-0.099 0.358-0.195 0.539-0.287l0.273-0.132 0.136-0.061 0.068-0.028 0.066-0.028c0.065-0.016 0.14-0.025 0.217-0.025 0.52 0 0.941 0.421 0.941 0.941 0 0.35-0.192 0.656-0.476 0.818l-0.052 0.019z"></path>
<path fill="#001f7d" style="fill: var(--color2, #001f7d)" d="M9.744 18.962h-0.127c-0.263-0.007-0.514-0.045-0.754-0.111-0.246-0.066-0.481-0.166-0.697-0.294-0.101-0.065-0.199-0.135-0.292-0.209-0.090-0.068-0.182-0.146-0.271-0.23s-0.172-0.165-0.249-0.252-0.155-0.174-0.235-0.264c-0.256-0.324-0.496-0.687-0.705-1.070-0.203-0.363-0.387-0.75-0.545-1.151-0.108-0.29-0.178-0.497-0.235-0.701-0.026-0.099-0.059-0.219-0.082-0.358-0.020-0.109-0.035-0.239-0.042-0.372-0.002-0.038-0.003-0.073-0.003-0.109 0-0.11 0.008-0.218 0.022-0.324 0.021-0.144 0.055-0.283 0.1-0.416l0.035-0.12c0.026-0.085 0.049-0.172 0.078-0.256 0.048-0.152 0.112-0.285 0.194-0.405 0.039-0.053 0.080-0.105 0.125-0.154l0.072-0.079 0.080-0.087c0.090-0.080 0.187-0.158 0.289-0.229 0.192-0.143 0.398-0.271 0.615-0.379 0.129-0.062 0.233-0.114 0.339-0.161l0.311-0.144 0.616-0.264 0.078-0.031 0.054-0.026c0.039-0.024 0.073-0.052 0.103-0.084l0.057-0.062 0.059-0.068c0.043-0.052 0.092-0.097 0.146-0.135 0.051-0.036 0.107-0.063 0.167-0.083l0.437-0.157c0.859-0.306 1.624-0.565 2.334-0.791q0.586-0.188 1.176-0.362c0.351-0.104 0.765-0.221 1.191-0.327 0.096-0.032 0.206-0.050 0.32-0.050 0.581 0 1.052 0.471 1.052 1.052 0 0.467-0.304 0.863-0.725 1-0.422 0.167-0.829 0.31-1.172 0.428-0.414 0.144-0.8 0.271-1.176 0.388-0.734 0.235-1.508 0.471-2.372 0.706l-0.447 0.12c-0.055 0.019-0.118 0.031-0.184 0.031-0.001 0-0.001 0-0.002 0-0.071-0.001-0.139-0.011-0.203-0.030l-0.082-0.020-0.082-0.019c-0.020-0.003-0.043-0.005-0.067-0.005s-0.047 0.002-0.070 0.005l-0.054-0-0.073 0.016c-0.206 0.047-0.382 0.102-0.552 0.169-0.057 0.024-0.142 0.059-0.21 0.1s-0.158 0.080-0.235 0.122c-0.163 0.094-0.301 0.185-0.432 0.283q-0.085 0.063-0.17 0.136l-0.118 0.106-0.047 0.045c-0.040 0.035-0.082 0.066-0.127 0.099l-0.056 0.042c-0.044 0.031-0.080 0.071-0.105 0.118-0.043 0.107-0.067 0.229-0.067 0.356 0 0.007 0 0.014 0 0.021 0.001 0.082 0.006 0.164 0.018 0.244-0.001 0.063 0.025 0.148 0.044 0.226 0.038 0.167 0.089 0.351 0.153 0.539 0.139 0.424 0.286 0.779 0.457 1.12 0.061 0.119 0.153 0.287 0.254 0.454 0.108 0.182 0.212 0.335 0.324 0.482 0.048 0.061 0.104 0.132 0.163 0.198s0.12 0.127 0.181 0.188c0.059 0.055 0.122 0.108 0.187 0.158 0.064 0.048 0.13 0.092 0.198 0.133 0.26 0.143 0.558 0.223 0.875 0.223 0.023 0 0.047-0 0.070-0.001 0.081 0 0.168 0 0.255 0l0.132-0.014h0.129c0.089-0.014 0.184-0.035 0.275-0.054l0.28-0.068 0.278-0.099c0.038-0.011 0.071-0.028 0.1-0.050 0.039-0.030 0.073-0.063 0.104-0.1l0.020-0.022c0.035-0.040 0.071-0.080 0.106-0.113 0.044-0.043 0.093-0.080 0.147-0.111l0.062-0.035 0.209-0.118c0.179-0.101 0.36-0.198 0.544-0.289l0.275-0.134 0.139-0.064 0.139-0.059c0.124-0.054 0.268-0.086 0.419-0.086 0.589 0 1.066 0.477 1.066 1.066 0 0.462-0.294 0.856-0.706 1.003l-0.062 0.021-0.172 0.049-0.16 0.038c-0.106 0.024-0.212 0.042-0.318 0.061-0.202 0.035-0.419 0.064-0.645 0.087l-0.322 0.031c-0.030 0.004-0.064 0.007-0.099 0.007s-0.069-0.002-0.103-0.007c-0.061-0.012-0.115-0.026-0.168-0.043l-0.014 0.003c-0.043-0.014-0.094-0.024-0.147-0.030-0.022-0.003-0.043-0.005-0.065-0.005s-0.043 0.002-0.063 0.005l-0.311 0.073c-0.188 0.040-0.414 0.087-0.652 0.12l-0.176 0.019h-0.172zM14.449 8.913c-0.001 0-0.002 0-0.002 0-0.069 0-0.137 0.009-0.201 0.025-0.418 0.105-0.83 0.222-1.171 0.323q-0.588 0.174-1.176 0.36c-0.706 0.235-1.471 0.482-2.327 0.788l-0.435 0.155c-0.043 0.013-0.080 0.030-0.115 0.053-0.037 0.027-0.071 0.059-0.101 0.095l-0.060 0.069-0.064 0.071c-0.044 0.048-0.095 0.089-0.15 0.123-0.028 0.017-0.056 0.031-0.086 0.043l-0.091 0.041-0.614 0.235-0.308 0.132c-0.104 0.045-0.205 0.094-0.306 0.144-0.226 0.112-0.419 0.232-0.601 0.367-0.091 0.069-0.18 0.146-0.263 0.229l-0.066 0.066-0.064 0.068c-0.039 0.043-0.077 0.090-0.112 0.139-0.069 0.102-0.125 0.214-0.163 0.334-0.031 0.092-0.054 0.176-0.078 0.259l-0.040 0.139c-0.037 0.106-0.067 0.232-0.086 0.363-0.013 0.095-0.020 0.192-0.020 0.29 0 0.033 0.001 0.066 0.002 0.098 0.007 0.124 0.021 0.244 0.042 0.361 0.022 0.119 0.049 0.233 0.081 0.344 0.048 0.173 0.116 0.373 0.199 0.59 0.176 0.46 0.356 0.842 0.559 1.209 0.198 0.362 0.432 0.714 0.693 1.044 0.056 0.072 0.127 0.154 0.202 0.236s0.153 0.16 0.235 0.235 0.169 0.148 0.261 0.216c0.082 0.062 0.175 0.124 0.271 0.181 0.195 0.122 0.404 0.218 0.626 0.285 0.22 0.061 0.452 0.097 0.692 0.104 0.117 0 0.239 0 0.341 0h0.165l0.167-0.019c0.235-0.031 0.44-0.073 0.633-0.115l0.308-0.071c0.042-0.011 0.091-0.017 0.141-0.017 0.020 0 0.040 0.001 0.059 0.003 0.070 0.008 0.137 0.022 0.2 0.042l0.018-0.002c0.047 0.012 0.094 0.026 0.139 0.033 0.021 0.003 0.045 0.005 0.069 0.005s0.049-0.002 0.072-0.005l0.317-0.026c0.219-0.021 0.431-0.049 0.626-0.082 0.104-0.019 0.205-0.038 0.306-0.059l0.151-0.035 0.155-0.045 0.042-0.016c0.287-0.135 0.482-0.422 0.482-0.754 0-0.459-0.372-0.831-0.831-0.831-0.084 0-0.165 0.012-0.241 0.035l-0.124 0.053-0.134 0.061-0.268 0.132q-0.268 0.136-0.534 0.285l-0.207 0.115-0.061 0.035c-0.039 0.022-0.073 0.048-0.104 0.078-0.033 0.030-0.063 0.066-0.094 0.099l-0.021 0.024c-0.043 0.049-0.089 0.093-0.139 0.133-0.052 0.038-0.11 0.067-0.172 0.085l-0.293 0.081-0.289 0.071c-0.099 0.021-0.195 0.042-0.287 0.056h-0.141l-0.139 0.014c-0.096 0-0.188 0.012-0.28 0-0.007 0-0.014 0-0.022 0-0.374 0-0.724-0.1-1.026-0.274-0.081-0.046-0.158-0.096-0.232-0.15-0.072-0.055-0.141-0.114-0.207-0.176q-0.1-0.095-0.194-0.201c-0.064-0.073-0.125-0.146-0.184-0.221-0.108-0.14-0.217-0.298-0.317-0.462-0.116-0.195-0.213-0.369-0.298-0.54-0.154-0.3-0.307-0.663-0.434-1.037-0.083-0.257-0.138-0.445-0.178-0.62-0.021-0.094-0.040-0.188-0.049-0.268-0.011-0.079-0.018-0.17-0.019-0.263-0-0.007-0-0.014-0-0.021 0-0.162 0.032-0.317 0.090-0.459 0.040-0.079 0.101-0.151 0.177-0.205l0.068-0.015c0.042-0.029 0.078-0.057 0.112-0.086l0.165-0.151q0.092-0.078 0.193-0.155c0.128-0.096 0.273-0.193 0.424-0.28 0.099-0.058 0.183-0.101 0.268-0.141s0.174-0.080 0.264-0.115c0.155-0.063 0.343-0.122 0.536-0.167l0.097-0.022c0.027-0.007 0.059-0.012 0.092-0.014 0.016-0.001 0.032-0.002 0.048-0.002 0.054 0 0.106 0.006 0.156 0.016l0.089 0.020 0.087 0.021c0.041 0.013 0.089 0.020 0.138 0.021 0.044-0.001 0.085-0.009 0.123-0.022l0.437-0.1c0.859-0.235 1.631-0.471 2.353-0.706 0.374-0.118 0.755-0.235 1.176-0.386 0.341-0.118 0.744-0.261 1.153-0.424 0.304-0.123 0.514-0.415 0.514-0.757 0-0.294-0.156-0.552-0.39-0.695-0.122-0.075-0.266-0.119-0.42-0.12z"></path>
<path fill="#001f7d" style="fill: var(--color2, #001f7d)" d="M26.367 18.115c0 4.030-3.267 7.296-7.296 7.296s-7.296-3.267-7.296-7.296c0-4.030 3.267-7.296 7.296-7.296s7.296 3.267 7.296 7.296z"></path>
</symbol>
<symbol id="icon-eating" viewBox="0 0 32 32">
<title>eating</title>
<path fill="#fff" style="fill: var(--color1, #fff)" d="M16 31.647c-8.642 0-15.647-7.005-15.647-15.647s7.005-15.647 15.647-15.647c8.642 0 15.647 7.005 15.647 15.647-0.011 8.637-7.010 15.636-15.646 15.647z"></path>
<path fill="#001f7d" style="fill: var(--color2, #001f7d)" d="M16 0.706c8.447 0 15.294 6.847 15.294 15.294s-6.847 15.294-15.294 15.294c-8.447 0-15.294-6.847-15.294-15.294s6.847-15.294 15.294-15.294zM16 0c-8.837 0-16 7.163-16 16s7.163 16 16 16c8.837 0 16-7.163 16-16-0.011-8.832-7.168-15.989-15.999-16z"></path>
<path fill="#001f7d" style="fill: var(--color2, #001f7d)" d="M17.052 6.195c0 1.212-0.983 2.195-2.195 2.195s-2.195-0.983-2.195-2.195c0-1.212 0.983-2.195 2.195-2.195s2.195 0.983 2.195 2.195z"></path>
<path fill="#001f7d" style="fill: var(--color2, #001f7d)" d="M7.322 11.704l-1.054 0.2c0.407 2.029 0.64 4.361 0.64 6.748 0 2.223-0.202 4.398-0.588 6.51l1.123-0.22c0.078-0.454 0.146-0.911 0.207-1.365h4v1.365h1.056v-3.765h0.235v-1.078h-4.995c0.019-0.441 0.030-0.959 0.030-1.479 0-2.446-0.238-4.837-0.691-7.15zM11.633 21.176v1.821h-3.918q0.108-0.908 0.172-1.821z"></path>
<path fill="#001f7d" style="fill: var(--color2, #001f7d)" d="M17.478 16.344c0.016-0.162 0.024-0.327 0.024-0.494-0-0.131-0.010-0.259-0.028-0.384 0.865 0.128 1.682 0.142 2.381 0.523 1.28 0.706 2.416 8 1.052 8.499-1.527 0.565-1.268-0.184-1.918 0.689h5.835c-0.649-0.873-0.391-0.125-1.918-0.689-1.365-0.504-0.235-7.8 1.052-8.499s2.948-0.162 4.598-1.264h-11.266c-0.257-0.701-0.565-1.306-0.934-1.867-0.443 0.187-0.976 0.275-1.531 0.275-0.087 0-0.173-0.002-0.258-0.006-1.362-0.096-2.43-0.357-2.849-0.705-0.328-0.276-0.536-0.688-0.536-1.147 0-0.057 0.003-0.113 0.009-0.168 0.011-0.28 0.107-0.542 0.263-0.757 0.248-0.316 0.635-0.52 1.069-0.52 0.289 0 0.557 0.090 0.778 0.245l-0.004-0.003c0.261 0.169 1.026 0.616 1.438 0.645 0.065 0.004 0.14 0.006 0.216 0.006s0.152-0.002 0.227-0.006c-0.368-1.011-1.119-1.762-2.627-1.84-4.181-0.212-4.2 6.353-4.193 8.235-0.001 0.019-0.001 0.042-0.001 0.064 0 0.823 0.524 1.523 1.256 1.786 0.277 0.217 0.616 0.345 0.984 0.345 0.001 0 0.002 0 0.003 0h4.459l-0.536 4.012c-0.009 0.063-0.014 0.136-0.014 0.209 0 0.788 0.584 1.439 1.342 1.545 0.072 0.010 0.145 0.015 0.219 0.015 0 0 0.001 0 0.001 0 0.787-0.001 1.437-0.585 1.543-1.342l0.782-5.764c0.010-0.066 0.015-0.142 0.015-0.219 0-0.635-0.38-1.182-0.926-1.424z"></path>
<path fill="#001f7d" style="fill: var(--color2, #001f7d)" d="M17.718 7.934l3.694 1.779c0.066-0.117 0.106-0.258 0.106-0.407 0-0.311-0.17-0.583-0.422-0.727l-2.289-1.103c-0.093-0.039-0.201-0.061-0.314-0.061-0.348 0-0.647 0.212-0.773 0.514z"></path>
<path fill="#001f7d" style="fill: var(--color2, #001f7d)" d="M20.111 10.306v0c-0.020 0.279-0.144 0.526-0.334 0.705l0.112 0.055c0.092 0.038 0.2 0.060 0.312 0.060 0.348 0 0.646-0.212 0.773-0.514l-0.864-0.422c0.001 0.017 0.002 0.037 0.002 0.058s-0.001 0.040-0.002 0.060z"></path>
<path fill="#001f7d" style="fill: var(--color2, #001f7d)" d="M18.405 9.369l-1.12-0.539c-0.066 0.117-0.105 0.258-0.105 0.407 0 0.297 0.154 0.558 0.386 0.708 0.312-0.187 0.575-0.371 0.825-0.569z"></path>
<path fill="#001f7d" style="fill: var(--color2, #001f7d)" d="M19.882 9.569c0.080 0.101 0.142 0.219 0.182 0.348l1.037 0.506c0.026 0.009 0.057 0.014 0.088 0.014 0.153 0 0.278-0.124 0.278-0.278 0-0.099-0.052-0.186-0.13-0.235l-3.775-1.819c-0.026-0.009-0.057-0.014-0.088-0.014-0.153 0-0.278 0.124-0.278 0.278 0 0.099 0.052 0.186 0.13 0.235l1.319 0.636c0.117-0.048 0.254-0.076 0.397-0.076 0.34 0 0.642 0.157 0.839 0.403z"></path>
<path fill="#001f7d" style="fill: var(--color2, #001f7d)" d="M25.473 14.348l0.341-2.889h-1.951l0.341 2.889h1.268z"></path>
<path fill="#001f7d" style="fill: var(--color2, #001f7d)" d="M24.515 10.788h-0.812v0.513h2.268v-0.513h-1.155l-0.195-0.814-1.038-0.835-0.184 0.228 0.96 0.772 0.155 0.649z"></path>
<path fill="#001f7d" style="fill: var(--color2, #001f7d)" d="M21.341 12.506l-0.198 0.129 0.398 0.619h-0.195l-0.694-0.838-0.181 0.151 0.569 0.687h-0.047l-0.988-0.68-0.134 0.195 0.706 0.485h-0.456l-0.466-0.487-0.169 0.165 0.308 0.322h-0.273l0.682 1.134h2.24l0.682-1.134h-0.402l0.471-0.52-0.174-0.158-0.616 0.678h-0.075l0.275-0.678-0.216-0.089-0.313 0.767h-0.106l0.174-0.736-0.228-0.054-0.162 0.678-0.409-0.635z"></path>
<path fill="#001f7d" style="fill: var(--color2, #001f7d)" d="M13.198 10.247h-0.012c-0.185-0.132-0.416-0.211-0.666-0.211-0.37 0-0.699 0.173-0.911 0.443-0.371 0.492-0.277 1.428 0.233 1.788v0c0.296 0.235 1.176 0.546 2.755 0.656 1.341 0.096 3.129-0.525 4.988-1.998 0.204-0.162 0.334-0.411 0.334-0.689 0-0.485-0.393-0.878-0.878-0.878-0.206 0-0.396 0.071-0.545 0.19-1.568 1.225-2.822 1.434-3.763 1.377-0.553-0.042-1.52-0.671-1.536-0.68z"></path>
</symbol>
<symbol id="icon-heart" viewBox="0 0 32 32">
<title>heart</title>
<path fill="#fff" style="fill: var(--color1, #fff)" d="M16 31.647c-8.642 0-15.647-7.005-15.647-15.647s7.005-15.647 15.647-15.647c8.642 0 15.647 7.005 15.647 15.647-0.011 8.637-7.010 15.636-15.646 15.647z"></path>
<path fill="#001f7d" style="fill: var(--color2, #001f7d)" d="M16 0.706c8.447 0 15.294 6.847 15.294 15.294s-6.847 15.294-15.294 15.294c-8.447 0-15.294-6.847-15.294-15.294s6.847-15.294 15.294-15.294zM16 0c-8.837 0-16 7.163-16 16s7.163 16 16 16c8.837 0 16-7.163 16-16-0.011-8.832-7.168-15.989-15.999-16z"></path>
<path fill="#001f7d" style="fill: var(--color2, #001f7d)" d="M8.311 13.089c0.412-0.135 0.885-0.213 1.377-0.213 0.271 0 0.536 0.024 0.794 0.069-1.992-2.696-5.051-4.147-5.249-4.239l-0.729 1.569c1.472 0.75 2.729 1.69 3.802 2.809z"></path>
<path fill="#001f7d" style="fill: var(--color2, #001f7d)" d="M14.247 13.572c0.222-0.052 0.476-0.082 0.737-0.082 0.458 0 0.894 0.091 1.292 0.257-0.597-1.537-1.713-2.751-3.131-3.439l-0.674 1.586c0.75 0.382 1.355 0.956 1.766 1.658z"></path>
<path fill="#001f7d" style="fill: var(--color2, #001f7d)" d="M10 11.927c0.128-0.107 0.275-0.198 0.433-0.268l-0.005-0.005-0.536-1.647c-0.437 0.167-0.812 0.401-1.132 0.694 0.446 0.386 0.851 0.787 1.228 1.212z"></path>
<path fill="#001f7d" style="fill: var(--color2, #001f7d)" d="M7.362 12.567c-0.18 0.354-0.352 0.776-0.489 1.212 0.266-0.159 0.587-0.352 0.931-0.504 0.088-0.037 0.147-0.059 0.206-0.080-0.212-0.224-0.428-0.433-0.647-0.628z"></path>
<path fill="#001f7d" style="fill: var(--color2, #001f7d)" d="M17.701 18.588c0.262-0.451 0.416-0.992 0.416-1.57 0-0.459-0.098-0.896-0.274-1.29-0.471-1.111-1.572-1.89-2.855-1.89-0.429 0-0.837 0.087-1.209 0.244-0.1 0.045-0.199 0.096-0.294 0.153 1.981 4.082 0.604 9.602 0.604 9.602 0.102-0.67 0.16-1.444 0.16-2.231 0-1.622-0.247-3.185-0.705-4.656-1.389 1.927-3.777 3.050-3.777 3.050 1.824-1.009 3.089-2.791 3.591-3.584-0.311-0.867-0.666-1.609-1.084-2.308-0.693-0.541-1.632-0.904-2.656-0.904-2.339 0-4.235 1.896-4.235 4.235 0 1.549 0.831 2.903 2.072 3.642-0.133 2.157 0.923 5.251 7.598 6.561 0 0 4.621 1.864 2.652-9.054z"></path>
<path fill="#001f7d" style="fill: var(--color2, #001f7d)" d="M27.496 16.259l-3.398-3.296 2.614-4.045-4.816-0.021-0.906-4.661-3.409 3.409-4.169-2.781 0.645 4.132 0.24-2.539 3.449 2.431 2.586-2.579 0.812 3.565 3.915 0.028-2.162 3.289 2.769 2.551-3.847 0.746 0.205 4.214-2.369-1.214 3.176 2.739-0.028-4.934 4.694-1.033z"></path>
<path fill="#001f7d" style="fill: var(--color2, #001f7d)" d="M17.805 14.967c0.666-0.941 2.588-1.715 2.649-1.736l-0.654-1.6c-0.075 0.031-2.391 0.887-3.311 2.214 0.534 0.267 0.976 0.647 1.308 1.112z"></path>
</symbol>
<symbol id="icon-fat" viewBox="0 0 32 32">
<title>fat</title>
<path fill="#fff" style="fill: var(--color1, #fff)" d="M16 31.647c-8.642 0-15.647-7.005-15.647-15.647s7.005-15.647 15.647-15.647c8.642 0 15.647 7.005 15.647 15.647-0.011 8.637-7.010 15.636-15.646 15.647z"></path>
<path fill="#001f7d" style="fill: var(--color2, #001f7d)" d="M16 0.706c8.447 0 15.294 6.847 15.294 15.294s-6.847 15.294-15.294 15.294c-8.447 0-15.294-6.847-15.294-15.294s6.847-15.294 15.294-15.294zM16 0c-8.837 0-16 7.163-16 16s7.163 16 16 16c8.837 0 16-7.163 16-16-0.011-8.832-7.168-15.989-15.999-16z"></path>
<path fill="#001f7d" style="fill: var(--color2, #001f7d)" d="M23.941 12.085l-4.115-4.115c-0.341-0.148-0.753-0.288-1.178-0.397-0.433 0.986-1.38 1.684-2.489 1.684-1.121 0-2.075-0.712-2.435-1.709-0.604 0.101-1.121 0.249-1.62 0.436l-4.044 4.101c-0.206 0.206-0.333 0.491-0.333 0.806s0.127 0.599 0.333 0.806l0.016 0.016c0.206 0.206 0.491 0.333 0.806 0.333s0.599-0.127 0.806-0.333l0.826-0.826c-0.041 0.241-0.065 0.519-0.066 0.802-0.002 0.043-0.003 0.093-0.003 0.143 0 0.978 0.417 1.859 1.083 2.474l1.296 4.971c0 0.78 0.632 1.412 1.412 1.412h0.028c0.78 0 1.412-0.632 1.412-1.412v-3.666h0.384c0.139 0 0.278 0 0.414 0v3.668c0 0.78 0.632 1.412 1.412 1.412h0.028c0.78 0 1.412-0.632 1.412-1.412l1.266-4.974c0.666-0.617 1.081-1.496 1.081-2.472 0-0.050-0.001-0.1-0.003-0.149-0-0.224-0.017-0.451-0.047-0.673l0.681 0.704c0.206 0.206 0.491 0.333 0.806 0.333s0.599-0.127 0.806-0.333l0.016-0.016c0.21-0.207 0.34-0.495 0.34-0.813 0-0.312-0.125-0.595-0.329-0.801z"></path>
<path fill="#001f7d" style="fill: var(--color2, #001f7d)" d="M20.045 19.68c-0.003-0.094-0.019-0.184-0.047-0.268l-0.28 1.141v5.329c0 0.343-0.278 0.621-0.621 0.621h-6.193c-0.343 0-0.621-0.278-0.621-0.621v-5.929l-0.195-0.751c-0.081 0.135-0.13 0.297-0.132 0.47v6.21c0 0.52 0.421 0.941 0.941 0.941h6.2c0.52 0 0.941-0.421 0.941-0.941z"></path>
<path fill="#001f7d" style="fill: var(--color2, #001f7d)" d="M15.873 18.734h0.414v0.327h-0.414v-0.327z"></path>
<path fill="#001f7d" style="fill: var(--color2, #001f7d)" d="M13.866 23.786v0.031c0.044 0.372 0.159 0.708 0.331 1.008 0.335 0.59 0.973 0.99 1.703 0.99 0.035 0 0.070-0.001 0.104-0.003 0.025 0.002 0.059 0.003 0.094 0.003 0.731 0 1.368-0.4 1.705-0.993 0.171-0.297 0.286-0.633 0.329-0.993l0.001-0.043-0.927-0.654h-2.414zM18.021 23.838c-0.047 0.344-0.154 0.654-0.313 0.933-0.309 0.553-0.904 0.928-1.586 0.928-0.004 0-0.008 0-0.012-0l-0.108-0.188-0.108 0.188c-0.003 0-0.006 0-0.009 0-0.682 0-1.277-0.376-1.588-0.932-0.157-0.275-0.266-0.587-0.311-0.918l0.311-0.232c0 0.042 0 0.087 0 0.129 0 0.947 0.767 1.714 1.714 1.714s1.714-0.767 1.714-1.714c0-0.045 0-0.087 0-0.129zM17.176 23.24l0.261 0.186h-0.066l0.024 0.134 0.169-0.031c0.009 0.062 0.014 0.133 0.014 0.206s-0.005 0.144-0.015 0.214l-0.169-0.039-0.024 0.134 0.169 0.031c-0.033 0.147-0.081 0.276-0.145 0.397l-0.262-0.161-0.068 0.118 0.266 0.153c-0.077 0.12-0.165 0.223-0.265 0.314l-0.112-0.131-0.104 0.087 0.111 0.132c-0.103 0.080-0.221 0.15-0.347 0.203l-0.069-0.158-0.129 0.047 0.059 0.162c-0.121 0.039-0.26 0.065-0.404 0.070l-0.003-0.308h-0.136v0.308c-0.147-0.006-0.287-0.031-0.418-0.074l0.070-0.159-0.129-0.047-0.059 0.162c-0.137-0.057-0.254-0.127-0.361-0.21l0.114-0.129-0.104-0.087-0.111 0.132c-0.101-0.092-0.188-0.196-0.262-0.309l0.262-0.159-0.068-0.118-0.266 0.153c-0.060-0.112-0.108-0.241-0.139-0.378l0.167-0.041-0.024-0.134-0.169 0.031c-0.009-0.062-0.014-0.133-0.014-0.206s0.005-0.144 0.015-0.214l0.168 0.039 0.024-0.134h-0.066l0.261-0.186z"></path>
<path fill="#001f7d" style="fill: var(--color2, #001f7d)" d="M16.48 23.753c0 0.265-0.215 0.48-0.48 0.48s-0.48-0.215-0.48-0.48c0-0.265 0.215-0.48 0.48-0.48s0.48 0.215 0.48 0.48z"></path>
<path fill="#001f7d" style="fill: var(--color2, #001f7d)" d="M16 24.88l0.235-0.409h-0.471l0.235 0.409z"></path>
<path fill="#001f7d" style="fill: var(--color2, #001f7d)" d="M11.18 27.493l0.623-0.528 0.231 0.273-0.623 0.528-0.231-0.273z"></path>
<path fill="#001f7d" style="fill: var(--color2, #001f7d)" d="M10.603 26.355l0.803-0.145 0.064 0.352-0.803 0.145-0.064-0.352z"></path>
<path fill="#001f7d" style="fill: var(--color2, #001f7d)" d="M10.437 25.555l0.050-0.354 0.809 0.113-0.050 0.354-0.809-0.113z"></path>
<path fill="#001f7d" style="fill: var(--color2, #001f7d)" d="M19.997 27.238l0.231-0.273 0.623 0.528-0.231 0.273-0.623-0.528z"></path>
<path fill="#001f7d" style="fill: var(--color2, #001f7d)" d="M20.561 26.563l0.064-0.352 0.803 0.145-0.064 0.352-0.803-0.145z"></path>
<path fill="#001f7d" style="fill: var(--color2, #001f7d)" d="M20.74 25.296l0.813-0.079 0.034 0.356-0.813 0.079-0.034-0.356z"></path>
<path fill="#001f7d" style="fill: var(--color2, #001f7d)" d="M16.151 9.158c-1.392 0-2.52-1.128-2.52-2.52s1.128-2.52 2.52-2.52c1.392 0 2.52 1.128 2.52 2.52-0.001 1.391-1.129 2.519-2.52 2.52z"></path>
<path fill="#fff" style="fill: var(--color1, #fff)" d="M16.151 4.235c1.327 0 2.402 1.076 2.402 2.402s-1.076 2.402-2.402 2.402c-1.327 0-2.402-1.076-2.402-2.402s1.076-2.402 2.402-2.402zM16.151 4c-1.457 0-2.638 1.181-2.638 2.638s1.181 2.638 2.638 2.638c1.457 0 2.638-1.181 2.638-2.638-0.001-1.456-1.181-2.636-2.638-2.638z"></path>
<path fill="#001f7d" style="fill: var(--color2, #001f7d)" d="M17.162 6.4l-0.186-0.186c-0.036-0.035-0.085-0.056-0.139-0.056s-0.103 0.021-0.139 0.056l-0.183 0.186-0.141-0.141 0.186-0.186c0.072-0.071 0.171-0.114 0.28-0.114s0.208 0.044 0.28 0.114l0.186 0.186zM17.558 5.355l-0.186 0.186c-0.035 0.036-0.057 0.085-0.057 0.139s0.022 0.103 0.057 0.139l0.186 0.183-0.141 0.141-0.186-0.186c-0.071-0.072-0.115-0.171-0.115-0.28s0.044-0.208 0.115-0.28l0.186-0.186zM16.506 4.941l0.186 0.186c0.035 0.036 0.085 0.058 0.139 0.058s0.103-0.022 0.139-0.058l0.184-0.186 0.141 0.141-0.186 0.186c-0.072 0.071-0.171 0.115-0.28 0.115s-0.208-0.044-0.28-0.115l-0.186-0.186zM16.294 5.522l-0.186-0.186 0.141-0.141 0.186 0.186c0.071 0.072 0.115 0.171 0.115 0.28s-0.044 0.208-0.115 0.28l-0.186 0.186-0.141-0.141 0.186-0.186c0.032-0.035 0.052-0.082 0.052-0.133s-0.020-0.098-0.052-0.133z"></path>
</symbol>
<symbol id="icon-fatter" viewBox="0 0 32 32">
<title>fatter</title>
<path fill="#fff" style="fill: var(--color1, #fff)" d="M16 31.647c-8.642 0-15.647-7.005-15.647-15.647s7.005-15.647 15.647-15.647c8.642 0 15.647 7.005 15.647 15.647-0.011 8.637-7.010 15.636-15.646 15.647z"></path>
<path fill="#001f7d" style="fill: var(--color2, #001f7d)" d="M16 0.706c8.447 0 15.294 6.847 15.294 15.294s-6.847 15.294-15.294 15.294c-8.447 0-15.294-6.847-15.294-15.294s6.847-15.294 15.294-15.294zM16 0c-8.837 0-16 7.163-16 16s7.163 16 16 16c8.837 0 16-7.163 16-16-0.011-8.832-7.168-15.989-15.999-16z"></path>
<path fill="#001f7d" style="fill: var(--color2, #001f7d)" d="M20.941 9.546c-0.588-0.399-1.272-0.716-2.004-0.916-0.571 1.084-1.669 1.827-2.941 1.827s-2.37-0.743-2.885-1.819c-0.786 0.192-1.467 0.51-2.077 0.923-1.545 1.013-3.27 3.043-4.181 6.742-0.021 0.073-0.032 0.157-0.032 0.244 0 0.52 0.421 0.941 0.941 0.941 0.187 0 0.36-0.054 0.507-0.148 0.212-1.968 1.006-3.721 2.202-5.119-1.186 1.567-1.899 3.529-1.917 5.656-0 4.576 3.555 6.489 7.445 6.489s7.445-1.911 7.445-6.485c-0.017-2.131-0.731-4.092-1.923-5.671 1.203 1.409 1.997 3.162 2.209 5.090 0.146 0.133 0.32 0.188 0.507 0.188 0.52 0 0.941-0.421 0.941-0.941 0-0.087-0.012-0.171-0.034-0.251-0.909-3.695-2.631-5.723-4.203-6.751z"></path>
<path fill="#fff" style="fill: var(--color1, #fff)" d="M16 24.487c-3.656 0-7.562-1.734-7.562-6.602 0.005-0.716 0.091-1.409 0.248-2.075-0.136 0.487-0.234 0.991-0.287 1.507l-0.003 0.097-0.049 0.031c-0.158 0.098-0.35 0.156-0.556 0.156-0.59 0-1.068-0.478-1.068-1.068 0-0.094 0.012-0.185 0.035-0.271 0.968-3.967 2.845-5.901 4.252-6.816 0.599-0.405 1.294-0.728 2.038-0.93l0.129-0.044 0.042 0.087c0.503 1.054 1.561 1.77 2.786 1.77s2.282-0.715 2.778-1.751l0.041-0.106 0.094 0.024c0.793 0.213 1.488 0.536 2.112 0.957l-0.025-0.016c1.412 0.922 3.294 2.854 4.254 6.824 0.021 0.079 0.033 0.169 0.033 0.262 0 0.59-0.478 1.068-1.068 1.068-0.204 0-0.395-0.057-0.557-0.157l-0.042-0.021v-0.059c-0.056-0.554-0.154-1.058-0.293-1.544 0.16 0.665 0.245 1.358 0.25 2.070-0.019 4.874-3.925 6.608-7.581 6.608zM10.372 12.16l0.184 0.146c-1.163 1.535-1.868 3.473-1.882 5.575-0 4.709 3.786 6.37 7.327 6.37s7.327-1.664 7.327-6.369c-0.014-2.106-0.719-4.044-1.899-5.602l0.201-0.122c1.188 1.387 1.987 3.139 2.212 5.066 0.115 0.102 0.245 0.136 0.384 0.136 0.46 0 0.833-0.373 0.833-0.833 0-0.071-0.009-0.14-0.026-0.206-0.949-3.891-2.782-5.78-4.152-6.674v0c-0.553-0.374-1.192-0.678-1.877-0.875-0.607 1.074-1.72 1.804-3.003 1.804s-2.396-0.73-2.947-1.797c-0.741 0.191-1.381 0.494-1.957 0.884-1.346 0.879-3.178 2.768-4.129 6.67-0.016 0.060-0.025 0.13-0.025 0.201 0 0.46 0.373 0.833 0.833 0.833 0.14 0 0.271-0.034 0.387-0.095 0.223-1.97 1.022-3.723 2.22-5.124z"></path>
<path fill="#001f7d" style="fill: var(--color2, #001f7d)" d="M12 26.28c0 0.819 0.821 1.485 1.833 1.485s1.833-0.664 1.833-1.485v-1.614c-1.522-0.012-2.958-0.37-4.236-1z"></path>
<path fill="#fff" style="fill: var(--color1, #fff)" d="M13.831 27.882c-1.071 0-1.944-0.706-1.951-1.591l-0.558-2.824 0.216 0.111c1.207 0.595 2.625 0.948 4.126 0.96l0.119 0v1.729c-0.002 0.896-0.878 1.614-1.953 1.614zM11.647 23.904l0.471 2.376c0 0.753 0.769 1.367 1.715 1.367s1.715-0.612 1.715-1.367v-1.501c-1.419-0.029-2.756-0.349-3.964-0.901z"></path>
<path fill="#001f7d" style="fill: var(--color2, #001f7d)" d="M16.336 26.28c0 0.819 0.821 1.485 1.833 1.485s1.831-0.664 1.831-1.485l0.513-2.588c-1.222 0.604-2.658 0.962-4.177 0.974z"></path>
<path fill="#fff" style="fill: var(--color1, #fff)" d="M18.169 27.882c-1.075 0-1.951-0.718-1.951-1.602v-1.729h0.115c1.507-0.011 2.928-0.365 4.193-0.988l0.16-0.085-0.56 2.824c-0.007 0.864-0.882 1.581-1.958 1.581zM16.454 24.781v1.501c0 0.753 0.769 1.367 1.715 1.367s1.715-0.612 1.715-1.367l0.471-2.376c-1.145 0.527-2.482 0.846-3.891 0.875z"></path>
<path fill="#001f7d" style="fill: var(--color2, #001f7d)" d="M19.024 7.259c0 1.67-1.354 3.024-3.024 3.024s-3.024-1.354-3.024-3.024c0-1.67 1.354-3.024 3.024-3.024s3.024 1.354 3.024 3.024z"></path>
<path fill="#fff" style="fill: var(--color1, #fff)" d="M16 10.4c-1.735 0-3.141-1.406-3.141-3.141s1.406-3.141 3.141-3.141c1.735 0 3.141 1.406 3.141 3.141-0.003 1.734-1.407 3.138-3.141 3.141zM16 4.353c-1.605 0-2.906 1.301-2.906 2.906s1.301 2.906 2.906 2.906c1.605 0 2.906-1.301 2.906-2.906-0.003-1.604-1.302-2.903-2.906-2.906z"></path>
</symbol>
<symbol id="icon-arrow" viewBox="0 0 22 32">
<title>arrow</title>
<path d="M10.874 32c-0.219-0-0.417-0.089-0.56-0.234l-10.043-10.086c-0.168-0.178-0.272-0.419-0.272-0.684 0-0.142 0.030-0.277 0.083-0.399 0.116-0.301 0.406-0.516 0.747-0.523h5.89v-19.157c-0.001-0.015-0.001-0.032-0.001-0.050 0-0.467 0.369-0.847 0.83-0.867l0.229-0 3.077 2.689 3.077-2.689h0.228c0.464 0.020 0.832 0.4 0.832 0.867 0 0.018-0.001 0.035-0.002 0.052l0 19.161h5.932c0.342 0.006 0.632 0.222 0.749 0.524 0.053 0.121 0.083 0.257 0.083 0.399 0 0.265-0.103 0.506-0.272 0.684l-10.049 10.080c-0.143 0.144-0.341 0.234-0.56 0.234zM1.643 21.311l9.231 9.268 9.231-9.268h-6.314v-19.532l-2.917 2.529-2.923-2.529v19.532z"></path>
</symbol>
<symbol id="icon-butterfly" viewBox="0 0 39 32">
<title>butterfly</title>
<path fill="#00aeef" style="fill: var(--color3, #00aeef)" d="M21.99 26.24c-0.896 1.843-2.362 0.16-2.829-0.563-5.414-8.32-5.229-20.89-1.402-19.84 6.208 1.664 5.427 17.984 4.237 20.429zM16.723 23.142c0.579 1.26 1.153 2.309 1.79 3.315 0.16 0.239 0.409 0.547 0.687 0.826 0.55 1.958-1.351 1.696-2.112 1.709-9.312 0.179-18.182-9.498-13.216-13.44 3.469-2.746 9.427 3.053 12.8 7.546zM20.077 28.397c0.001-0.022 0.001-0.048 0.001-0.073 0-0.151-0.014-0.298-0.042-0.44 0.124 0.078 0.265 0.129 0.414 0.16-0.13 0.123-0.258 0.245-0.373 0.36zM33.978 15.027c-5.178 0.672-8.883 8.211-9.376 9.293-0.016-0.001-0.035-0.001-0.054-0.001-0.675 0-1.247 0.439-1.447 1.046-0.085 0.21-0.133 0.441-0.133 0.683 0 0.18 0.026 0.354 0.075 0.518-0.318 0.058-0.596 0.164-0.853 0.303 1.669-3.503 3.371-24.898-4.719-26.812-4.224-0.998-5.459 10.682-1.677 20.838-4.141-5.165-10.355-10.733-14.080-7.68-5.92 4.806 4.678 16.64 15.789 16.461 0.138 0.012 0.3 0.018 0.462 0.018 0.483 0 0.953-0.058 1.402-0.167-0.226 0.392-0.245 0.437-0.898 0.808-1.11 0.614-2.403 1.063-3.775 1.272-1.204 0.066 2.214 1.333 5.753-0.907 2.451-1.555 3.36-2.56 3.469-3.315 0.002 0 0.004 0 0.006 0 0.68 0 1.258-0.44 1.463-1.052 0.088-0.209 0.138-0.44 0.138-0.683s-0.049-0.474-0.139-0.683c2.232-1.659 6.404-4.174 9.867-2.593 3.539 1.331 2.56 4.179 2.278 4.589s-1.363 1.478-2.752 0.877c-1.197-0.518-1.178-1.702-0.64-2.176 0.071 0.139 0.179 0.25 0.31 0.324 0.113 0.061 0.242 0.096 0.38 0.096 0.442 0 0.8-0.358 0.8-0.8s-0.358-0.8-0.8-0.8c-0.302 0-0.565 0.167-0.701 0.414-0.056 0.107-0.088 0.229-0.088 0.359 0 0.024 0.001 0.047 0.003 0.070-0.89 0.317-1.152 2.096 0.499 2.813s3.046-0.602 3.334-1.056 1.363-3.61-2.522-5.050c-3.642-1.626-7.923 0.928-10.163 2.605-0.053-0.055-0.112-0.103-0.175-0.145 0.585-1.263 4.188-8.495 9.411-9.097 4.262-0.486 4.358 2.56 4.32 3.091s-0.403 1.971-1.92 2.176c-1.28 0.173-1.92-0.845-1.696-1.51 0.117 0.073 0.259 0.116 0.411 0.116 0.009 0 0.017-0 0.026-0 0.42-0.025 0.753-0.373 0.753-0.799 0-0.442-0.358-0.8-0.8-0.8s-0.8 0.358-0.8 0.8c0 0.015 0 0.030 0.001 0.046 0.011 0.151 0.065 0.289 0.149 0.403-0.597 0.734 0.101 2.391 1.918 2.148s2.291-2.093 2.298-2.63 0.090-4.045-5.056-3.392z"></path>
</symbol>
<symbol id="icon-form" viewBox="0 0 33 32">
<title>form</title>
<path fill="#001f7d" style="fill: var(--color2, #001f7d)" d="M23.443 16.755v6.24h-5.581c-0.857 0.004-1.552 0.698-1.555 1.555v5.581h-14.438v-28.262h21.574v3.891l1.869-1.869v-2.336c-0.004-0.857-0.698-1.552-1.555-1.555h-22.202c-0.857 0.004-1.552 0.698-1.555 1.555v28.89c0.004 0.857 0.698 1.552 1.555 1.555h16.071l7.68-7.68v-9.434zM20.147 26.835l-1.971 1.965v-3.936h3.949z"></path>
<path fill="#001f7d" style="fill: var(--color2, #001f7d)" d="M32.819 6.17c0.352-0.33 0.572-0.799 0.572-1.318 0-0.482-0.189-0.919-0.496-1.243l-1.817-1.804c-0.323-0.307-0.76-0.495-1.242-0.495-0.52 0-0.988 0.22-1.317 0.571l-1.582 1.588 4.294 4.294z"></path>
<path fill="#001f7d" style="fill: var(--color2, #001f7d)" d="M14.182 18.944l-0.685 1.997c0.072 0.099 0.157 0.184 0.253 0.254l6.134-2.097 10.931-10.918-4.294-4.294-10.925 10.925zM28.077 7.68c0.043-0.044 0.103-0.072 0.17-0.072s0.127 0.027 0.17 0.072l0.397 0.397c0.044 0.043 0.072 0.103 0.072 0.17s-0.027 0.127-0.072 0.17l-8.922 8.902c-0.043 0.044-0.103 0.072-0.17 0.072s-0.127-0.027-0.17-0.072l-0.397-0.397c-0.044-0.043-0.072-0.103-0.072-0.17s0.027-0.127 0.072-0.17zM26.298 5.888c0.043-0.044 0.103-0.072 0.17-0.072s0.127 0.027 0.17 0.072l0.397 0.397c0.044 0.043 0.072 0.103 0.072 0.17s-0.027 0.127-0.072 0.17l-8.922 8.915c-0.043 0.044-0.103 0.072-0.17 0.072s-0.127-0.027-0.17-0.072l-0.397-0.397c-0.044-0.043-0.072-0.103-0.072-0.17s0.027-0.127 0.072-0.17zM16.090 15.866c0.007-0.002 0.016-0.002 0.024-0.002 0.033 0 0.063 0.013 0.085 0.034l2.598 2.598c0.021 0.022 0.034 0.052 0.034 0.085 0 0.052-0.032 0.096-0.078 0.114l-3.034 1.056c-0.132-0.366-0.415-0.649-0.772-0.778l1.053-3.030c0.015-0.039 0.048-0.068 0.089-0.077z"></path>
</symbol>
<symbol id="icon-phone" viewBox="0 0 32 32">
<title>phone</title>
<path d="M15.995 0c-8.829 0.006-15.984 7.165-15.984 15.995 0 8.834 7.161 15.995 15.995 15.995s15.995-7.161 15.995-15.995c0-8.834-7.161-15.995-15.995-15.995-0.004 0-0.008 0-0.011 0zM20.228 25.725c-1.361-0.097-10.238-2.236-13.975-12.765-0.756-2.16 0.184-5.789 2.711-6.577s3.888 2.765 4.255 5.033l-2.246 2.236s-0.065 1.404 3.002 4.471 4.46 3.002 4.46 3.002l2.603-2.603c1.89 0.675 3.523 1.499 5.033 2.495-0.486 3.013-2.582 5.055-5.843 4.709z"></path>
</symbol>
<symbol id="icon-logo" viewBox="0 0 80 32">
<title>logo</title>
<path fill="#1c4969" style="fill: var(--color5, #1c4969)" d="M79.776 21.892q-0.78-1.136-1.468-2.116l-1.2-1.704q-0.612-0.86-0.956-1.332c0.62-0.435 1.163-0.903 1.656-1.42 0.767-0.81 1.268-1.871 1.367-3.046q0.089-0.919 0.089-2.143v-1.332h-3.864v3.38q0 0.624-0.024 1.016c-0.012 0.231-0.049 0.448-0.109 0.656-0.046 0.145-0.122 0.289-0.221 0.415-0.114 0.144-0.237 0.275-0.371 0.395q-0.247-0.305-0.547-0.725l-0.636-0.892-0.692-0.98q-0.356-0.492-0.688-0.964-0.8-1.096-1.644-2.308h-4.276v0.268q0.676 0.892 1.276 1.72 0.524 0.7 1.048 1.424t0.844 1.116q-0.868 0.8-1.416 1.392c-0.35 0.366-0.641 0.791-0.856 1.259-0.222 0.532-0.365 1.115-0.411 1.726q-0.101 1.027-0.101 2.671v1.772h3.736v-2.040q0-0.88 0-1.6c-0.003-0.095-0.005-0.206-0.005-0.318 0-0.33 0.016-0.657 0.048-0.979 0.030-0.317 0.1-0.646 0.202-0.96 0.098-0.271 0.263-0.53 0.475-0.744l0.544 0.8 0.668 0.996q0.356 0.536 0.748 1.096t0.76 1.108q0.856 1.248 1.824 2.64h4.236v-0.252zM64.984 8.8h-3.712v13.348h3.712zM60 12.472c-0.113-0.782-0.378-1.484-0.765-2.103-0.343-0.509-0.839-0.922-1.422-1.169-0.652-0.263-1.383-0.41-2.149-0.41-0.059 0-0.118 0.001-0.177 0.003l-7.487-0v6.148c-0.005 0.049-0.008 0.107-0.008 0.165 0 0.436 0.162 0.834 0.43 1.137 0.275 0.247 0.644 0.4 1.048 0.4 0.026 0 0.052-0.001 0.078-0.002l3.996 0v-2.592h-1.544c-0.005 0-0.010 0-0.016 0-0.071 0-0.137-0.024-0.189-0.065-0.051-0.043-0.075-0.151-0.075-0.331v-1.9h3.48c0 0 0 0 0 0 0.167 0 0.325 0.038 0.466 0.107 0.154 0.087 0.274 0.235 0.324 0.412 0.097 0.337 0.169 0.728 0.204 1.13 0.066 0.59 0.102 1.247 0.102 1.912 0 0.053-0 0.106-0.001 0.159q0 2.264-0.332 3.040c-0.070 0.154-0.185 0.276-0.328 0.354-0.136 0.075-0.294 0.118-0.462 0.118-0.001 0-0.001 0-0.002 0h-7.088v3.164h7.296c0.053 0.002 0.115 0.003 0.178 0.003 0.767 0 1.498-0.155 2.162-0.437 0.581-0.268 1.087-0.702 1.447-1.242 0.397-0.613 0.678-1.321 0.804-2.081 0.15-0.847 0.233-1.785 0.233-2.743 0-0.065-0-0.13-0.001-0.195 0.001-0.051 0.001-0.123 0.001-0.195 0-0.984-0.079-1.95-0.231-2.891zM46.172 8.8h-6.632v3.164h3.124l-0.4 4.96q-0.14 1.392-0.676 1.888c-0.409 0.315-0.929 0.505-1.494 0.505-0.075 0-0.15-0.003-0.224-0.010l-0.118 0.001c-0.023 0-0.051 0.001-0.079 0.001-0.347 0-0.686-0.031-1.016-0.090-0.232-0.039-0.467-0.151-0.659-0.313-0.186-0.169-0.325-0.39-0.395-0.641-0.094-0.337-0.149-0.714-0.154-1.102l-0.744-12.439h-3.788l0.868 12.36c0.045 1.082 0.28 2.097 0.673 3.029 0.311 0.688 0.866 1.284 1.56 1.657 0.455 0.238 0.962 0.404 1.498 0.479 0.584 0.085 1.23 0.131 1.888 0.131 0.040 0 0.079-0 0.119-0l0.542 0c0.079 0.003 0.171 0.005 0.264 0.005 1.034 0 2.012-0.237 2.884-0.659 0.767-0.416 1.41-1.062 1.829-1.846 0.25-0.458 0.44-0.961 0.553-1.492q0.187-0.861 0.315-1.933l0.74-6.9q0.072-0.756-0.476-0.756zM32 8.8h-3.7v7.66h3.7zM27.24 12.924q0-2.192-1.048-3.228t-3.2-1.032h-1.212c-0.018-0-0.039-0-0.060-0-0.405 0-0.798 0.054-1.172 0.156-0.309 0.085-0.605 0.205-0.883 0.356-0.201 0.153-0.396 0.336-0.566 0.54-0.192 0.225-0.361 0.472-0.505 0.735-0.14 0.256-0.264 0.532-0.367 0.818-0.084 0.235-0.158 0.487-0.219 0.744l-0.062 0.049-1.148-3.26h-3.792l2.116 6.252-1.62 7.096h3.764l1.9-8.496c0.113-0.553 0.37-1.034 0.729-1.418 0.339-0.318 0.799-0.514 1.304-0.514 0.039 0 0.077 0.001 0.116 0.003l0.363-0c0.056-0.006 0.122-0.009 0.188-0.009 0.472 0 0.904 0.17 1.239 0.452 0.267 0.317 0.431 0.733 0.431 1.187 0 0.050-0.002 0.1-0.006 0.149l0 5.481h-3.156v3.164h6.864v-9.224zM12.040 9.568v-0.168q0-0.612-0.344-0.612h-6.768v-4.064h-3.728v6.76q0 0.372 0.104 0.42c0.082 0.034 0.177 0.053 0.276 0.053 0.015 0 0.031-0 0.046-0.001l6.25 0-0.78 5.384c-0.026 0.615-0.355 1.147-0.841 1.456-0.441 0.236-0.957 0.373-1.504 0.373-0.014 0-0.028-0-0.042-0l-0.598 0v2.972q0.24 0.052 0.58 0.104c0.205 0.033 0.442 0.052 0.684 0.052 0.021 0 0.045 0 0.069 0 0.664 0 1.305-0.095 1.912-0.272 0.56-0.163 1.087-0.451 1.534-0.829 0.471-0.414 0.861-0.921 1.141-1.491 0.339-0.696 0.589-1.47 0.722-2.284l1.259-7.649c0.015-0.058 0.024-0.124 0.024-0.192z"></path>
<path fill="#00aeef" style="fill: var(--color3, #00aeef)" d="M26.368 26.648c0.036-0.012 0.065-0.032 0.088-0.060 0.212-0.286 0.513-0.494 0.861-0.586 0.091-0.019 0.182-0.028 0.276-0.028 0.176 0 0.345 0.033 0.5 0.093 0.098 0.038 0.177 0.13 0.198 0.243 0.024 0.102 0.076 0.198 0.096 0.302 0.020 0.158 0.052 0.3 0.097 0.437 0.13-0.215 0.276-0.387 0.438-0.544 0.177-0.21 0.394-0.377 0.641-0.492 0.142-0.056 0.294-0.085 0.452-0.085 0.106 0 0.209 0.013 0.308 0.038 0.126 0.021 0.23 0.132 0.239 0.269 0.016 0.077 0.025 0.165 0.025 0.254 0 0.154-0.027 0.302-0.076 0.44-0.077 0.243-0.177 0.487-0.257 0.735-0.122 0.292-0.204 0.631-0.231 0.985-0.001 0.015-0.001 0.020-0.001 0.025 0 0.188 0.060 0.363 0.162 0.505 0.008 0.012 0.025 0.021 0.044 0.021s0.036-0.009 0.046-0.024c0.122-0.097 0.227-0.206 0.317-0.328 0.092-0.121 0.178-0.251 0.255-0.388l0.409-0.661c0.194-0.356 0.414-0.663 0.667-0.94 0.117-0.116 0.221-0.252 0.349-0.364 0.183-0.176 0.399-0.319 0.638-0.419 0.112-0.035 0.23-0.060 0.35-0.076 0.191-0.033 0.363-0.093 0.543-0.113 0.043-0.005 0.092-0.008 0.142-0.008 0.141 0 0.276 0.022 0.403 0.062 0.119 0.037 0.243 0.101 0.371 0.129 0.203 0.059 0.373 0.179 0.494 0.338 0.125 0.13 0.225 0.282 0.294 0.449 0.008 0.020 0.011 0.033 0.011 0.046s-0.003 0.025-0.008 0.037c-0.008 0.013-0.013 0.029-0.013 0.046 0 0.035 0.020 0.065 0.048 0.081 0.048 0.028 0.060 0.244 0.032 0.292-0.014 0.022-0.037 0.036-0.064 0.036-0.008 0-0.017-0.001-0.024-0.004-0.086-0.021-0.188-0.035-0.292-0.040-0.010-0.002-0.016-0.003-0.024-0.003-0.035 0-0.065 0.023-0.076 0.054-0.102 0.222-0.202 0.405-0.312 0.582-0.114 0.155-0.233 0.355-0.336 0.566-0.092 0.17-0.139 0.343-0.139 0.526 0 0.003 0 0.005 0 0.007-0.001 0.006-0.001 0.013-0.001 0.021 0 0.113 0.091 0.204 0.204 0.204 0.044 0 0.084-0.014 0.118-0.037 0.168-0.075 0.309-0.152 0.444-0.239 0.151-0.124 0.339-0.224 0.507-0.352 0.074-0.072 0.156-0.136 0.246-0.189 0.049-0.016 0.080-0.056 0.080-0.103 0-0.024-0.008-0.047-0.022-0.065-0.056-0.068-0.052-0.148-0.088-0.22s0.032-0.040 0.032-0.064c0.004-0.019 0.006-0.041 0.006-0.064s-0.002-0.045-0.007-0.066c-0.006-0.026-0.010-0.058-0.010-0.091 0-0.080 0.022-0.156 0.059-0.221 0.019-0.050 0.071-0.074 0.027-0.138s0-0.036 0-0.024c0.104 0.044 0-0.044 0.032-0.052s0-0.048 0-0.048c0.092-0.032 0.096-0.096 0.064-0.172s0-0.068 0.044-0.064c0.002 0.001 0.005 0.001 0.007 0.001 0.013 0 0.024-0.011 0.024-0.024 0-0.007-0.003-0.013-0.007-0.017-0.116-0.12-0.032-0.232 0.032-0.32 0.041-0.062 0.071-0.134 0.087-0.212 0.054-0.172 0.125-0.317 0.213-0.451 0.040-0.081 0.072-0.173 0.116-0.257l0.16-0.304c0-0.024 0.028-0.060 0.056-0.032s0.064 0 0.088-0.040-0.028-0.088 0.048-0.080c0 0 0-0.028 0-0.040s-0.056-0.048 0-0.104c0.044-0.080 0.094-0.15 0.149-0.213 0.018-0.026 0.033-0.058 0.042-0.093 0.040-0.002 0.036 0.082 0.080 0.046 0.034-0.044 0.054-0.099 0.056-0.16 0-0.032-0.108-0-0.032-0.072 0.028-0.030 0.053-0.065 0.075-0.101 0.080-0.136 0.158-0.25 0.243-0.358 0.078-0.071 0.147-0.164 0.196-0.268 0.025-0.058 0.061-0.101 0.105-0.133 0.169-0.129 0.289-0.313 0.457-0.437 0.146-0.122 0.327-0.205 0.527-0.231 0.011-0.001 0.017-0.001 0.024-0.001 0.193 0 0.373 0.054 0.526 0.147 0.105 0.11 0.173 0.264 0.173 0.433 0 0.038-0.003 0.076-0.010 0.112 0.001 0.016 0.001 0.028 0.001 0.040 0.012 0.049 0.019 0.106 0.019 0.164 0 0.133-0.037 0.257-0.101 0.364-0.022 0.037-0.022 0.093-0.042 0.137s-0.056 0.052-0.064-0.024c-0.013 0.035-0.021 0.075-0.021 0.116 0 0.008 0 0.017 0.001 0.025-0 0.087-0.096 0.127-0.108 0.211s-0.136 0.208-0.164 0.332c-0.001 0.012-0.001 0.026-0.001 0.040s0 0.028 0.001 0.042c0.024-0.058 0.064-0.050 0.104-0.058-0.096 0.040-0.040 0.156-0.124 0.212-0.133 0.082-0.233 0.207-0.283 0.355-0.013 0.032-0.033 0.054-0.057 0.068-0.033 0.024-0.053 0.036-0.033 0.088s0.052 0.116-0.056 0.096c0 0 0 0.048 0 0.048 0.072 0.040 0 0.076 0 0.104-0.031 0.069-0.076 0.126-0.131 0.171-0.065 0.041-0.069 0.161-0.177 0.129 0 0.032-0.056 0.044-0.032 0.092s0 0.052-0.036 0.076-0.088 0.056-0.056 0.124c0 0 0 0.068-0.064 0.060s-0.028 0-0.028 0c0 0.116-0.080 0.176-0.14 0.256s-0.116 0.108-0.096 0.204c0 0-0.020 0.044-0.032 0.068-0.1-0.084-0.096 0.060-0.156 0.072s-0.060 0.076-0.116 0.1 0 0.072 0.052 0.080c-0.060 0.024-0.14 0-0.1 0.108 0 0.044-0.084 0.088-0.124 0.144-0.11 0.129-0.228 0.244-0.355 0.348-0.081 0.072-0.133 0.184-0.261 0.208 0.141 0.161 0.31 0.295 0.499 0.395 0.131 0.073 0.272 0.135 0.42 0.184 0.162 0.048 0.333 0.082 0.509 0.1 0.2 0.021 0.384 0.041 0.572 0.041s0.308 0 0.464-0.028 0.204-0.032 0.308-0.036c0.205-0.017 0.386-0.043 0.565-0.077 0.175-0.019 0.367-0.047 0.595-0.091s0.368-0.048 0.552-0.088c0.065-0.028 0.14-0.045 0.22-0.045 0.035 0 0.070 0.003 0.103 0.010s0.037-0.001 0.053-0.001c0.136-0.044 0.293-0.069 0.455-0.069 0.018 0 0.037 0 0.055 0.001-0.049 0.085-0.132 0.145-0.229 0.16-0.274 0.020-0.514 0.156-0.778 0.2l-0.34 0.068c-0.036 0-0.076 0-0.092 0.048s-0.028 0.020-0.036 0-0.028-0.028-0.044 0c-0.116 0.108-0.268 0.064-0.4 0.1-0.135 0.010-0.26 0.037-0.378 0.079-0.039 0.016-0.095 0.027-0.153 0.029-0.371 0.044-0.8 0.069-1.235 0.069-0.16 0-0.318-0.003-0.476-0.010-0.057 0.001-0.141-0.027-0.221-0.035-0.167-0.015-0.321-0.045-0.469-0.088-0.181-0.033-0.356-0.11-0.507-0.218-0.044-0.041-0.116 0.003-0.172-0.053s-0.148-0.136-0.228-0.2c-0.012-0.007-0.027-0.011-0.042-0.011s-0.030 0.004-0.042 0.011c-0.115 0.106-0.246 0.197-0.39 0.267-0.091 0.066-0.185 0.129-0.282 0.188-0.085 0.052-0.169 0.077-0.259 0.077-0.008 0-0.017-0-0.025-0.001-0.005-0.002-0.012-0.003-0.019-0.003s-0.014 0.001-0.021 0.003c-0.138 0.064-0.301 0.123-0.471 0.167-0.032 0.007-0.046 0.008-0.060 0.008s-0.028-0.001-0.041-0.003c-0.059 0.006-0.129 0.009-0.2 0.009-0.164 0-0.324-0.018-0.477-0.052-0.158-0.039-0.299-0.148-0.384-0.294-0.002-0.043-0.038-0.043-0.066-0.027-0.242 0.141-0.534 0.224-0.844 0.224-0.039 0-0.079-0.001-0.117-0.004-0.052 0.005-0.118 0.008-0.184 0.008-0.128 0-0.253-0.010-0.376-0.029-0.107-0.025-0.209-0.056-0.309-0.095-0.13-0.063-0.246-0.17-0.324-0.303-0.034-0.056-0.066-0.044-0.106-0.004-0.099 0.121-0.205 0.228-0.32 0.325-0.056 0.039-0.128 0.035-0.168 0.087v0c0.028 0.036 0.112 0 0.104 0.080s-0.072 0.096-0.128 0.12c-0.060 0.017-0.129 0.027-0.2 0.027s-0.14-0.010-0.205-0.028c-0.184-0.009-0.362-0.051-0.525-0.119-0.163-0.070-0.307-0.187-0.411-0.333-0.109-0.159-0.173-0.351-0.174-0.559-0-0.014-0-0.029-0-0.045 0-0.192 0.026-0.378 0.076-0.554 0.037-0.118 0.073-0.254 0.113-0.386 0.060-0.2 0.14-0.4 0.204-0.584s0.1-0.336 0.152-0.516c-0.080 0-0.108 0.076-0.148 0.112-0.154 0.149-0.293 0.311-0.417 0.485-0.107 0.147-0.203 0.287-0.287 0.435-0.164 0.284-0.324 0.572-0.476 0.864s-0.292 0.56-0.456 0.828c-0.022 0.035-0.048 0.065-0.076 0.092-0.043 0.034-0.070 0.086-0.072 0.144 0 0.003 0 0.006 0 0.009 0 0.062-0.050 0.112-0.112 0.112-0.003 0-0.006-0-0.009-0-0.062 0.007-0.116 0.017-0.169 0.030-0.127-0.002-0.259-0.030-0.391-0.022 0 0 0 0-0.028 0-0.172 0.040-0.196-0.104-0.24-0.204-0.007-0.017-0.011-0.036-0.011-0.056 0-0.049 0.023-0.092 0.058-0.12 0.101-0.105 0.167-0.244 0.18-0.398 0.006-0.042 0.016-0.077 0.029-0.11 0.063-0.121 0.059-0.261 0.115-0.397 0.092-0.204 0.132-0.424 0.204-0.636s0.096-0.312 0.136-0.472c0.029-0.149 0.046-0.32 0.046-0.496 0-0.035-0.001-0.070-0.002-0.105-0.001-0.058-0.009-0.119-0.021-0.177 0.001-0.105-0.063-0.129-0.147-0.057-0.057 0.046-0.121 0.092-0.187 0.135-0.090 0.051-0.156 0.114-0.203 0.191-0.049 0.138-0.177 0.194-0.241 0.306-0.065 0.142-0.143 0.264-0.234 0.375-0.046 0.045-0.042 0.125-0.078 0.161s-0.056 0.124-0.088 0.176-0.092 0.264-0.184 0.36c-0.088 0.1-0.167 0.213-0.231 0.335-0.083 0.101-0.142 0.211-0.175 0.332-0.029 0.118-0.073 0.217-0.132 0.305-0.104 0.169-0.172 0.375-0.186 0.597-0 0.060-0.024 0.072-0.072 0.068-0.113 0.005-0.22 0.021-0.323 0.046-0.026 0.007-0.069 0.012-0.113 0.012-0.083 0-0.161-0.019-0.231-0.052-0.043-0.019-0.075-0.064-0.075-0.116 0-0.014 0.002-0.027 0.006-0.039 0.064-0.279 0.092-0.563 0.176-0.839 0.060-0.2 0.14-0.4 0.204-0.588s0.108-0.288 0.164-0.432c0.088-0.218 0.173-0.485 0.24-0.759 0.020-0.13 0.026-0.234 0.026-0.339s-0.006-0.209-0.019-0.31c0.001-0.040-0.039-0.028-0.063 0.012-0.084 0.080-0.228 0.072-0.272 0.216-0.021 0.056-0.068 0.099-0.127 0.112-0.041 0.015-0.069 0.052-0.069 0.096 0 0.032 0 0.104-0.088 0.092-0.022 0.036-0.041 0.077-0.055 0.12-0.001 0.040-0.045 0.036-0.057 0.064-0.098 0.167-0.206 0.311-0.329 0.441-0.093 0.103-0.185 0.217-0.271 0.335-0.108 0.194-0.203 0.345-0.306 0.491-0.142 0.182-0.301 0.357-0.472 0.519-0.054 0.046-0.090 0.102-0.142 0.15-0.179 0.146-0.396 0.254-0.634 0.306-0.082 0.026-0.162 0.026-0.23 0.054-0.042 0.014-0.091 0.022-0.142 0.022-0.167 0-0.314-0.088-0.397-0.22-0.041-0.068-0.079-0.124-0.12-0.178-0.030-0.042-0.052-0.098-0.057-0.159-0.027-0.162-0.057-0.297-0.095-0.429 0.005 0.008 0.004-0.014 0.004-0.036s0.001-0.045 0.003-0.067c-0-0.019-0.013-0.037-0.032-0.045-0.028-0-0.024 0.028-0.032 0.032-0.12 0.068-0.12 0.22-0.212 0.304s-0.18 0.168-0.276 0.244c-0.146 0.11-0.312 0.208-0.488 0.286-0.234 0.123-0.487 0.208-0.755 0.249-0.080 0.009-0.157 0.014-0.235 0.014-0.225 0-0.442-0.037-0.644-0.104-0.262-0.088-0.5-0.224-0.705-0.398-0.157-0.135-0.301-0.28-0.432-0.436-0.169-0.216-0.32-0.454-0.446-0.705-0.098-0.175-0.174-0.351-0.23-0.534-0.059-0.2-0.1-0.413-0.12-0.633-0.002-0.060-0.003-0.116-0.003-0.171 0-0.206 0.009-0.41 0.028-0.612 0.011-0.267 0.044-0.541 0.096-0.81 0.018-0.17 0.063-0.357 0.128-0.534 0.034-0.081 0.071-0.2 0.099-0.322 0.058-0.205 0.12-0.365 0.195-0.519 0.076-0.174 0.16-0.382 0.256-0.55 0.128-0.25 0.248-0.454 0.377-0.652l0.235-0.352c0.045-0.096 0.094-0.179 0.151-0.256 0.004-0.001 0.008-0.009 0.008-0.018s-0.004-0.017-0.011-0.022c-0.009-0.002-0.019-0.004-0.030-0.004s-0.021 0.001-0.031 0.004c-0.13 0.051-0.281 0.085-0.438 0.096-0.186 0.045-0.337 0.093-0.483 0.149-0.203 0.081-0.399 0.182-0.583 0.299-0.103 0.042-0.24 0.075-0.383 0.083-0.083 0-0.163 0-0.247 0-0 0-0 0-0.001 0-0.103 0-0.187-0.079-0.195-0.179 0.006-0.071 0.048-0.13 0.107-0.16 0.175-0.103 0.383-0.208 0.597-0.299 0.228-0.096 0.454-0.166 0.689-0.214 0.229-0.062 0.471-0.106 0.72-0.127 0.217-0.015 0.405-0.043 0.587-0.086 0.016 0.005 0.044-0.047 0.064-0.087 0.075-0.162 0.159-0.301 0.256-0.43 0.132-0.17 0.216-0.374 0.356-0.546s0.316-0.476 0.476-0.716 0.356-0.48 0.524-0.728 0.296-0.376 0.4-0.584c0.052-0.088 0.14-0.152 0.196-0.24 0.124-0.196 0.268-0.376 0.376-0.584 0.012-0.024 0.021-0.052 0.028-0.082 0.044-0.182 0.104-0.242 0.284-0.234 0.153 0.003 0.298 0.032 0.433 0.083 0.055 0.032 0.098 0.099 0.098 0.176 0 0.019-0.003 0.037-0.007 0.054-0.066 0.179-0.154 0.335-0.263 0.474-0.073 0.112-0.161 0.224-0.245 0.336s-0.252 0.332-0.4 0.492-0.18 0.26-0.272 0.4c-0.176 0.24-0.36 0.472-0.528 0.712s-0.324 0.492-0.48 0.74c-0.076 0.12-0.176 0.22-0.236 0.344s-0.132 0.204-0.184 0.312c-0.020 0.044 0 0.064 0.040 0.060 0.128 0 0.252 0 0.4 0 0.042-0.012 0.090-0.018 0.14-0.018s0.098 0.007 0.144 0.019c0.052 0.023 0.108-0.001 0.164-0.001 0.045-0.003 0.097-0.005 0.15-0.005 0.149 0 0.295 0.015 0.436 0.044 0.034-0.002 0.090-0.002 0.142-0.002 0.186 0.023 0.403 0.037 0.624 0.040 0.084-0.005 0.178-0.008 0.272-0.008s0.188 0.003 0.281 0.009c0.027-0.001 0.067-0.001 0.111-0.001s0.088 0.020 0.14 0 0.108 0 0.16 0.020c0.030 0.010 0.066 0.016 0.102 0.016s0.072-0.006 0.104-0.017c0.013-0.004 0.031-0.007 0.049-0.007 0.043 0 0.082 0.015 0.113 0.040 0.072 0.052 0.176 0.032 0.26 0.040 0.057 0.003 0.107 0.030 0.14 0.072 0.021 0.031 0.048 0.055 0.079 0.072 0.049 0.001 0.057 0.001 0.061-0.039 0.002-0.023 0.021-0.040 0.044-0.040 0.001 0 0.003 0 0.004 0h0.112l-0.080 0.092c0.088 0 0.168 0.032 0.252 0.040 0.068 0.013 0.128 0.035 0.183 0.066s-0.003 0.018-0.003-0.002c0.072-0.092 0.1 0 0.172 0.036-0.084 0.015-0.18 0.023-0.278 0.023s-0.194-0.009-0.288-0.025c-0.154-0.023-0.318-0.031-0.482-0.043-0.272-0.020-0.548-0.036-0.824-0.048s-0.488-0.040-0.736-0.032c-0.32 0-0.636-0.040-0.956 0s-0.604 0-0.908 0c-0.184 0-0.368 0.040-0.556 0.036-0.002-0-0.005-0-0.008-0-0.025 0-0.047 0.013-0.060 0.032l-0.244 0.376c-0.088 0.132-0.168 0.272-0.252 0.4s-0.148 0.252-0.216 0.38-0.192 0.344-0.28 0.52c-0.048 0.1-0.096 0.204-0.148 0.3-0.053 0.162-0.106 0.294-0.166 0.423-0.053 0.093-0.1 0.227-0.125 0.369-0.073 0.288-0.125 0.576-0.181 0.86-0.041 0.235-0.064 0.505-0.064 0.781 0 0.007 0 0.013 0 0.020-0.008 0.059-0.012 0.128-0.012 0.199s0.004 0.14 0.013 0.208c0.029 0.196 0.078 0.379 0.145 0.554 0.038 0.078 0.062 0.186 0.114 0.282 0.036 0.089 0.081 0.165 0.134 0.234 0.044 0.057 0.085 0.124 0.119 0.195 0.177 0.282 0.396 0.512 0.652 0.694 0.178 0.134 0.381 0.231 0.601 0.283 0.149 0.040 0.309 0.066 0.473 0.074 0.209-0.002 0.39-0.095 0.513-0.239 0.171-0.187 0.337-0.388 0.491-0.597 0.099-0.133 0.186-0.264 0.267-0.399 0.119-0.201 0.251-0.365 0.359-0.541 0.093-0.158 0.173-0.341 0.231-0.534 0.057-0.166 0.105-0.314 0.153-0.462 0.033-0.096 0.077-0.18 0.13-0.255 0.029-0.039 0.048-0.092 0.048-0.149 0-0.012-0.001-0.025-0.003-0.037 0-0.115 0.056-0.163 0.148-0.211 0.107-0.054 0.232-0.097 0.363-0.123 0.021-0.003 0.035-0.004 0.049-0.004 0.146 0 0.272 0.085 0.331 0.208 0.007 0.016 0.010 0.033 0.010 0.050s-0.003 0.034-0.010 0.049c-0.123 0.198-0.226 0.428-0.298 0.671-0.078 0.17-0.147 0.349-0.202 0.534-0.060 0.183-0.101 0.366-0.122 0.555-0.013 0.161-0.036 0.297-0.069 0.43-0.014 0.073-0.024 0.178-0.024 0.285 0 0.178 0.028 0.349 0.079 0.509 0.024 0.074 0.064 0.148 0.114 0.214 0.047 0.062 0.067 0.042 0.103-0.002 0.156-0.192 0.312-0.4 0.468-0.572s0.272-0.436 0.432-0.64c0.1-0.132 0.208-0.256 0.308-0.4s0.184-0.28 0.276-0.4c0.145-0.211 0.305-0.395 0.485-0.558 0.223-0.194 0.493-0.334 0.791-0.4 0.108-0.026 0.218-0.040 0.331-0.040 0.057 0 0.113 0.003 0.168 0.010 0.177 0.038 0.317 0.187 0.341 0.373 0 0.070 0.064 0.118 0.052 0.194-0.001 0.015-0.001 0.032-0.001 0.050 0 0.083 0.012 0.164 0.035 0.24zM36.848 26.672v0.028h0.036c0.004 0.010 0.007 0.022 0.007 0.034s-0.002 0.024-0.007 0.035c-0.056 0.119-0.113 0.268-0.161 0.421-0.069 0.207-0.113 0.417-0.131 0.634 0.083-0.079 0.159-0.151 0.227-0.227l0.44-0.504c0.138-0.148 0.27-0.309 0.39-0.478 0.166-0.246 0.306-0.486 0.47-0.714 0.091-0.149 0.184-0.328 0.267-0.512 0.134-0.248 0.252-0.503 0.352-0.769 0.108-0.274 0.162-0.546 0.162-0.83 0-0.027-0.001-0.054-0.002-0.081 0-0.028 0-0.068-0.028-0.076-0.004-0.001-0.008-0.001-0.013-0.001-0.034 0-0.064 0.020-0.079 0.048-0.018 0.037-0.039 0.069-0.065 0.097-0.188 0.161-0.352 0.344-0.49 0.546-0.164 0.202-0.314 0.416-0.449 0.641-0.073 0.14-0.165 0.236-0.229 0.352s-0.116 0.164-0.16 0.256-0.12 0.28-0.192 0.4c-0.064 0.091-0.119 0.195-0.161 0.306-0.011 0.165-0.082 0.302-0.191 0.397zM32 28.68c-0.001 0.011-0.002 0.025-0.002 0.038 0 0.254 0.206 0.46 0.46 0.46 0.015 0 0.029-0.001 0.043-0.002 0.182-0.031 0.344-0.114 0.471-0.232 0.182-0.166 0.347-0.343 0.496-0.534 0.144-0.166 0.269-0.34 0.375-0.526 0.080-0.156 0.168-0.288 0.24-0.416s0.124-0.28 0.18-0.4 0.068-0.3 0.136-0.44c0.006-0.009 0.010-0.020 0.010-0.032s-0.004-0.023-0.010-0.032c-0.106-0.122-0.262-0.2-0.436-0.2-0.058 0-0.115 0.009-0.168 0.025-0.195 0.077-0.366 0.171-0.523 0.284-0.106 0.062-0.205 0.136-0.294 0.22-0.135 0.126-0.257 0.263-0.365 0.411-0.078 0.103-0.149 0.21-0.214 0.321-0.056 0.115-0.124 0.203-0.164 0.299s-0.084 0.223-0.121 0.352c-0.063 0.138-0.101 0.265-0.115 0.4zM37.2 24.752v0 0cz"></path>
<path fill="#00aeef" style="fill: var(--color3, #00aeef)" d="M1.36 24.204c0.082-0.082 0.153-0.174 0.212-0.274 0.028-0.062 0.080-0.006 0.108-0.046 0.137-0.122 0.26-0.253 0.371-0.393 0.040-0.054 0.075-0.107 0.105-0.164 0.003-0.055 0.043-0.087 0.103-0.079s0.072-0.064 0.092-0.092c0.12-0.177 0.269-0.325 0.442-0.44 0.069-0.037 0.12-0.084 0.157-0.142 0.041-0.066 0.121-0.026 0.169-0.078s0.136-0.040 0.128-0.14v0c0.124 0 0.136-0.132 0.232-0.172 0.122-0.062 0.224-0.123 0.322-0.19 0.036-0.023 0.089-0.047 0.145-0.064 0.045-0.001 0.089-0.065 0.133-0.085 0.184-0.103 0.413-0.213 0.648-0.31 0.324-0.126 0.656-0.224 0.999-0.295 0.177-0.035 0.321-0.031 0.441-0.055 0.080-0.011 0.172-0.017 0.265-0.017 0.205 0 0.403 0.030 0.59 0.085 0.212 0.059 0.408 0.138 0.593 0.236 0.040 0.020 0.096 0.060 0.040 0.136s0.036 0.052 0.024 0.092c-0.084 0.024-0.164 0.052-0.252 0.064-0.031 0.013-0.067 0.020-0.104 0.020s-0.073-0.007-0.106-0.021c-0.094-0.063-0.202-0.087-0.302-0.139-0.073-0.035-0.159-0.056-0.25-0.056-0.006 0-0.013 0-0.019 0-0.064-0.005-0.14-0.007-0.217-0.007-0.24 0-0.474 0.026-0.7 0.075-0.162 0.044-0.338 0.104-0.51 0.168-0.156 0.059-0.287 0.122-0.413 0.195-0.099 0.053-0.223 0.093-0.335 0.153-0.088 0.041-0.163 0.092-0.229 0.153-0.031 0.031-0.095 0.031-0.139 0.063-0.087 0.059-0.162 0.121-0.232 0.188-0.028 0.028-0.060 0.088-0.124 0.052-0.080 0.136-0.268 0.156-0.328 0.308 0 0 0 0.020 0 0.024-0.22 0.112-0.344 0.34-0.544 0.476-0.1 0.068-0.156 0.192-0.248 0.276s-0.16 0.196-0.244 0.288c-0.037 0.037-0.067 0.081-0.087 0.129-0.015 0.049-0.058 0.083-0.108 0.083-0.003 0-0.006-0-0.009-0 0 0.040 0.076 0 0.060 0.068-0.072-0.036 0 0.136-0.108 0.076-0.032 0-0.092 0.064-0.124 0.112s-0.076 0.056 0 0.1 0 0.060 0 0.072c-0.074 0.068-0.133 0.153-0.17 0.247s-0.038 0.029-0.058 0.041 0-0.040 0-0.052 0 0-0.020 0 0 0.036 0 0.048 0.032 0.064 0 0.064c-0.108 0-0.040 0.148-0.132 0.156 0.032 0.068-0.036 0.108-0.048 0.164-0.015 0.058-0.041 0.109-0.077 0.153-0.062 0.063-0.1 0.151-0.1 0.248 0 0.010 0 0.019 0.001 0.029s-0 0.043-0.032 0.059-0.116 0.064-0.064 0.148c0 0.024-0.040 0.056-0.068 0.080s-0.080 0.044-0.032 0.096 0 0.020 0 0.028c-0.12 0.116-0.1 0.268-0.108 0.4 0 0.080-0.072 0.068-0.104 0.108 0.032 0.032 0.104 0.060 0 0.108 0 0 0 0 0 0.028 0.013 0.012 0.022 0.030 0.022 0.050s-0.008 0.038-0.022 0.050c-0.064 0.060-0.024 0.128-0.024 0.188s-0.028 0.212-0.028 0.324c-0.001 0.023-0.001 0.051-0.001 0.078 0 0.114 0.009 0.225 0.027 0.334 0.027 0.17 0.064 0.326 0.109 0.479 0.073 0.212 0.185 0.419 0.325 0.603 0.185 0.244 0.41 0.454 0.666 0.621 0.126 0.089 0.257 0.164 0.396 0.225 0.206 0.078 0.414 0.158 0.598 0.218 0.187 0.062 0.404 0.107 0.629 0.127 0.187 0.001 0.359 0.045 0.535 0.069h0.088c0.092 0.005 0.2 0.007 0.308 0.007 0.227 0 0.451-0.011 0.672-0.033 0.2-0.030 0.428-0.062 0.656-0.114s0.5-0.128 0.752-0.196c0.18-0.048 0.364-0.096 0.54-0.156 0.098-0.032 0.181-0.069 0.26-0.112 0.053-0.026 0.124-0.050 0.198-0.067 0.129-0.039 0.235-0.086 0.335-0.142 0.136-0.068 0.284-0.144 0.435-0.204 0.070-0.041 0.156-0.085 0.245-0.125 0.171-0.076 0.303-0.157 0.422-0.254 0.184-0.111 0.346-0.23 0.497-0.361 0.18-0.151 0.347-0.307 0.506-0.471 0.109-0.092 0.203-0.192 0.286-0.301 0.123-0.201 0.263-0.381 0.363-0.593s0.16-0.304 0.236-0.46c0.11-0.231 0.197-0.499 0.249-0.78 0.031-0.16 0.003-0.304 0.047-0.448 0-0.032 0-0.052-0.044-0.048-0.204 0-0.4 0-0.612 0.028-0.060 0.009-0.129 0.014-0.2 0.014s-0.14-0.005-0.208-0.014c-0.028 0.001-0.048 0.001-0.076 0.001h-0.82c-0.029 0.005-0.062 0.008-0.096 0.008s-0.067-0.003-0.1-0.008c0.004-0.024 0.036 0 0.040-0.036-0.038 0.006-0.083 0.010-0.128 0.010s-0.090-0.004-0.133-0.010c-0.207-0.051-0.423-0.023-0.639-0.071-0.096-0.026-0.206-0.040-0.319-0.040-0.088 0-0.174 0.009-0.257 0.026 0.001 0.003-0.007 0.005-0.016 0.005s-0.017-0.002-0.024-0.007c-0.067-0.053-0.153-0.085-0.247-0.085-0.023 0-0.045 0.002-0.067 0.006-0.054-0-0.086-0.032-0.13-0.048-0.169-0.034-0.319-0.087-0.458-0.157-0.066-0.040-0.157-0.084-0.251-0.122-0.131-0.057-0.187-0.153-0.267-0.233-0.058-0.076-0.133-0.136-0.22-0.175s-0.032-0.037-0.040-0.057c-0.064-0.12-0.072-0.256-0.132-0.376s-0.032-0.136-0.064-0.196c-0.006-0.019-0.010-0.041-0.010-0.064s0.003-0.045 0.010-0.066c0.048-0.058-0-0.078-0.024-0.114s-0.096-0.048 0-0.084c0 0-0.020-0.052-0.024-0.080s0-0.052 0-0.068 0.056-0.032 0.020-0.068 0-0.068 0-0.1c0.032-0.092 0.036-0.212 0.1-0.272 0.124-0.128 0.192-0.312 0.4-0.38 0.044 0 0.136-0.044 0.156-0.124 0 0 0.020 0 0.032 0 0.228-0.048 0.42-0.18 0.644-0.236 0.068 0 0.136-0.024 0.2-0.044 0.164-0.044 0.328-0.068 0.492-0.104 0.152-0.034 0.327-0.054 0.507-0.054 0.036 0 0.071 0.001 0.106 0.002 0.045-0.006 0.102-0.010 0.161-0.010s0.116 0.003 0.173 0.010c0.241 0.063 0.497 0.075 0.741 0.139 0.17 0.045 0.315 0.097 0.455 0.159 0.093 0.045 0.197 0.121 0.309 0.181s0.196 0.128 0.3 0.18c0.093 0.061 0.172 0.12 0.248 0.184 0.124 0.080 0.192 0.224 0.328 0.3 0.040 0.020 0.064 0.096 0.092 0.148 0.037 0.095 0.106 0.171 0.194 0.215 0.040 0.023 0.069 0.058 0.082 0.1 0.058 0.139 0.13 0.258 0.218 0.363 0.052 0.079 0.096 0.174 0.128 0.274 0.030 0.072-0.074 0.008-0.050 0.068s0.104 0 0.076 0.024 0.048 0.092 0.056 0.148c0.002 0.071 0.011 0.138 0.025 0.203-0.001 0.041 0.043 0.089-0.001 0.149s0.040 0.064 0.040 0.064c0.030 0.004 0.065 0.007 0.1 0.007s0.070-0.003 0.104-0.007c0.26-0.044 0.524-0.072 0.796-0.136 0.176-0.012 0.339-0.036 0.497-0.072s0.007 0.004 0.019 0.024c0.035 0.012 0.075 0.019 0.117 0.019 0.063 0 0.122-0.016 0.173-0.044 0.010-0.002 0.024-0.004 0.038-0.004s0.028 0.002 0.041 0.005c0.059-0.008 0.128-0.012 0.199-0.012s0.14 0.004 0.208 0.012c0.244 0.022 0.477 0.070 0.699 0.142 0.065 0.030 0.179 0.070 0.296 0.103 0.066 0.023 0.102 0.044 0.134 0.071 0.152 0.085 0.283 0.173 0.407 0.269 0.105 0.099 0.208 0.209 0.304 0.325 0.073 0.090 0.149 0.174 0.221 0.254s0.092 0.144 0.144 0.2 0.064 0.116 0.108 0.168c0.068 0.085 0.12 0.185 0.151 0.294 0.025 0.086 0.069 0.162 0.089 0.246 0.021 0.082 0.034 0.175 0.034 0.272s-0.012 0.19-0.035 0.28c-0.020 0.163-0.074 0.317-0.153 0.454s0.003 0.030 0.003 0.038c-0.080 0.060-0.146 0.135-0.194 0.22-0.038 0.080-0.162 0.064-0.218 0.14s-0.196 0.136-0.276 0.224c-0.044 0.039-0.103 0.063-0.166 0.063-0.013 0-0.026-0.001-0.039-0.003-0.059 0-0.135-0.024-0.151 0.080 0 0.024-0.064 0.052-0.112 0.032-0.014-0.009-0.030-0.015-0.048-0.015-0.035 0-0.065 0.020-0.079 0.050-0.014 0.021-0.037 0.034-0.063 0.034-0.006 0-0.012-0.001-0.017-0.002-0.008-0-0.018-0.001-0.028-0.001-0.087 0-0.169 0.026-0.237 0.070-0.016 0.011-0.038 0.018-0.062 0.019-0.268 0-0.528 0.076-0.8 0.088-0.060 0.010-0.129 0.016-0.2 0.016s-0.14-0.006-0.207-0.017c-0.026-0.003-0.065-0.006-0.105-0.006s-0.078 0.002-0.117 0.007c-0.212-0.012-0.416-0.046-0.611-0.101-0.134-0.028-0.267-0.070-0.395-0.125-0.090-0.043-0.198-0.091-0.302-0.147-0.047 0.199-0.104 0.37-0.172 0.535-0.049 0.083-0.111 0.215-0.166 0.35-0.038 0.155-0.094 0.267-0.13 0.387-0.025 0.067-0.052 0.124-0.083 0.178-0.029 0.062-0.025 0.138-0.061 0.21s-0.064 0.256-0.116 0.376c-0.067 0.178-0.138 0.412-0.197 0.65-0.065 0.236-0.118 0.473-0.157 0.716-0.010 0.11-0.069 0.166-0.141 0.166-0.011 0-0.023-0.001-0.033-0.004s-0.035 0-0.039 0c-0.060 0.084-0.16 0.032-0.228 0.068s-0.236 0-0.352 0.028-0.164-0.080-0.168-0.232c-0.007-0.047-0.012-0.101-0.012-0.156s0.004-0.109 0.012-0.162c0.029-0.086 0.045-0.192 0.045-0.302 0-0.024-0.001-0.048-0.002-0.071 0-0.049 0.048-0.081 0.052-0.133s0.124-0.124 0.048-0.216c0.068-0.064 0.052-0.16 0.084-0.236s0.080-0.24 0.12-0.36c0.067-0.205 0.133-0.372 0.208-0.533 0.021-0.053 0.053-0.153 0.077-0.256 0.051-0.171 0.127-0.319 0.175-0.479 0.040-0.094 0.081-0.211 0.115-0.331 0.005-0.077 0.065-0.093 0.085-0.133 0.086-0.139 0.173-0.305 0.249-0.476 0.098-0.257 0.183-0.442 0.278-0.622 0.034-0.102 0.078-0.234 0.13-0.37s0.104-0.184 0.136-0.284c0.072-0.166 0.144-0.372 0.203-0.584 0.030-0.111 0.067-0.176 0.117-0.229 0.098-0.138 0.196-0.298 0.284-0.464 0.044-0.076 0.044-0.148 0.108-0.172-0.060-0.019-0.129-0.030-0.2-0.030s-0.14 0.011-0.205 0.031c-0.119 0.027-0.259-0.001-0.371 0.091 0.034 0.027 0.055 0.069 0.055 0.115 0 0.010-0.001 0.020-0.003 0.030-0.010 0.022-0.015 0.049-0.015 0.077s0.006 0.055 0.016 0.079c-0.001 0.027 0.047 0.111-0.040 0.135-0.020 0 0 0.024 0 0.040 0 0.012 0 0.027 0 0.041 0 0.137-0.013 0.27-0.039 0.4-0.041 0.132-0.085 0.251-0.134 0.365-0.010 0.050-0.038 0.114-0.077 0.172-0.037 0.055-0.064 0.122-0.074 0.195-0.030 0.094-0.072 0.174-0.126 0.245s-0.027 0.026-0.027 0.038c0.024 0.148-0.096 0.232-0.148 0.344-0.029 0.105-0.072 0.197-0.126 0.28-0.082 0.088-0.158 0.184-0.238 0.28-0.020 0.024-0.064 0.040-0.040 0.088s0 0.032-0.028 0.036c-0.142 0.042-0.261 0.128-0.343 0.242-0.025 0.034-0.081 0.026-0.105 0.066s-0.024 0-0.024 0.032 0.076 0.020 0.036 0.060-0.064 0.092-0.116 0.116c-0.031 0.016-0.057 0.036-0.080 0.060-0.1 0.088-0.213 0.164-0.335 0.224-0.125 0.091-0.255 0.176-0.392 0.251-0.209 0.081-0.385 0.185-0.573 0.265-0.149 0.077-0.327 0.15-0.511 0.209-0.169 0.043-0.297 0.115-0.425 0.155s-0.256 0.092-0.4 0.132c-0.13 0.052-0.284 0.095-0.442 0.122-0.174 0.002-0.33 0.098-0.49 0.13s-0.4 0.104-0.596 0.132c-0.138 0.008-0.268 0.034-0.39 0.075-0.081 0.023-0.186 0.038-0.295 0.038-0.018 0-0.036-0-0.053-0.001-0.178 0-0.349 0.056-0.529 0.072s-0.432 0.024-0.644 0.028c-0.008 0-0.018 0-0.028 0-0.333 0-0.66-0.028-0.979-0.081-0.109 0.001-0.247-0.019-0.378-0.054-0.097-0.021-0.192-0.052-0.283-0.089l-0.012 0.004c-0.283-0.027-0.542-0.107-0.775-0.229-0.188-0.067-0.359-0.17-0.506-0.3-0.030-0.030-0.074-0.050-0.094-0.102s-0.076 0-0.116-0.040c-0.221-0.166-0.41-0.358-0.567-0.576-0.133-0.193-0.249-0.405-0.341-0.629-0.089-0.211-0.136-0.431-0.136-0.661 0-0.003 0-0.007 0-0.010-0.004-0.115-0.017-0.225-0.038-0.332-0.002-0.008-0.004-0.031-0.004-0.055s0.002-0.048 0.007-0.070c0.029-0.098 0.045-0.212 0.045-0.331 0-0.023-0.001-0.047-0.002-0.070 0.032-0.229 0.172-0.401 0.176-0.629 0.016-0.103 0.076-0.19 0.159-0.243l-0.051-0.021c0.065-0.074 0.109-0.169 0.12-0.274 0.015-0.133 0.053-0.252 0.111-0.36 0.001 0.004 0.005 0.003 0.009 0.003s0.008 0.001 0.012 0.003c0.052-0 0.116-0.044 0.112-0.104 0-0.176 0.12-0.272 0.176-0.4s0.168-0.156 0.236-0.248 0.152-0.144 0.124-0.264c0 0 0-0.024 0.020-0.028 0.097-0.035 0.172-0.108 0.207-0.202 0.001-0.034 0.001-0.002-0.027-0.022zM6.56 23.58c0.040 0.064 0 0.156 0.084 0.196 0 0 0 0 0 0.028s-0.024 0.064 0.028 0.092 0.056 0.032 0.060 0.064c0.040 0.152 0.129 0.28 0.25 0.367 0.159 0.133 0.344 0.238 0.546 0.306 0.135 0.064 0.279 0.112 0.429 0.142 0.115 0.029 0.24 0.051 0.368 0.065 0.185 0.007 0.348 0.026 0.508 0.056 0.224 0.033 0.468 0.053 0.716 0.069s0.584 0 0.876 0 0.52-0.032 0.8-0.044c0.072 0 0.124-0.028 0.092-0.132s-0.024-0.124-0.040-0.184c-0.058-0.266-0.144-0.501-0.256-0.721-0.187-0.36-0.445-0.678-0.755-0.935-0.199-0.163-0.422-0.297-0.663-0.398-0.309-0.131-0.648-0.217-1.002-0.246-0.096-0.009-0.194-0.013-0.292-0.013-0.316 0-0.622 0.047-0.909 0.134-0.185 0.057-0.366 0.149-0.527 0.266-0.019-0.004-0.059 0.060-0.051 0.060 0.088 0.028 0 0.048 0 0.068s-0.092 0.024-0.132 0.052 0.060 0.056 0 0.124c-0.045 0.080-0.075 0.173-0.084 0.273-0 0.055-0 0.151-0.1 0.147 0 0 0 0 0 0.024s-0.028 0.128 0.028 0.184zM13.384 25.712c0.1 0.024 0.052 0.064 0.036 0.096l-0.156 0.284c-0.024 0.044-0.056 0.116-0.080 0.116-0.088 0-0.084 0.056-0.080 0.104-0.001 0.042-0.012 0.082-0.029 0.118-0.031 0.114-0.159 0.154-0.175 0.294-0.064 0.205-0.132 0.376-0.211 0.541-0.008 0.054-0.040 0.124-0.083 0.185-0.082 0.133-0.149 0.288-0.192 0.454-0.003 0.060-0.003 0.104 0.057 0.124 0.212 0.080 0.436 0.080 0.652 0.152 0.179 0.060 0.385 0.095 0.599 0.095 0.095 0 0.188-0.007 0.28-0.020 0.224-0.019 0.44-0.065 0.646-0.133 0.362-0.113 0.689-0.316 0.952-0.582 0.083-0.089 0.152-0.192 0.202-0.305 0.053-0.102 0.082-0.215 0.082-0.334 0-0.036-0.003-0.071-0.008-0.105-0.057-0.244-0.142-0.463-0.254-0.665-0.119-0.209-0.261-0.4-0.423-0.573-0.158-0.184-0.356-0.332-0.58-0.43-0.092-0.049-0.19-0.075-0.293-0.075-0.020 0-0.040 0.001-0.060 0.003-0.212 0.032-0.401 0.12-0.555 0.249-0.079 0.078-0.144 0.174-0.188 0.281-0.026 0.062-0.022 0.122-0.126 0.122zM1.96 24.564v0 0h0.024z"></path>
<path fill="#00aeef" style="fill: var(--color3, #00aeef)" d="M23.472 23.44c0.017-0.001 0.036-0.002 0.056-0.002 0.126 0 0.245 0.032 0.348 0.088 0.109 0.083 0.201 0.19 0.266 0.313 0.023 0.051 0.034 0.105 0.034 0.161s-0.012 0.11-0.033 0.159c0.001 0.065-0.083 0.093-0.127 0.125-0.069 0.060-0.16 0.096-0.26 0.096-0.001 0-0.003 0-0.004-0-0.169 0.005-0.331 0.021-0.489 0.047 0.012-0.002 0.002-0.002-0.009-0.002-0.132 0-0.252-0.054-0.338-0.141-0.042-0.053-0.067-0.122-0.067-0.195 0-0.023 0.002-0.045 0.007-0.067s0.024-0.034-0-0.042c-0.048-0.023-0.081-0.071-0.081-0.127 0-0.032 0.011-0.062 0.029-0.085 0.041-0.074 0.092-0.137 0.151-0.191 0.113-0.105 0.249-0.081 0.373-0.109 0.048-0.012 0.108-0.044 0.144-0.028z"></path>
<path fill="#00aeef" style="fill: var(--color3, #00aeef)" d="M1.376 24.216s0 0.024-0.036 0v-0.028z"></path>
<path fill="#00aeef" style="fill: var(--color3, #00aeef)" d="M36.86 26.708h0.032s0 0 0 0.024-0.016-0.004-0.032-0.024z"></path>
<path fill="#00aeef" style="fill: var(--color3, #00aeef)" d="M63.2 6.4c-0.22 0.448-0.576 0.040-0.692-0.136-1.32-2.032-1.276-5.096-0.344-4.844 1.516 0.4 1.324 4.4 1.032 4.984zM61.908 5.644c0.14 0.315 0.281 0.578 0.437 0.829 0.041 0.060 0.104 0.137 0.175 0.207 0.132 0.476-0.328 0.4-0.516 0.4-2.272 0.044-4.436-2.316-3.224-3.276 0.844-0.668 2.3 0.744 3.124 1.84zM62.736 6.936c0.002-0.019 0.003-0.040 0.003-0.062s-0.001-0.043-0.004-0.065c0.030 0.018 0.065 0.031 0.102 0.038l-0.089 0.088zM66.14 3.676c-1.28 0.16-2.176 2-2.3 2.264-0.004-0-0.009-0-0.013-0-0.166 0-0.306 0.108-0.354 0.258-0.016 0.046-0.025 0.095-0.025 0.147s0.009 0.101 0.025 0.147c-0.078 0.014-0.146 0.041-0.209 0.075 0.404-0.854 0.828-6.074-1.144-6.538-1.032-0.244-1.332 2.604-0.4 5.084-1.012-1.26-2.524-2.616-3.44-1.876-1.444 1.172 1.14 4.064 3.852 4 0.032 0.003 0.069 0.004 0.107 0.004 0.12 0 0.236-0.015 0.347-0.042-0.054 0.098-0.058 0.106-0.218 0.198-0.27 0.148-0.584 0.256-0.916 0.306-0.292 0.002 0.54 0.326 1.404-0.222 0.6-0.38 0.8-0.632 0.844-0.8 0.147-0.027 0.263-0.136 0.299-0.277 0.021-0.051 0.033-0.107 0.033-0.167s-0.012-0.116-0.034-0.167c0.545-0.397 1.569-1.017 2.401-0.633 0.864 0.324 0.628 1.020 0.556 1.12-0.105 0.15-0.278 0.247-0.473 0.247-0.071 0-0.14-0.013-0.203-0.037-0.138-0.037-0.24-0.164-0.24-0.316 0-0.082 0.030-0.158 0.081-0.215 0.017 0.034 0.043 0.062 0.075 0.080 0.028 0.015 0.060 0.024 0.094 0.024 0.108 0 0.196-0.088 0.196-0.196s-0.088-0.196-0.196-0.196c-0.075 0-0.14 0.042-0.173 0.103-0.005 0.017-0.008 0.035-0.008 0.053s0.003 0.036 0.008 0.053c-0.216 0.079-0.28 0.511 0.12 0.687 0.069 0.025 0.149 0.040 0.232 0.040 0.235 0 0.443-0.118 0.567-0.298 0.066-0.102 0.334-0.882-0.615-1.234s-1.932 0.228-2.48 0.636l-0.044-0.036c0.14-0.3 1.028-2.064 2.3-2.212 1.040-0.12 1.064 0.632 1.056 0.756-0.009 0.267-0.198 0.487-0.448 0.543-0.32 0.045-0.464-0.203-0.404-0.367 0.028 0.018 0.063 0.028 0.1 0.028 0.003 0 0.006-0 0.008-0 0.104-0.005 0.187-0.090 0.187-0.196 0-0.108-0.088-0.196-0.196-0.196s-0.196 0.088-0.196 0.196c0 0.004 0 0.008 0 0.012 0.003 0.036 0.016 0.069 0.036 0.096-0.144 0.179 0.024 0.583 0.46 0.523 0.311-0.060 0.544-0.323 0.56-0.642 0-0.122 0.020-0.99-1.232-0.83z"></path>
<path fill="#1c4969" style="fill: var(--color5, #1c4969)" d="M79.452 27.372h-0.376v2.376h0.376zM78.84 29.716l-0.672-0.916c0.105-0.077 0.196-0.166 0.274-0.265 0.067-0.088 0.121-0.186 0.16-0.291 0.040-0.109 0.067-0.227 0.078-0.35q0-0.194 0-0.434v-0.080h-0.4v0.092c0 0.12 0 0.236 0 0.34-0.003 0.107-0.013 0.209-0.030 0.309-0.014 0.083-0.042 0.169-0.081 0.249-0.039 0.078-0.093 0.149-0.157 0.21l-0.912-1.2h-0.452v0.028l0.58 0.776c-0.109 0.086-0.2 0.188-0.273 0.303-0.067 0.107-0.121 0.225-0.16 0.35-0.040 0.127-0.067 0.263-0.078 0.404q-0 0.211-0 0.407v0.096h0.4v-0.088q0-0.188 0-0.376c0.006-0.131 0.021-0.253 0.043-0.373 0.017-0.098 0.049-0.202 0.093-0.299 0.036-0.082 0.094-0.158 0.168-0.215l0.981 1.355h0.444v-0.032zM76.44 27.372h-0.376v1.364h0.376zM75.64 27.924c-0.043-0.146-0.116-0.273-0.213-0.377-0.059-0.059-0.133-0.105-0.216-0.13-0.086-0.026-0.181-0.041-0.279-0.041-0.003 0-0.006 0-0.009 0h-0.876v0.376h0.864c0.020-0.002 0.043-0.003 0.066-0.003s0.046 0.001 0.069 0.003c0.036 0.007 0.070 0.026 0.097 0.052 0.058 0.065 0.102 0.144 0.127 0.232 0.037 0.136 0.058 0.286 0.058 0.442 0 0.025-0.001 0.049-0.002 0.073 0.003 0.044 0.005 0.1 0.005 0.157s-0.002 0.112-0.005 0.168c-0.009 0.072-0.023 0.144-0.042 0.214-0.012 0.040-0.032 0.084-0.059 0.124-0.020 0.029-0.044 0.055-0.070 0.078-0.056 0.041-0.126 0.066-0.202 0.066-0.009 0-0.019-0-0.028-0.001l-0.863 0v0.376h0.856c0.005 0 0.010 0 0.016 0 0.093 0 0.182-0.013 0.267-0.038 0.078-0.024 0.15-0.068 0.209-0.126 0.104-0.102 0.184-0.228 0.23-0.369 0.058-0.181 0.091-0.383 0.091-0.591 0-0.024-0-0.047-0.001-0.070 0.001-0.017 0.001-0.040 0.001-0.064 0-0.202-0.028-0.398-0.081-0.584zM73.808 27.352h-0.376v2.376h0.376zM73.008 28.212c0.001-0.017 0.001-0.037 0.001-0.057 0-0.142-0.016-0.279-0.047-0.412-0.023-0.084-0.068-0.168-0.13-0.236-0.041-0.049-0.094-0.088-0.153-0.114-0.067-0.027-0.141-0.041-0.218-0.041-0.006 0-0.012 0-0.018 0l-1.311-0v1.792c0 0.003 0 0.006 0 0.009 0 0.064-0.028 0.123-0.072 0.163-0.048 0.040-0.111 0.065-0.179 0.065-0.006 0-0.012-0-0.018-0.001-0.018 0.002-0.039 0.004-0.061 0.004s-0.043-0.001-0.065-0.004l-0.081-0.024v0.372c0.034 0.013 0.073 0.023 0.113 0.028l0.115 0c0.010 0.001 0.022 0.001 0.035 0.001 0.162 0 0.31-0.061 0.422-0.161 0.104-0.109 0.169-0.258 0.169-0.422 0-0.016-0.001-0.032-0.002-0.047l0-1.378h0.956c0.027 0.001 0.052 0.010 0.072 0.024 0.030 0.034 0.052 0.076 0.063 0.122 0.019 0.079 0.029 0.167 0.029 0.258 0 0.015-0 0.031-0.001 0.046l0 1.546h0.376v-1.512zM69.528 28.212c0.001-0.017 0.001-0.038 0.001-0.058 0-0.141-0.016-0.278-0.047-0.41-0.022-0.084-0.066-0.167-0.126-0.237-0.041-0.048-0.093-0.088-0.153-0.114-0.067-0.027-0.142-0.041-0.22-0.041-0.007 0-0.013 0-0.020 0l-1.383-0v2.376h0.376v-2h1.032c0.001-0 0.002-0 0.003-0 0.030 0 0.058 0.009 0.081 0.024 0.030 0.033 0.051 0.075 0.059 0.122 0.016 0.081 0.025 0.172 0.025 0.266 0 0.013-0 0.025-0 0.038l0 1.546h0.376v-1.492zM67.156 27.352h-0.376v1.364h0.376zM66.356 27.352h-0.356v1.364h0.376zM63.956 29.376v-1.636h1.068c0.001-0 0.003-0 0.004-0 0.030 0 0.057 0.009 0.080 0.024 0.030 0.035 0.051 0.078 0.059 0.126 0.016 0.081 0.025 0.173 0.025 0.267 0 0.015-0 0.030-0.001 0.045l0 1.198zM65.556 28.212c0.001-0.017 0.001-0.038 0.001-0.058 0-0.141-0.016-0.278-0.047-0.41-0.022-0.084-0.068-0.168-0.13-0.236-0.042-0.049-0.094-0.088-0.153-0.114-0.067-0.027-0.141-0.041-0.219-0.041-0.006 0-0.011 0-0.017 0l-1.391-0v2.376h2v-1.496z"></path>
<path fill="#1c4969" style="fill: var(--color5, #1c4969)" d="M77.956 24.712h-0.376v1.376h0.376zM79.452 24.572c0.001-0.017 0.001-0.037 0.001-0.057 0-0.142-0.016-0.279-0.047-0.412-0.023-0.084-0.068-0.168-0.13-0.236-0.041-0.049-0.094-0.088-0.153-0.114-0.067-0.027-0.141-0.041-0.218-0.041-0.006 0-0.012 0-0.018 0l-1.307-0v0.376h1.332c0.001-0 0.002-0 0.003-0 0.030 0 0.058 0.009 0.081 0.024 0.029 0.033 0.051 0.076 0.059 0.122 0.016 0.079 0.025 0.167 0.025 0.258 0 0.015-0 0.031-0.001 0.046l0 1.546h0.376v-1.512zM77.172 24.536c0-0.009 0-0.019 0-0.030 0-0.124-0.019-0.243-0.055-0.355-0.032-0.093-0.086-0.18-0.154-0.252-0.066-0.073-0.151-0.129-0.248-0.159s-0.201-0.045-0.31-0.045c-0.005 0-0.009 0-0.014 0h-0.043c-0.007-0-0.015-0-0.023-0-0.192 0-0.367 0.078-0.493 0.204-0.048 0.052-0.090 0.111-0.122 0.176-0.036 0.067-0.069 0.141-0.095 0.218l-0.047 0.13-0.308-0.708h-0.4l0.468 1.128-0.4 1.252h0.4l0.484-1.552c0.034-0.138 0.098-0.258 0.185-0.357 0.040-0.039 0.089-0.070 0.144-0.090 0.056-0.019 0.117-0.029 0.18-0.029 0.004 0 0.008 0 0.011 0h0.031c0.007-0 0.014-0.001 0.022-0.001 0.11 0 0.21 0.045 0.282 0.117 0.075 0.091 0.12 0.209 0.12 0.338 0 0.022-0.001 0.044-0.004 0.065l0 1.149h-0.76v0.372h1.136v-1.572zM74.676 24.572c0.001-0.017 0.001-0.038 0.001-0.058 0-0.141-0.016-0.278-0.047-0.41-0.022-0.084-0.068-0.168-0.13-0.236-0.041-0.049-0.094-0.088-0.153-0.114-0.067-0.027-0.141-0.041-0.219-0.041-0.006 0-0.011 0-0.017 0l-1.031-0v0.376h1.044c0.006-0.002 0.013-0.003 0.020-0.003s0.014 0.001 0.020 0.003l0.043 0.028c0.030 0.033 0.052 0.073 0.064 0.118 0.019 0.077 0.029 0.164 0.029 0.253 0 0.016-0 0.032-0.001 0.047l0 1.538h0.376v-1.5zM72.896 24.26c-0.043-0.146-0.116-0.273-0.213-0.377-0.059-0.059-0.133-0.105-0.216-0.13-0.086-0.026-0.181-0.041-0.279-0.041-0.003 0-0.006 0-0.009 0h-0.876v0.376h0.864c0.020-0.002 0.043-0.003 0.066-0.003s0.046 0.001 0.069 0.003c0.036 0.007 0.071 0.026 0.097 0.052 0.058 0.065 0.103 0.144 0.127 0.232 0.037 0.136 0.058 0.286 0.058 0.442 0 0.025-0.001 0.049-0.002 0.073 0.003 0.044 0.005 0.1 0.005 0.157s-0.002 0.112-0.005 0.168c-0.009 0.072-0.023 0.144-0.042 0.214-0.012 0.040-0.032 0.084-0.059 0.124-0.020 0.029-0.044 0.055-0.070 0.078-0.056 0.041-0.126 0.066-0.202 0.066-0.009 0-0.019-0-0.028-0.001l-0.863 0v0.376h0.856c0.005 0 0.010 0 0.016 0 0.093 0 0.182-0.013 0.267-0.038 0.078-0.024 0.15-0.068 0.209-0.126 0.104-0.102 0.184-0.228 0.23-0.369 0.058-0.181 0.091-0.383 0.091-0.591 0-0.024-0-0.047-0.001-0.070 0.001-0.017 0.001-0.040 0.001-0.064 0-0.202-0.028-0.398-0.081-0.584zM71.132 23.688h-1.2v0.376h0.692c-0.053 0.012-0.099 0.037-0.136 0.072-0.034 0.032-0.062 0.071-0.083 0.113-0.018 0.042-0.032 0.087-0.041 0.135-0.002 0.023-0.003 0.045-0.003 0.067s0.001 0.045 0.003 0.067l-0 1.549h0.376v-1.628c-0.002-0.020-0.003-0.043-0.003-0.066s0.001-0.046 0.003-0.069c0.008-0.039 0.023-0.077 0.045-0.11 0.021-0.031 0.051-0.057 0.086-0.074 0.040-0.018 0.086-0.029 0.134-0.029 0.005 0 0.011 0 0.016 0l0.111-0v-0.376zM68.796 23.688h-1.356v-0.828h-0.376v1.164c-0 0.003-0.001 0.006-0.001 0.009 0 0.033 0.027 0.060 0.060 0.060 0.003 0 0.006-0 0.009-0.001l1.244 0-0.208 1.16c-0.016 0.145-0.085 0.271-0.187 0.359-0.092 0.066-0.206 0.105-0.329 0.105-0.007 0-0.014-0-0.021-0l-0.099 0v0.376h0.128c0.002 0 0.004 0 0.006 0 0.105 0 0.206-0.015 0.302-0.042 0.092-0.026 0.179-0.071 0.254-0.131 0.082-0.068 0.15-0.152 0.2-0.246 0.064-0.12 0.111-0.254 0.137-0.396l0.269-1.477c0-0.052 0-0.080-0.048-0.080zM66.884 24.58c0.001-0.017 0.001-0.037 0.001-0.057 0-0.142-0.016-0.279-0.047-0.412-0.023-0.084-0.068-0.168-0.13-0.236-0.041-0.049-0.094-0.088-0.153-0.114-0.067-0.027-0.141-0.041-0.218-0.041-0.006 0-0.012 0-0.018 0l-1.031-0v0.376h1.044c0.006-0.002 0.013-0.003 0.020-0.003s0.014 0.001 0.020 0.003l0.043 0.028c0.030 0.033 0.052 0.073 0.064 0.118 0.019 0.077 0.029 0.164 0.029 0.253 0 0.016-0 0.032-0.001 0.047l0 1.538h0.376v-1.508zM65.128 24.52c-0.011-0.106-0.031-0.202-0.059-0.295-0.021-0.068-0.051-0.137-0.088-0.202-0.032-0.055-0.072-0.106-0.118-0.151-0.058-0.057-0.131-0.099-0.213-0.119-0.084-0.021-0.176-0.033-0.27-0.033-0.006 0-0.012 0-0.018 0h-1.163v0.908c-0.002 0.029-0.003 0.064-0.003 0.098s0.001 0.069 0.003 0.103c0.005 0.047 0.022 0.093 0.048 0.133 0.026 0.035 0.063 0.063 0.106 0.078 0.051 0.018 0.109 0.029 0.168 0.029 0.005 0 0.009-0 0.014-0h0.463v-0.352h-0.324c-0.002 0-0.003 0-0.005 0-0.031 0-0.060-0.014-0.079-0.036-0.016-0.034-0.025-0.074-0.025-0.117 0-0.010 0.001-0.019 0.001-0.029l-0-0.447h0.8c0.020-0.002 0.043-0.004 0.066-0.004s0.046 0.001 0.069 0.004c0.035 0.009 0.067 0.027 0.093 0.052 0.023 0.024 0.043 0.052 0.059 0.082 0.024 0.044 0.042 0.092 0.052 0.143 0.015 0.065 0.026 0.139 0.032 0.214 0 0.090 0 0.19 0 0.31s0 0.228 0 0.312c-0.005 0.080-0.013 0.152-0.026 0.224-0.007 0.039-0.022 0.085-0.044 0.127-0.016 0.030-0.037 0.058-0.063 0.081-0.057 0.041-0.128 0.065-0.205 0.065-0.009 0-0.019-0-0.028-0.001l-1.199 0v0.376h1.2c0.005 0 0.011 0 0.018 0 0.084 0 0.164-0.013 0.24-0.038 0.070-0.028 0.134-0.071 0.186-0.126 0.107-0.108 0.188-0.243 0.231-0.394 0.051-0.177 0.079-0.373 0.079-0.576 0-0.025-0-0.050-0.001-0.075 0.004-0.056 0.006-0.126 0.006-0.196s-0.002-0.14-0.006-0.21zM62.804 23.668h-0.376v2.376h0.372zM62.192 26.012l-0.672-0.928c0.105-0.077 0.196-0.166 0.274-0.265 0.067-0.088 0.121-0.186 0.16-0.291 0.040-0.109 0.067-0.228 0.078-0.35q0-0.194 0-0.434v-0.080h-0.4v0.092c0 0.12 0 0.236 0 0.34-0.003 0.107-0.013 0.209-0.030 0.309-0.014 0.083-0.042 0.169-0.081 0.249-0.039 0.078-0.093 0.149-0.157 0.21l-0.912-1.2h-0.452v0.028l0.58 0.776c-0.109 0.086-0.2 0.188-0.273 0.303-0.067 0.107-0.121 0.225-0.16 0.35-0.039 0.127-0.066 0.263-0.078 0.404q-0.001 0.211-0.001 0.407v0.096h0.4v-0.028q0-0.188 0-0.376c0.006-0.131 0.021-0.253 0.043-0.373 0.017-0.098 0.049-0.202 0.093-0.299 0.036-0.082 0.094-0.158 0.168-0.215l0.985 1.351h0.444v-0.032zM58.268 24.668h-0.376v1.376h0.376zM59.764 24.528c0.001-0.017 0.001-0.037 0.001-0.057 0-0.142-0.016-0.279-0.047-0.412-0.023-0.084-0.069-0.167-0.13-0.236-0.041-0.049-0.094-0.088-0.153-0.114-0.067-0.027-0.141-0.041-0.218-0.041-0.006 0-0.012 0-0.018 0l-1.307-0v0.376h1.332c0.001-0 0.002-0 0.003-0 0.030 0 0.058 0.009 0.081 0.024 0.030 0.033 0.051 0.076 0.059 0.122 0.016 0.079 0.025 0.167 0.025 0.258 0 0.015-0 0.031-0.001 0.046l0 1.546h0.376zM56.668 26.012l-0.668-0.88c0.105-0.077 0.196-0.166 0.274-0.265 0.067-0.088 0.121-0.186 0.16-0.291 0.040-0.109 0.067-0.228 0.078-0.35q0-0.194 0-0.434v-0.080h-0.4v0.092c0 0.12 0 0.236 0 0.34-0.003 0.107-0.013 0.209-0.030 0.309-0.015 0.083-0.042 0.169-0.081 0.249-0.040 0.078-0.093 0.149-0.157 0.21l-0.912-1.2h-0.452v0.028l0.58 0.776c-0.109 0.086-0.2 0.188-0.273 0.303-0.067 0.107-0.121 0.225-0.16 0.35-0.039 0.127-0.066 0.263-0.078 0.404q-0.001 0.211-0.001 0.407v0.096h0.4v-0.076q0-0.188 0-0.376c0.007-0.131 0.021-0.254 0.043-0.374 0.017-0.098 0.049-0.202 0.093-0.299 0.036-0.082 0.094-0.157 0.168-0.215l0.985 1.351h0.444v-0.032zM53.696 25.304c-0.010 0.117-0.060 0.222-0.136 0.3-0.088 0.071-0.201 0.114-0.324 0.114-0.018 0-0.036-0.001-0.054-0.003l-0.122 0c-0.017 0.002-0.036 0.003-0.056 0.003-0.111 0-0.212-0.037-0.293-0.1-0.061-0.067-0.099-0.156-0.103-0.255l-0.128-1.333h1.364zM54.236 23.668h-2.148c-0.005-0.003-0.010-0.004-0.016-0.004s-0.011 0.002-0.016 0.004c-0.001 0.005-0.001 0.010-0.001 0.016s0.001 0.011 0.002 0.017l0.176 1.631c0.011 0.134 0.042 0.257 0.091 0.372 0.036 0.082 0.094 0.158 0.168 0.215 0.074 0.055 0.162 0.094 0.257 0.112 0.099 0.019 0.209 0.029 0.321 0.029 0.011 0 0.022-0 0.032-0l0.098 0c0.004 0 0.008 0 0.013 0 0.114 0 0.224-0.019 0.326-0.054 0.098-0.034 0.188-0.087 0.266-0.155 0.079-0.073 0.145-0.16 0.193-0.258 0.055-0.113 0.092-0.239 0.106-0.372l0.184-1.521c0-0.036 0-0.052-0.040-0.052zM51.784 24.508c0.001-0.017 0.001-0.038 0.001-0.058 0-0.141-0.016-0.278-0.047-0.41-0.022-0.084-0.068-0.168-0.13-0.236-0.042-0.049-0.094-0.088-0.153-0.114-0.067-0.027-0.141-0.041-0.219-0.041-0.006 0-0.011 0-0.017 0l-1.311-0v1.792c0 0.003 0 0.006 0 0.009 0 0.064-0.028 0.123-0.072 0.163-0.048 0.040-0.111 0.065-0.179 0.065-0.006 0-0.012-0-0.018-0.001-0.018 0.002-0.039 0.004-0.061 0.004s-0.043-0.001-0.065-0.004l-0.081-0.024v0.372c0.034 0.013 0.073 0.023 0.113 0.028l0.115 0c0.010 0.001 0.022 0.001 0.035 0.001 0.162 0 0.31-0.061 0.422-0.161 0.104-0.109 0.169-0.258 0.169-0.422 0-0.016-0.001-0.032-0.002-0.047l0-1.334h0.956c0.028 0 0.055 0.009 0.076 0.024 0.030 0.034 0.053 0.076 0.063 0.122 0.019 0.078 0.029 0.166 0.029 0.257 0 0.016-0 0.032-0.001 0.047l0 1.546h0.376v-1.512zM49.384 23.74c0.003-0.010 0.005-0.021 0.005-0.032s-0.002-0.022-0.005-0.033c-0.015-0.017-0.038-0.028-0.063-0.028-0.004 0-0.009 0-0.013 0.001l-1.096-0v0.376h0.76l-0.172 1.304c0 0.137-0.066 0.259-0.167 0.335-0.098 0.056-0.213 0.089-0.337 0.089-0.010 0-0.020-0-0.030-0.001l-0.083 0c-0.010 0.001-0.023 0.001-0.035 0.001-0.102 0-0.196-0.030-0.275-0.082-0.072-0.072-0.118-0.173-0.118-0.285 0-0.001 0-0.002 0-0.002l-0.156-1.672h-0.4l0.176 1.68c0.010 0.135 0.041 0.26 0.091 0.375 0.038 0.083 0.097 0.158 0.172 0.216 0.073 0.055 0.16 0.094 0.253 0.112 0.095 0.019 0.2 0.029 0.307 0.029 0.007 0 0.015-0 0.022-0h0.043c0.015 0.001 0.033 0.001 0.050 0.001 0.223 0 0.429-0.073 0.596-0.195 0.17-0.152 0.281-0.371 0.293-0.616l0.176-1.41c0.001-0.014 0.002-0.031 0.002-0.048s-0.001-0.034-0.002-0.050zM46.864 23.712h-0.376v1.364h0.376zM46.064 24.572c0.001-0.017 0.001-0.038 0.001-0.058 0-0.141-0.016-0.278-0.047-0.41-0.022-0.084-0.068-0.168-0.13-0.236-0.042-0.049-0.094-0.088-0.153-0.114-0.067-0.027-0.141-0.041-0.219-0.041-0.006 0-0.011 0-0.017 0l-1.311-0v1.792c0 0.003 0 0.006 0 0.009 0 0.064-0.028 0.123-0.072 0.163-0.048 0.040-0.111 0.065-0.179 0.065-0.006 0-0.012-0-0.018-0.001-0.018 0.002-0.039 0.004-0.061 0.004s-0.043-0.001-0.065-0.004l-0.081-0.024v0.372c0.034 0.013 0.073 0.023 0.113 0.028l0.115 0c0.010 0.001 0.022 0.001 0.035 0.001 0.162 0 0.31-0.061 0.422-0.161 0.104-0.109 0.169-0.258 0.169-0.422 0-0.016-0.001-0.032-0.002-0.047l0-1.398h0.956c0.028 0 0.055 0.009 0.076 0.024 0.030 0.034 0.053 0.076 0.063 0.122 0.019 0.078 0.029 0.166 0.029 0.257 0 0.016-0 0.032-0.001 0.047l0 1.546h0.376v-1.512z"></path>
</symbol>
<symbol id="icon-cross" viewBox="0 0 32 32">
<title>cross</title>
<path d="M31.708 25.708c-0-0-0-0-0-0l-9.708-9.708 9.708-9.708c0-0 0-0 0-0 0.105-0.105 0.18-0.227 0.229-0.357 0.133-0.356 0.057-0.771-0.229-1.057l-4.586-4.586c-0.286-0.286-0.702-0.361-1.057-0.229-0.13 0.048-0.252 0.124-0.357 0.228 0 0-0 0-0 0l-9.708 9.708-9.708-9.708c-0-0-0-0-0-0-0.105-0.104-0.227-0.18-0.357-0.228-0.356-0.133-0.771-0.057-1.057 0.229l-4.586 4.586c-0.286 0.286-0.361 0.702-0.229 1.057 0.049 0.13 0.124 0.252 0.229 0.357 0 0 0 0 0 0l9.708 9.708-9.708 9.708c-0 0-0 0-0 0-0.104 0.105-0.18 0.227-0.229 0.357-0.133 0.355-0.057 0.771 0.229 1.057l4.586 4.586c0.286 0.286 0.702 0.361 1.057 0.229 0.13-0.049 0.252-0.124 0.357-0.229 0-0 0-0 0-0l9.708-9.708 9.708 9.708c0 0 0 0 0 0 0.105 0.105 0.227 0.18 0.357 0.229 0.356 0.133 0.771 0.057 1.057-0.229l4.586-4.586c0.286-0.286 0.362-0.702 0.229-1.057-0.049-0.13-0.124-0.252-0.229-0.357z"></path>
</symbol>
</defs>
</svg>
